G04 #@! TF.GenerationSoftware,KiCad,Pcbnew,(5.1.4-0-10_14)*
G04 #@! TF.CreationDate,2020-01-10T09:40:25-08:00*
G04 #@! TF.ProjectId,Griduino,47726964-7569-46e6-9f2e-6b696361645f,0*
G04 #@! TF.SameCoordinates,Original*
G04 #@! TF.FileFunction,Legend,Bot*
G04 #@! TF.FilePolarity,Positive*
%FSLAX46Y46*%
G04 Gerber Fmt 4.6, Leading zero omitted, Abs format (unit mm)*
G04 Created by KiCad (PCBNEW (5.1.4-0-10_14)) date 2020-01-10 09:40:25*
%MOMM*%
%LPD*%
G04 APERTURE LIST*
%ADD10C,0.150000*%
G04 APERTURE END LIST*
D10*
X104312961Y-89746647D02*
X104312961Y-87206647D01*
X104312961Y-88416171D02*
X102861533Y-88416171D01*
X102861533Y-89746647D02*
X102861533Y-87206647D01*
X102014866Y-87206647D02*
X101168200Y-89746647D01*
X100321533Y-87206647D01*
X97539628Y-88416171D02*
X96692961Y-88416171D01*
X96330104Y-89746647D02*
X97539628Y-89746647D01*
X97539628Y-87206647D01*
X96330104Y-87206647D01*
X94878676Y-89746647D02*
X95120580Y-89625695D01*
X95241533Y-89383790D01*
X95241533Y-87206647D01*
X92943438Y-89625695D02*
X93185342Y-89746647D01*
X93669152Y-89746647D01*
X93911057Y-89625695D01*
X94032009Y-89383790D01*
X94032009Y-88416171D01*
X93911057Y-88174266D01*
X93669152Y-88053314D01*
X93185342Y-88053314D01*
X92943438Y-88174266D01*
X92822485Y-88416171D01*
X92822485Y-88658076D01*
X94032009Y-88899980D01*
X90645342Y-89625695D02*
X90887247Y-89746647D01*
X91371057Y-89746647D01*
X91612961Y-89625695D01*
X91733914Y-89504742D01*
X91854866Y-89262838D01*
X91854866Y-88537123D01*
X91733914Y-88295219D01*
X91612961Y-88174266D01*
X91371057Y-88053314D01*
X90887247Y-88053314D01*
X90645342Y-88174266D01*
X89919628Y-88053314D02*
X88952009Y-88053314D01*
X89556771Y-87206647D02*
X89556771Y-89383790D01*
X89435819Y-89625695D01*
X89193914Y-89746647D01*
X88952009Y-89746647D01*
X88105342Y-89746647D02*
X88105342Y-88053314D01*
X88105342Y-88537123D02*
X87984390Y-88295219D01*
X87863438Y-88174266D01*
X87621533Y-88053314D01*
X87379628Y-88053314D01*
X86170104Y-89746647D02*
X86412009Y-89625695D01*
X86532961Y-89504742D01*
X86653914Y-89262838D01*
X86653914Y-88537123D01*
X86532961Y-88295219D01*
X86412009Y-88174266D01*
X86170104Y-88053314D01*
X85807247Y-88053314D01*
X85565342Y-88174266D01*
X85444390Y-88295219D01*
X85323438Y-88537123D01*
X85323438Y-89262838D01*
X85444390Y-89504742D01*
X85565342Y-89625695D01*
X85807247Y-89746647D01*
X86170104Y-89746647D01*
X84234866Y-88053314D02*
X84234866Y-89746647D01*
X84234866Y-88295219D02*
X84113914Y-88174266D01*
X83872009Y-88053314D01*
X83509152Y-88053314D01*
X83267247Y-88174266D01*
X83146295Y-88416171D01*
X83146295Y-89746647D01*
X81936771Y-89746647D02*
X81936771Y-88053314D01*
X81936771Y-87206647D02*
X82057723Y-87327600D01*
X81936771Y-87448552D01*
X81815819Y-87327600D01*
X81936771Y-87206647D01*
X81936771Y-87448552D01*
X79638676Y-89625695D02*
X79880580Y-89746647D01*
X80364390Y-89746647D01*
X80606295Y-89625695D01*
X80727247Y-89504742D01*
X80848200Y-89262838D01*
X80848200Y-88537123D01*
X80727247Y-88295219D01*
X80606295Y-88174266D01*
X80364390Y-88053314D01*
X79880580Y-88053314D01*
X79638676Y-88174266D01*
X78671057Y-89625695D02*
X78429152Y-89746647D01*
X77945342Y-89746647D01*
X77703438Y-89625695D01*
X77582485Y-89383790D01*
X77582485Y-89262838D01*
X77703438Y-89020933D01*
X77945342Y-88899980D01*
X78308200Y-88899980D01*
X78550104Y-88779028D01*
X78671057Y-88537123D01*
X78671057Y-88416171D01*
X78550104Y-88174266D01*
X78308200Y-88053314D01*
X77945342Y-88053314D01*
X77703438Y-88174266D01*
X96934866Y-91287600D02*
X97176771Y-91166647D01*
X97539628Y-91166647D01*
X97902485Y-91287600D01*
X98144390Y-91529504D01*
X98265342Y-91771409D01*
X98386295Y-92255219D01*
X98386295Y-92618076D01*
X98265342Y-93101885D01*
X98144390Y-93343790D01*
X97902485Y-93585695D01*
X97539628Y-93706647D01*
X97297723Y-93706647D01*
X96934866Y-93585695D01*
X96813914Y-93464742D01*
X96813914Y-92618076D01*
X97297723Y-92618076D01*
X95725342Y-93706647D02*
X95725342Y-92013314D01*
X95725342Y-92497123D02*
X95604390Y-92255219D01*
X95483438Y-92134266D01*
X95241533Y-92013314D01*
X94999628Y-92013314D01*
X94152961Y-93706647D02*
X94152961Y-92013314D01*
X94152961Y-91166647D02*
X94273914Y-91287600D01*
X94152961Y-91408552D01*
X94032009Y-91287600D01*
X94152961Y-91166647D01*
X94152961Y-91408552D01*
X91854866Y-93706647D02*
X91854866Y-91166647D01*
X91854866Y-93585695D02*
X92096771Y-93706647D01*
X92580580Y-93706647D01*
X92822485Y-93585695D01*
X92943438Y-93464742D01*
X93064390Y-93222838D01*
X93064390Y-92497123D01*
X92943438Y-92255219D01*
X92822485Y-92134266D01*
X92580580Y-92013314D01*
X92096771Y-92013314D01*
X91854866Y-92134266D01*
X89556771Y-92013314D02*
X89556771Y-93706647D01*
X90645342Y-92013314D02*
X90645342Y-93343790D01*
X90524390Y-93585695D01*
X90282485Y-93706647D01*
X89919628Y-93706647D01*
X89677723Y-93585695D01*
X89556771Y-93464742D01*
X88347247Y-93706647D02*
X88347247Y-92013314D01*
X88347247Y-91166647D02*
X88468200Y-91287600D01*
X88347247Y-91408552D01*
X88226295Y-91287600D01*
X88347247Y-91166647D01*
X88347247Y-91408552D01*
X87137723Y-92013314D02*
X87137723Y-93706647D01*
X87137723Y-92255219D02*
X87016771Y-92134266D01*
X86774866Y-92013314D01*
X86412009Y-92013314D01*
X86170104Y-92134266D01*
X86049152Y-92376171D01*
X86049152Y-93706647D01*
X84476771Y-93706647D02*
X84718676Y-93585695D01*
X84839628Y-93464742D01*
X84960580Y-93222838D01*
X84960580Y-92497123D01*
X84839628Y-92255219D01*
X84718676Y-92134266D01*
X84476771Y-92013314D01*
X84113914Y-92013314D01*
X83872009Y-92134266D01*
X83751057Y-92255219D01*
X83630104Y-92497123D01*
X83630104Y-93222838D01*
X83751057Y-93464742D01*
X83872009Y-93585695D01*
X84113914Y-93706647D01*
X84476771Y-93706647D01*
X95060104Y-97666647D02*
X95906771Y-96457123D01*
X96511533Y-97666647D02*
X96511533Y-95126647D01*
X95543914Y-95126647D01*
X95302009Y-95247600D01*
X95181057Y-95368552D01*
X95060104Y-95610457D01*
X95060104Y-95973314D01*
X95181057Y-96215219D01*
X95302009Y-96336171D01*
X95543914Y-96457123D01*
X96511533Y-96457123D01*
X93003914Y-97545695D02*
X93245819Y-97666647D01*
X93729628Y-97666647D01*
X93971533Y-97545695D01*
X94092485Y-97303790D01*
X94092485Y-96336171D01*
X93971533Y-96094266D01*
X93729628Y-95973314D01*
X93245819Y-95973314D01*
X93003914Y-96094266D01*
X92882961Y-96336171D01*
X92882961Y-96578076D01*
X94092485Y-96819980D01*
X92036295Y-95973314D02*
X91431533Y-97666647D01*
X90826771Y-95973314D01*
X89859152Y-97424742D02*
X89738200Y-97545695D01*
X89859152Y-97666647D01*
X89980104Y-97545695D01*
X89859152Y-97424742D01*
X89859152Y-97666647D01*
X89859152Y-96094266D02*
X89738200Y-96215219D01*
X89859152Y-96336171D01*
X89980104Y-96215219D01*
X89859152Y-96094266D01*
X89859152Y-96336171D01*
X86230580Y-95126647D02*
X85988676Y-95126647D01*
X85746771Y-95247600D01*
X85625819Y-95368552D01*
X85504866Y-95610457D01*
X85383914Y-96094266D01*
X85383914Y-96699028D01*
X85504866Y-97182838D01*
X85625819Y-97424742D01*
X85746771Y-97545695D01*
X85988676Y-97666647D01*
X86230580Y-97666647D01*
X86472485Y-97545695D01*
X86593438Y-97424742D01*
X86714390Y-97182838D01*
X86835342Y-96699028D01*
X86835342Y-96094266D01*
X86714390Y-95610457D01*
X86593438Y-95368552D01*
X86472485Y-95247600D01*
X86230580Y-95126647D01*
M02*
