G04 #@! TF.GenerationSoftware,KiCad,Pcbnew,(5.1.4-0-10_14)*
G04 #@! TF.CreationDate,2020-01-10T09:40:25-08:00*
G04 #@! TF.ProjectId,Griduino,47726964-7569-46e6-9f2e-6b696361645f,0*
G04 #@! TF.SameCoordinates,Original*
G04 #@! TF.FileFunction,Soldermask,Top*
G04 #@! TF.FilePolarity,Negative*
%FSLAX46Y46*%
G04 Gerber Fmt 4.6, Leading zero omitted, Abs format (unit mm)*
G04 Created by KiCad (PCBNEW (5.1.4-0-10_14)) date 2020-01-10 09:40:25*
%MOMM*%
%LPD*%
G04 APERTURE LIST*
%ADD10C,0.100000*%
G04 APERTURE END LIST*
D10*
G36*
X106849271Y-136274103D02*
G01*
X106905635Y-136279654D01*
X107122600Y-136345470D01*
X107122602Y-136345471D01*
X107322555Y-136452347D01*
X107497818Y-136596182D01*
X107641653Y-136771445D01*
X107690783Y-136863362D01*
X107748530Y-136971400D01*
X107814346Y-137188365D01*
X107836569Y-137414000D01*
X107814346Y-137639635D01*
X107758674Y-137823161D01*
X107748529Y-137856602D01*
X107641653Y-138056555D01*
X107497818Y-138231818D01*
X107322555Y-138375653D01*
X107122602Y-138482529D01*
X107122600Y-138482530D01*
X106905635Y-138548346D01*
X106849271Y-138553897D01*
X106736545Y-138565000D01*
X106623455Y-138565000D01*
X106510729Y-138553897D01*
X106454365Y-138548346D01*
X106237400Y-138482530D01*
X106237398Y-138482529D01*
X106037445Y-138375653D01*
X105862182Y-138231818D01*
X105718347Y-138056555D01*
X105611471Y-137856602D01*
X105601327Y-137823161D01*
X105545654Y-137639635D01*
X105523431Y-137414000D01*
X105545654Y-137188365D01*
X105611470Y-136971400D01*
X105669217Y-136863362D01*
X105718347Y-136771445D01*
X105862182Y-136596182D01*
X106037445Y-136452347D01*
X106237398Y-136345471D01*
X106237400Y-136345470D01*
X106454365Y-136279654D01*
X106510729Y-136274103D01*
X106623455Y-136263000D01*
X106736545Y-136263000D01*
X106849271Y-136274103D01*
X106849271Y-136274103D01*
G37*
G36*
X96663119Y-136566798D02*
G01*
X96746561Y-136583395D01*
X96903763Y-136648510D01*
X97045241Y-136743042D01*
X97165558Y-136863359D01*
X97260090Y-137004837D01*
X97325205Y-137162039D01*
X97358400Y-137328923D01*
X97358400Y-137499077D01*
X97325205Y-137665961D01*
X97260090Y-137823163D01*
X97165558Y-137964641D01*
X97045241Y-138084958D01*
X96903763Y-138179490D01*
X96746561Y-138244605D01*
X96663119Y-138261202D01*
X96579678Y-138277800D01*
X96409522Y-138277800D01*
X96326081Y-138261202D01*
X96242639Y-138244605D01*
X96085437Y-138179490D01*
X95943959Y-138084958D01*
X95823642Y-137964641D01*
X95729110Y-137823163D01*
X95663995Y-137665961D01*
X95630800Y-137499077D01*
X95630800Y-137328923D01*
X95663995Y-137162039D01*
X95729110Y-137004837D01*
X95823642Y-136863359D01*
X95943959Y-136743042D01*
X96085437Y-136648510D01*
X96242639Y-136583395D01*
X96326081Y-136566798D01*
X96409522Y-136550200D01*
X96579678Y-136550200D01*
X96663119Y-136566798D01*
X96663119Y-136566798D01*
G37*
G36*
X115876564Y-136069389D02*
G01*
X116067833Y-136148615D01*
X116067835Y-136148616D01*
X116239973Y-136263635D01*
X116386365Y-136410027D01*
X116480026Y-136550200D01*
X116501385Y-136582167D01*
X116580611Y-136773436D01*
X116621000Y-136976484D01*
X116621000Y-137183516D01*
X116580611Y-137386564D01*
X116534006Y-137499078D01*
X116501384Y-137577835D01*
X116386365Y-137749973D01*
X116239973Y-137896365D01*
X116067835Y-138011384D01*
X116067834Y-138011385D01*
X116067833Y-138011385D01*
X115876564Y-138090611D01*
X115673516Y-138131000D01*
X115466484Y-138131000D01*
X115263436Y-138090611D01*
X115072167Y-138011385D01*
X115072166Y-138011385D01*
X115072165Y-138011384D01*
X114900027Y-137896365D01*
X114753635Y-137749973D01*
X114638616Y-137577835D01*
X114605994Y-137499078D01*
X114559389Y-137386564D01*
X114519000Y-137183516D01*
X114519000Y-136976484D01*
X114559389Y-136773436D01*
X114638615Y-136582167D01*
X114659975Y-136550200D01*
X114753635Y-136410027D01*
X114900027Y-136263635D01*
X115072165Y-136148616D01*
X115072167Y-136148615D01*
X115263436Y-136069389D01*
X115466484Y-136029000D01*
X115673516Y-136029000D01*
X115876564Y-136069389D01*
X115876564Y-136069389D01*
G37*
G36*
X160921000Y-138061000D02*
G01*
X159119000Y-138061000D01*
X159119000Y-136259000D01*
X160921000Y-136259000D01*
X160921000Y-138061000D01*
X160921000Y-138061000D01*
G37*
G36*
X134846564Y-133609389D02*
G01*
X135037833Y-133688615D01*
X135037835Y-133688616D01*
X135102819Y-133732037D01*
X135209973Y-133803635D01*
X135356365Y-133950027D01*
X135471385Y-134122167D01*
X135550611Y-134313436D01*
X135591000Y-134516484D01*
X135591000Y-134723516D01*
X135550611Y-134926564D01*
X135534083Y-134966466D01*
X135471384Y-135117835D01*
X135356365Y-135289973D01*
X135209973Y-135436365D01*
X135037835Y-135551384D01*
X135037834Y-135551385D01*
X135037833Y-135551385D01*
X134846564Y-135630611D01*
X134643516Y-135671000D01*
X134436484Y-135671000D01*
X134233436Y-135630611D01*
X134042167Y-135551385D01*
X134042166Y-135551385D01*
X134042165Y-135551384D01*
X133870027Y-135436365D01*
X133723635Y-135289973D01*
X133608616Y-135117835D01*
X133545917Y-134966466D01*
X133529389Y-134926564D01*
X133489000Y-134723516D01*
X133489000Y-134516484D01*
X133529389Y-134313436D01*
X133608615Y-134122167D01*
X133723635Y-133950027D01*
X133870027Y-133803635D01*
X133977181Y-133732037D01*
X134042165Y-133688616D01*
X134042167Y-133688615D01*
X134233436Y-133609389D01*
X134436484Y-133569000D01*
X134643516Y-133569000D01*
X134846564Y-133609389D01*
X134846564Y-133609389D01*
G37*
G36*
X130591000Y-135671000D02*
G01*
X128489000Y-135671000D01*
X128489000Y-133569000D01*
X130591000Y-133569000D01*
X130591000Y-135671000D01*
X130591000Y-135671000D01*
G37*
G36*
X160130443Y-133725519D02*
G01*
X160196627Y-133732037D01*
X160366466Y-133783557D01*
X160522991Y-133867222D01*
X160558729Y-133896552D01*
X160660186Y-133979814D01*
X160743448Y-134081271D01*
X160772778Y-134117009D01*
X160856443Y-134273534D01*
X160907963Y-134443373D01*
X160925359Y-134620000D01*
X160907963Y-134796627D01*
X160856443Y-134966466D01*
X160772778Y-135122991D01*
X160743448Y-135158729D01*
X160660186Y-135260186D01*
X160558729Y-135343448D01*
X160522991Y-135372778D01*
X160366466Y-135456443D01*
X160196627Y-135507963D01*
X160130443Y-135514481D01*
X160064260Y-135521000D01*
X159975740Y-135521000D01*
X159909557Y-135514481D01*
X159843373Y-135507963D01*
X159673534Y-135456443D01*
X159517009Y-135372778D01*
X159481271Y-135343448D01*
X159379814Y-135260186D01*
X159296552Y-135158729D01*
X159267222Y-135122991D01*
X159183557Y-134966466D01*
X159132037Y-134796627D01*
X159114641Y-134620000D01*
X159132037Y-134443373D01*
X159183557Y-134273534D01*
X159267222Y-134117009D01*
X159296552Y-134081271D01*
X159379814Y-133979814D01*
X159481271Y-133896552D01*
X159517009Y-133867222D01*
X159673534Y-133783557D01*
X159843373Y-133732037D01*
X159909557Y-133725519D01*
X159975740Y-133719000D01*
X160064260Y-133719000D01*
X160130443Y-133725519D01*
X160130443Y-133725519D01*
G37*
G36*
X170301256Y-130242698D02*
G01*
X170407579Y-130263847D01*
X170620037Y-130351850D01*
X170679410Y-130376443D01*
X170708042Y-130388303D01*
X170978451Y-130568985D01*
X171208415Y-130798949D01*
X171389097Y-131069358D01*
X171513553Y-131369821D01*
X171577000Y-131688791D01*
X171577000Y-132014009D01*
X171513553Y-132332979D01*
X171389097Y-132633442D01*
X171208415Y-132903851D01*
X170978451Y-133133815D01*
X170708042Y-133314497D01*
X170407579Y-133438953D01*
X170301256Y-133460102D01*
X170088611Y-133502400D01*
X169763389Y-133502400D01*
X169550744Y-133460102D01*
X169444421Y-133438953D01*
X169143958Y-133314497D01*
X168873549Y-133133815D01*
X168643585Y-132903851D01*
X168462903Y-132633442D01*
X168338447Y-132332979D01*
X168275000Y-132014009D01*
X168275000Y-131688791D01*
X168338447Y-131369821D01*
X168462903Y-131069358D01*
X168643585Y-130798949D01*
X168873549Y-130568985D01*
X169143958Y-130388303D01*
X169172591Y-130376443D01*
X169231963Y-130351850D01*
X169444421Y-130263847D01*
X169550744Y-130242698D01*
X169763389Y-130200400D01*
X170088611Y-130200400D01*
X170301256Y-130242698D01*
X170301256Y-130242698D01*
G37*
G36*
X84449256Y-130242698D02*
G01*
X84555579Y-130263847D01*
X84768037Y-130351850D01*
X84827410Y-130376443D01*
X84856042Y-130388303D01*
X85126451Y-130568985D01*
X85356415Y-130798949D01*
X85537097Y-131069358D01*
X85661553Y-131369821D01*
X85725000Y-131688791D01*
X85725000Y-132014009D01*
X85661553Y-132332979D01*
X85537097Y-132633442D01*
X85356415Y-132903851D01*
X85126451Y-133133815D01*
X84856042Y-133314497D01*
X84555579Y-133438953D01*
X84449256Y-133460102D01*
X84236611Y-133502400D01*
X83911389Y-133502400D01*
X83698744Y-133460102D01*
X83592421Y-133438953D01*
X83291958Y-133314497D01*
X83021549Y-133133815D01*
X82791585Y-132903851D01*
X82610903Y-132633442D01*
X82486447Y-132332979D01*
X82423000Y-132014009D01*
X82423000Y-131688791D01*
X82486447Y-131369821D01*
X82610903Y-131069358D01*
X82791585Y-130798949D01*
X83021549Y-130568985D01*
X83291958Y-130388303D01*
X83320591Y-130376443D01*
X83379963Y-130351850D01*
X83592421Y-130263847D01*
X83698744Y-130242698D01*
X83911389Y-130200400D01*
X84236611Y-130200400D01*
X84449256Y-130242698D01*
X84449256Y-130242698D01*
G37*
G36*
X116621000Y-133131000D02*
G01*
X114519000Y-133131000D01*
X114519000Y-131029000D01*
X116621000Y-131029000D01*
X116621000Y-133131000D01*
X116621000Y-133131000D01*
G37*
G36*
X160130442Y-131185518D02*
G01*
X160196627Y-131192037D01*
X160366466Y-131243557D01*
X160522991Y-131327222D01*
X160558729Y-131356552D01*
X160660186Y-131439814D01*
X160743448Y-131541271D01*
X160772778Y-131577009D01*
X160856443Y-131733534D01*
X160907963Y-131903373D01*
X160925359Y-132080000D01*
X160907963Y-132256627D01*
X160856443Y-132426466D01*
X160772778Y-132582991D01*
X160743448Y-132618729D01*
X160660186Y-132720186D01*
X160558729Y-132803448D01*
X160522991Y-132832778D01*
X160366466Y-132916443D01*
X160196627Y-132967963D01*
X160130443Y-132974481D01*
X160064260Y-132981000D01*
X159975740Y-132981000D01*
X159909557Y-132974481D01*
X159843373Y-132967963D01*
X159673534Y-132916443D01*
X159517009Y-132832778D01*
X159481271Y-132803448D01*
X159379814Y-132720186D01*
X159296552Y-132618729D01*
X159267222Y-132582991D01*
X159183557Y-132426466D01*
X159132037Y-132256627D01*
X159114641Y-132080000D01*
X159132037Y-131903373D01*
X159183557Y-131733534D01*
X159267222Y-131577009D01*
X159296552Y-131541271D01*
X159379814Y-131439814D01*
X159481271Y-131356552D01*
X159517009Y-131327222D01*
X159673534Y-131243557D01*
X159843373Y-131192037D01*
X159909558Y-131185518D01*
X159975740Y-131179000D01*
X160064260Y-131179000D01*
X160130442Y-131185518D01*
X160130442Y-131185518D01*
G37*
G36*
X160130443Y-128645519D02*
G01*
X160196627Y-128652037D01*
X160366466Y-128703557D01*
X160522991Y-128787222D01*
X160558729Y-128816552D01*
X160660186Y-128899814D01*
X160743448Y-129001271D01*
X160772778Y-129037009D01*
X160856443Y-129193534D01*
X160907963Y-129363373D01*
X160925359Y-129540000D01*
X160907963Y-129716627D01*
X160856443Y-129886466D01*
X160772778Y-130042991D01*
X160743448Y-130078729D01*
X160660186Y-130180186D01*
X160558729Y-130263448D01*
X160522991Y-130292778D01*
X160366466Y-130376443D01*
X160196627Y-130427963D01*
X160130443Y-130434481D01*
X160064260Y-130441000D01*
X159975740Y-130441000D01*
X159909557Y-130434481D01*
X159843373Y-130427963D01*
X159673534Y-130376443D01*
X159517009Y-130292778D01*
X159481271Y-130263448D01*
X159379814Y-130180186D01*
X159296552Y-130078729D01*
X159267222Y-130042991D01*
X159183557Y-129886466D01*
X159132037Y-129716627D01*
X159114641Y-129540000D01*
X159132037Y-129363373D01*
X159183557Y-129193534D01*
X159267222Y-129037009D01*
X159296552Y-129001271D01*
X159379814Y-128899814D01*
X159481271Y-128816552D01*
X159517009Y-128787222D01*
X159673534Y-128703557D01*
X159843373Y-128652037D01*
X159909557Y-128645519D01*
X159975740Y-128639000D01*
X160064260Y-128639000D01*
X160130443Y-128645519D01*
X160130443Y-128645519D01*
G37*
G36*
X107831000Y-128405000D02*
G01*
X105529000Y-128405000D01*
X105529000Y-126103000D01*
X107831000Y-126103000D01*
X107831000Y-128405000D01*
X107831000Y-128405000D01*
G37*
G36*
X124091000Y-127901000D02*
G01*
X122289000Y-127901000D01*
X122289000Y-126099000D01*
X124091000Y-126099000D01*
X124091000Y-127901000D01*
X124091000Y-127901000D01*
G37*
G36*
X160130443Y-126105519D02*
G01*
X160196627Y-126112037D01*
X160366466Y-126163557D01*
X160522991Y-126247222D01*
X160558729Y-126276552D01*
X160660186Y-126359814D01*
X160743448Y-126461271D01*
X160772778Y-126497009D01*
X160856443Y-126653534D01*
X160907963Y-126823373D01*
X160925359Y-127000000D01*
X160907963Y-127176627D01*
X160856443Y-127346466D01*
X160772778Y-127502991D01*
X160743448Y-127538729D01*
X160660186Y-127640186D01*
X160558729Y-127723448D01*
X160522991Y-127752778D01*
X160366466Y-127836443D01*
X160196627Y-127887963D01*
X160130442Y-127894482D01*
X160064260Y-127901000D01*
X159975740Y-127901000D01*
X159909558Y-127894482D01*
X159843373Y-127887963D01*
X159673534Y-127836443D01*
X159517009Y-127752778D01*
X159481271Y-127723448D01*
X159379814Y-127640186D01*
X159296552Y-127538729D01*
X159267222Y-127502991D01*
X159183557Y-127346466D01*
X159132037Y-127176627D01*
X159114641Y-127000000D01*
X159132037Y-126823373D01*
X159183557Y-126653534D01*
X159267222Y-126497009D01*
X159296552Y-126461271D01*
X159379814Y-126359814D01*
X159481271Y-126276552D01*
X159517009Y-126247222D01*
X159673534Y-126163557D01*
X159843373Y-126112037D01*
X159909557Y-126105519D01*
X159975740Y-126099000D01*
X160064260Y-126099000D01*
X160130443Y-126105519D01*
X160130443Y-126105519D01*
G37*
G36*
X140601000Y-127901000D02*
G01*
X138799000Y-127901000D01*
X138799000Y-126099000D01*
X140601000Y-126099000D01*
X140601000Y-127901000D01*
X140601000Y-127901000D01*
G37*
G36*
X170290443Y-124835519D02*
G01*
X170356627Y-124842037D01*
X170526466Y-124893557D01*
X170682991Y-124977222D01*
X170718729Y-125006552D01*
X170820186Y-125089814D01*
X170903448Y-125191271D01*
X170932778Y-125227009D01*
X171016443Y-125383534D01*
X171067963Y-125553373D01*
X171085359Y-125730000D01*
X171067963Y-125906627D01*
X171016443Y-126076466D01*
X170932778Y-126232991D01*
X170903448Y-126268729D01*
X170820186Y-126370186D01*
X170718729Y-126453448D01*
X170682991Y-126482778D01*
X170526466Y-126566443D01*
X170356627Y-126617963D01*
X170290442Y-126624482D01*
X170224260Y-126631000D01*
X170135740Y-126631000D01*
X170069558Y-126624482D01*
X170003373Y-126617963D01*
X169833534Y-126566443D01*
X169677009Y-126482778D01*
X169641271Y-126453448D01*
X169539814Y-126370186D01*
X169456552Y-126268729D01*
X169427222Y-126232991D01*
X169343557Y-126076466D01*
X169292037Y-125906627D01*
X169274641Y-125730000D01*
X169292037Y-125553373D01*
X169343557Y-125383534D01*
X169427222Y-125227009D01*
X169456552Y-125191271D01*
X169539814Y-125089814D01*
X169641271Y-125006552D01*
X169677009Y-124977222D01*
X169833534Y-124893557D01*
X170003373Y-124842037D01*
X170069557Y-124835519D01*
X170135740Y-124829000D01*
X170224260Y-124829000D01*
X170290443Y-124835519D01*
X170290443Y-124835519D01*
G37*
G36*
X113780400Y-125434000D02*
G01*
X112078400Y-125434000D01*
X112078400Y-122332000D01*
X113780400Y-122332000D01*
X113780400Y-125434000D01*
X113780400Y-125434000D01*
G37*
G36*
X118350400Y-125434000D02*
G01*
X116648400Y-125434000D01*
X116648400Y-122332000D01*
X118350400Y-122332000D01*
X118350400Y-125434000D01*
X118350400Y-125434000D01*
G37*
G36*
X160130442Y-123565518D02*
G01*
X160196627Y-123572037D01*
X160366466Y-123623557D01*
X160522991Y-123707222D01*
X160558729Y-123736552D01*
X160660186Y-123819814D01*
X160743448Y-123921271D01*
X160772778Y-123957009D01*
X160856443Y-124113534D01*
X160907963Y-124283373D01*
X160925359Y-124460000D01*
X160907963Y-124636627D01*
X160856443Y-124806466D01*
X160772778Y-124962991D01*
X160743448Y-124998729D01*
X160660186Y-125100186D01*
X160558729Y-125183448D01*
X160522991Y-125212778D01*
X160366466Y-125296443D01*
X160196627Y-125347963D01*
X160130442Y-125354482D01*
X160064260Y-125361000D01*
X159975740Y-125361000D01*
X159909558Y-125354482D01*
X159843373Y-125347963D01*
X159673534Y-125296443D01*
X159517009Y-125212778D01*
X159481271Y-125183448D01*
X159379814Y-125100186D01*
X159296552Y-124998729D01*
X159267222Y-124962991D01*
X159183557Y-124806466D01*
X159132037Y-124636627D01*
X159114641Y-124460000D01*
X159132037Y-124283373D01*
X159183557Y-124113534D01*
X159267222Y-123957009D01*
X159296552Y-123921271D01*
X159379814Y-123819814D01*
X159481271Y-123736552D01*
X159517009Y-123707222D01*
X159673534Y-123623557D01*
X159843373Y-123572037D01*
X159909558Y-123565518D01*
X159975740Y-123559000D01*
X160064260Y-123559000D01*
X160130442Y-123565518D01*
X160130442Y-123565518D01*
G37*
G36*
X139810442Y-123565518D02*
G01*
X139876627Y-123572037D01*
X140046466Y-123623557D01*
X140202991Y-123707222D01*
X140238729Y-123736552D01*
X140340186Y-123819814D01*
X140423448Y-123921271D01*
X140452778Y-123957009D01*
X140536443Y-124113534D01*
X140587963Y-124283373D01*
X140605359Y-124460000D01*
X140587963Y-124636627D01*
X140536443Y-124806466D01*
X140452778Y-124962991D01*
X140423448Y-124998729D01*
X140340186Y-125100186D01*
X140238729Y-125183448D01*
X140202991Y-125212778D01*
X140046466Y-125296443D01*
X139876627Y-125347963D01*
X139810442Y-125354482D01*
X139744260Y-125361000D01*
X139655740Y-125361000D01*
X139589558Y-125354482D01*
X139523373Y-125347963D01*
X139353534Y-125296443D01*
X139197009Y-125212778D01*
X139161271Y-125183448D01*
X139059814Y-125100186D01*
X138976552Y-124998729D01*
X138947222Y-124962991D01*
X138863557Y-124806466D01*
X138812037Y-124636627D01*
X138794641Y-124460000D01*
X138812037Y-124283373D01*
X138863557Y-124113534D01*
X138947222Y-123957009D01*
X138976552Y-123921271D01*
X139059814Y-123819814D01*
X139161271Y-123736552D01*
X139197009Y-123707222D01*
X139353534Y-123623557D01*
X139523373Y-123572037D01*
X139589558Y-123565518D01*
X139655740Y-123559000D01*
X139744260Y-123559000D01*
X139810442Y-123565518D01*
X139810442Y-123565518D01*
G37*
G36*
X170290443Y-122295519D02*
G01*
X170356627Y-122302037D01*
X170526466Y-122353557D01*
X170682991Y-122437222D01*
X170718729Y-122466552D01*
X170820186Y-122549814D01*
X170903448Y-122651271D01*
X170932778Y-122687009D01*
X171016443Y-122843534D01*
X171067963Y-123013373D01*
X171085359Y-123190000D01*
X171067963Y-123366627D01*
X171016443Y-123536466D01*
X170932778Y-123692991D01*
X170903448Y-123728729D01*
X170820186Y-123830186D01*
X170718729Y-123913448D01*
X170682991Y-123942778D01*
X170526466Y-124026443D01*
X170356627Y-124077963D01*
X170290442Y-124084482D01*
X170224260Y-124091000D01*
X170135740Y-124091000D01*
X170069558Y-124084482D01*
X170003373Y-124077963D01*
X169833534Y-124026443D01*
X169677009Y-123942778D01*
X169641271Y-123913448D01*
X169539814Y-123830186D01*
X169456552Y-123728729D01*
X169427222Y-123692991D01*
X169343557Y-123536466D01*
X169292037Y-123366627D01*
X169274641Y-123190000D01*
X169292037Y-123013373D01*
X169343557Y-122843534D01*
X169427222Y-122687009D01*
X169456552Y-122651271D01*
X169539814Y-122549814D01*
X169641271Y-122466552D01*
X169677009Y-122437222D01*
X169833534Y-122353557D01*
X170003373Y-122302037D01*
X170069557Y-122295519D01*
X170135740Y-122289000D01*
X170224260Y-122289000D01*
X170290443Y-122295519D01*
X170290443Y-122295519D01*
G37*
G36*
X133874871Y-121491303D02*
G01*
X133931235Y-121496854D01*
X134148200Y-121562670D01*
X134148202Y-121562671D01*
X134348155Y-121669547D01*
X134523418Y-121813382D01*
X134667253Y-121988645D01*
X134774129Y-122188598D01*
X134774130Y-122188600D01*
X134839946Y-122405565D01*
X134862169Y-122631200D01*
X134839946Y-122856835D01*
X134792460Y-123013375D01*
X134774129Y-123073802D01*
X134667253Y-123273755D01*
X134523418Y-123449018D01*
X134348155Y-123592853D01*
X134160812Y-123692989D01*
X134148200Y-123699730D01*
X133931235Y-123765546D01*
X133874871Y-123771097D01*
X133762145Y-123782200D01*
X133649055Y-123782200D01*
X133536329Y-123771097D01*
X133479965Y-123765546D01*
X133263000Y-123699730D01*
X133250388Y-123692989D01*
X133063045Y-123592853D01*
X132887782Y-123449018D01*
X132743947Y-123273755D01*
X132637071Y-123073802D01*
X132618741Y-123013375D01*
X132571254Y-122856835D01*
X132549031Y-122631200D01*
X132571254Y-122405565D01*
X132637070Y-122188600D01*
X132637071Y-122188598D01*
X132743947Y-121988645D01*
X132887782Y-121813382D01*
X133063045Y-121669547D01*
X133262998Y-121562671D01*
X133263000Y-121562670D01*
X133479965Y-121496854D01*
X133536329Y-121491303D01*
X133649055Y-121480200D01*
X133762145Y-121480200D01*
X133874871Y-121491303D01*
X133874871Y-121491303D01*
G37*
G36*
X128312271Y-121491303D02*
G01*
X128368635Y-121496854D01*
X128585600Y-121562670D01*
X128585602Y-121562671D01*
X128785555Y-121669547D01*
X128960818Y-121813382D01*
X129104653Y-121988645D01*
X129211529Y-122188598D01*
X129211530Y-122188600D01*
X129277346Y-122405565D01*
X129299569Y-122631200D01*
X129277346Y-122856835D01*
X129229860Y-123013375D01*
X129211529Y-123073802D01*
X129104653Y-123273755D01*
X128960818Y-123449018D01*
X128785555Y-123592853D01*
X128598212Y-123692989D01*
X128585600Y-123699730D01*
X128368635Y-123765546D01*
X128312271Y-123771097D01*
X128199545Y-123782200D01*
X128086455Y-123782200D01*
X127973729Y-123771097D01*
X127917365Y-123765546D01*
X127700400Y-123699730D01*
X127687788Y-123692989D01*
X127500445Y-123592853D01*
X127325182Y-123449018D01*
X127181347Y-123273755D01*
X127074471Y-123073802D01*
X127056141Y-123013375D01*
X127008654Y-122856835D01*
X126986431Y-122631200D01*
X127008654Y-122405565D01*
X127074470Y-122188600D01*
X127074471Y-122188598D01*
X127181347Y-121988645D01*
X127325182Y-121813382D01*
X127500445Y-121669547D01*
X127700398Y-121562671D01*
X127700400Y-121562670D01*
X127917365Y-121496854D01*
X127973729Y-121491303D01*
X128086455Y-121480200D01*
X128199545Y-121480200D01*
X128312271Y-121491303D01*
X128312271Y-121491303D01*
G37*
G36*
X160130442Y-121025518D02*
G01*
X160196627Y-121032037D01*
X160366466Y-121083557D01*
X160522991Y-121167222D01*
X160558729Y-121196552D01*
X160660186Y-121279814D01*
X160735676Y-121371800D01*
X160772778Y-121417009D01*
X160856443Y-121573534D01*
X160907963Y-121743373D01*
X160925359Y-121920000D01*
X160907963Y-122096627D01*
X160856443Y-122266466D01*
X160772778Y-122422991D01*
X160743448Y-122458729D01*
X160660186Y-122560186D01*
X160573654Y-122631200D01*
X160522991Y-122672778D01*
X160366466Y-122756443D01*
X160196627Y-122807963D01*
X160130443Y-122814481D01*
X160064260Y-122821000D01*
X159975740Y-122821000D01*
X159909557Y-122814481D01*
X159843373Y-122807963D01*
X159673534Y-122756443D01*
X159517009Y-122672778D01*
X159466346Y-122631200D01*
X159379814Y-122560186D01*
X159296552Y-122458729D01*
X159267222Y-122422991D01*
X159183557Y-122266466D01*
X159132037Y-122096627D01*
X159114641Y-121920000D01*
X159132037Y-121743373D01*
X159183557Y-121573534D01*
X159267222Y-121417009D01*
X159304324Y-121371800D01*
X159379814Y-121279814D01*
X159481271Y-121196552D01*
X159517009Y-121167222D01*
X159673534Y-121083557D01*
X159843373Y-121032037D01*
X159909558Y-121025518D01*
X159975740Y-121019000D01*
X160064260Y-121019000D01*
X160130442Y-121025518D01*
X160130442Y-121025518D01*
G37*
G36*
X139810442Y-121025518D02*
G01*
X139876627Y-121032037D01*
X140046466Y-121083557D01*
X140202991Y-121167222D01*
X140238729Y-121196552D01*
X140340186Y-121279814D01*
X140415676Y-121371800D01*
X140452778Y-121417009D01*
X140536443Y-121573534D01*
X140587963Y-121743373D01*
X140605359Y-121920000D01*
X140587963Y-122096627D01*
X140536443Y-122266466D01*
X140452778Y-122422991D01*
X140423448Y-122458729D01*
X140340186Y-122560186D01*
X140253654Y-122631200D01*
X140202991Y-122672778D01*
X140046466Y-122756443D01*
X139876627Y-122807963D01*
X139810443Y-122814481D01*
X139744260Y-122821000D01*
X139655740Y-122821000D01*
X139589557Y-122814481D01*
X139523373Y-122807963D01*
X139353534Y-122756443D01*
X139197009Y-122672778D01*
X139146346Y-122631200D01*
X139059814Y-122560186D01*
X138976552Y-122458729D01*
X138947222Y-122422991D01*
X138863557Y-122266466D01*
X138812037Y-122096627D01*
X138794641Y-121920000D01*
X138812037Y-121743373D01*
X138863557Y-121573534D01*
X138947222Y-121417009D01*
X138984324Y-121371800D01*
X139059814Y-121279814D01*
X139161271Y-121196552D01*
X139197009Y-121167222D01*
X139353534Y-121083557D01*
X139523373Y-121032037D01*
X139589558Y-121025518D01*
X139655740Y-121019000D01*
X139744260Y-121019000D01*
X139810442Y-121025518D01*
X139810442Y-121025518D01*
G37*
G36*
X107340600Y-121945600D02*
G01*
X105968600Y-121945600D01*
X105968600Y-120573600D01*
X107340600Y-120573600D01*
X107340600Y-121945600D01*
X107340600Y-121945600D01*
G37*
G36*
X123190200Y-121920200D02*
G01*
X121818200Y-121920200D01*
X121818200Y-120548200D01*
X123190200Y-120548200D01*
X123190200Y-121920200D01*
X123190200Y-121920200D01*
G37*
G36*
X170290442Y-119755518D02*
G01*
X170356627Y-119762037D01*
X170526466Y-119813557D01*
X170682991Y-119897222D01*
X170718729Y-119926552D01*
X170820186Y-120009814D01*
X170903448Y-120111271D01*
X170932778Y-120147009D01*
X171016443Y-120303534D01*
X171067963Y-120473373D01*
X171085359Y-120650000D01*
X171067963Y-120826627D01*
X171016443Y-120996466D01*
X170932778Y-121152991D01*
X170903448Y-121188729D01*
X170820186Y-121290186D01*
X170720738Y-121371800D01*
X170682991Y-121402778D01*
X170526466Y-121486443D01*
X170356627Y-121537963D01*
X170290443Y-121544481D01*
X170224260Y-121551000D01*
X170135740Y-121551000D01*
X170069557Y-121544481D01*
X170003373Y-121537963D01*
X169833534Y-121486443D01*
X169677009Y-121402778D01*
X169639262Y-121371800D01*
X169539814Y-121290186D01*
X169456552Y-121188729D01*
X169427222Y-121152991D01*
X169343557Y-120996466D01*
X169292037Y-120826627D01*
X169274641Y-120650000D01*
X169292037Y-120473373D01*
X169343557Y-120303534D01*
X169427222Y-120147009D01*
X169456552Y-120111271D01*
X169539814Y-120009814D01*
X169641271Y-119926552D01*
X169677009Y-119897222D01*
X169833534Y-119813557D01*
X170003373Y-119762037D01*
X170069558Y-119755518D01*
X170135740Y-119749000D01*
X170224260Y-119749000D01*
X170290442Y-119755518D01*
X170290442Y-119755518D01*
G37*
G36*
X85755200Y-121371800D02*
G01*
X83053200Y-121371800D01*
X83053200Y-119269800D01*
X85755200Y-119269800D01*
X85755200Y-121371800D01*
X85755200Y-121371800D01*
G37*
G36*
X139810442Y-118485518D02*
G01*
X139876627Y-118492037D01*
X140046466Y-118543557D01*
X140202991Y-118627222D01*
X140238729Y-118656552D01*
X140340186Y-118739814D01*
X140423448Y-118841271D01*
X140452778Y-118877009D01*
X140536443Y-119033534D01*
X140587963Y-119203373D01*
X140605359Y-119380000D01*
X140587963Y-119556627D01*
X140536443Y-119726466D01*
X140452778Y-119882991D01*
X140423448Y-119918729D01*
X140340186Y-120020186D01*
X140238729Y-120103448D01*
X140202991Y-120132778D01*
X140046466Y-120216443D01*
X139876627Y-120267963D01*
X139810442Y-120274482D01*
X139744260Y-120281000D01*
X139655740Y-120281000D01*
X139589558Y-120274482D01*
X139523373Y-120267963D01*
X139353534Y-120216443D01*
X139197009Y-120132778D01*
X139161271Y-120103448D01*
X139059814Y-120020186D01*
X138976552Y-119918729D01*
X138947222Y-119882991D01*
X138863557Y-119726466D01*
X138812037Y-119556627D01*
X138794641Y-119380000D01*
X138812037Y-119203373D01*
X138863557Y-119033534D01*
X138947222Y-118877009D01*
X138976552Y-118841271D01*
X139059814Y-118739814D01*
X139161271Y-118656552D01*
X139197009Y-118627222D01*
X139353534Y-118543557D01*
X139523373Y-118492037D01*
X139589558Y-118485518D01*
X139655740Y-118479000D01*
X139744260Y-118479000D01*
X139810442Y-118485518D01*
X139810442Y-118485518D01*
G37*
G36*
X160130442Y-118485518D02*
G01*
X160196627Y-118492037D01*
X160366466Y-118543557D01*
X160522991Y-118627222D01*
X160558729Y-118656552D01*
X160660186Y-118739814D01*
X160743448Y-118841271D01*
X160772778Y-118877009D01*
X160856443Y-119033534D01*
X160907963Y-119203373D01*
X160925359Y-119380000D01*
X160907963Y-119556627D01*
X160856443Y-119726466D01*
X160772778Y-119882991D01*
X160743448Y-119918729D01*
X160660186Y-120020186D01*
X160558729Y-120103448D01*
X160522991Y-120132778D01*
X160366466Y-120216443D01*
X160196627Y-120267963D01*
X160130442Y-120274482D01*
X160064260Y-120281000D01*
X159975740Y-120281000D01*
X159909558Y-120274482D01*
X159843373Y-120267963D01*
X159673534Y-120216443D01*
X159517009Y-120132778D01*
X159481271Y-120103448D01*
X159379814Y-120020186D01*
X159296552Y-119918729D01*
X159267222Y-119882991D01*
X159183557Y-119726466D01*
X159132037Y-119556627D01*
X159114641Y-119380000D01*
X159132037Y-119203373D01*
X159183557Y-119033534D01*
X159267222Y-118877009D01*
X159296552Y-118841271D01*
X159379814Y-118739814D01*
X159481271Y-118656552D01*
X159517009Y-118627222D01*
X159673534Y-118543557D01*
X159843373Y-118492037D01*
X159909558Y-118485518D01*
X159975740Y-118479000D01*
X160064260Y-118479000D01*
X160130442Y-118485518D01*
X160130442Y-118485518D01*
G37*
G36*
X118165400Y-119864000D02*
G01*
X112263400Y-119864000D01*
X112263400Y-113562000D01*
X118165400Y-113562000D01*
X118165400Y-119864000D01*
X118165400Y-119864000D01*
G37*
G36*
X106854698Y-118059962D02*
G01*
X106979541Y-118111674D01*
X106979543Y-118111675D01*
X107091899Y-118186749D01*
X107187451Y-118282301D01*
X107245555Y-118369259D01*
X107262526Y-118394659D01*
X107314238Y-118519502D01*
X107340600Y-118652034D01*
X107340600Y-118787166D01*
X107314238Y-118919698D01*
X107291828Y-118973800D01*
X107262525Y-119044543D01*
X107187451Y-119156899D01*
X107091899Y-119252451D01*
X106979543Y-119327525D01*
X106979542Y-119327526D01*
X106979541Y-119327526D01*
X106854698Y-119379238D01*
X106722166Y-119405600D01*
X106587034Y-119405600D01*
X106454502Y-119379238D01*
X106329659Y-119327526D01*
X106329658Y-119327526D01*
X106329657Y-119327525D01*
X106217301Y-119252451D01*
X106121749Y-119156899D01*
X106046675Y-119044543D01*
X106017372Y-118973800D01*
X105994962Y-118919698D01*
X105968600Y-118787166D01*
X105968600Y-118652034D01*
X105994962Y-118519502D01*
X106046674Y-118394659D01*
X106063646Y-118369259D01*
X106121749Y-118282301D01*
X106217301Y-118186749D01*
X106329657Y-118111675D01*
X106329659Y-118111674D01*
X106454502Y-118059962D01*
X106587034Y-118033600D01*
X106722166Y-118033600D01*
X106854698Y-118059962D01*
X106854698Y-118059962D01*
G37*
G36*
X122704298Y-118034562D02*
G01*
X122829141Y-118086274D01*
X122829143Y-118086275D01*
X122941499Y-118161349D01*
X123037051Y-118256901D01*
X123112126Y-118369259D01*
X123163838Y-118494102D01*
X123190200Y-118626634D01*
X123190200Y-118761766D01*
X123163838Y-118894298D01*
X123130907Y-118973800D01*
X123112125Y-119019143D01*
X123037051Y-119131499D01*
X122941499Y-119227051D01*
X122829143Y-119302125D01*
X122829142Y-119302126D01*
X122829141Y-119302126D01*
X122704298Y-119353838D01*
X122571766Y-119380200D01*
X122436634Y-119380200D01*
X122304102Y-119353838D01*
X122179259Y-119302126D01*
X122179258Y-119302126D01*
X122179257Y-119302125D01*
X122066901Y-119227051D01*
X121971349Y-119131499D01*
X121896275Y-119019143D01*
X121877493Y-118973800D01*
X121844562Y-118894298D01*
X121818200Y-118761766D01*
X121818200Y-118626634D01*
X121844562Y-118494102D01*
X121896274Y-118369259D01*
X121971349Y-118256901D01*
X122066901Y-118161349D01*
X122179257Y-118086275D01*
X122179259Y-118086274D01*
X122304102Y-118034562D01*
X122436634Y-118008200D01*
X122571766Y-118008200D01*
X122704298Y-118034562D01*
X122704298Y-118034562D01*
G37*
G36*
X170290443Y-117215519D02*
G01*
X170356627Y-117222037D01*
X170526466Y-117273557D01*
X170682991Y-117357222D01*
X170718729Y-117386552D01*
X170820186Y-117469814D01*
X170903448Y-117571271D01*
X170932778Y-117607009D01*
X171016443Y-117763534D01*
X171067963Y-117933373D01*
X171085359Y-118110000D01*
X171067963Y-118286627D01*
X171016443Y-118456466D01*
X170932778Y-118612991D01*
X170903448Y-118648729D01*
X170820186Y-118750186D01*
X170718729Y-118833448D01*
X170682991Y-118862778D01*
X170526466Y-118946443D01*
X170356627Y-118997963D01*
X170290443Y-119004481D01*
X170224260Y-119011000D01*
X170135740Y-119011000D01*
X170069557Y-119004481D01*
X170003373Y-118997963D01*
X169833534Y-118946443D01*
X169677009Y-118862778D01*
X169641271Y-118833448D01*
X169539814Y-118750186D01*
X169456552Y-118648729D01*
X169427222Y-118612991D01*
X169343557Y-118456466D01*
X169292037Y-118286627D01*
X169274641Y-118110000D01*
X169292037Y-117933373D01*
X169343557Y-117763534D01*
X169427222Y-117607009D01*
X169456552Y-117571271D01*
X169539814Y-117469814D01*
X169641271Y-117386552D01*
X169677009Y-117357222D01*
X169833534Y-117273557D01*
X170003373Y-117222037D01*
X170069557Y-117215519D01*
X170135740Y-117209000D01*
X170224260Y-117209000D01*
X170290443Y-117215519D01*
X170290443Y-117215519D01*
G37*
G36*
X97358400Y-118973800D02*
G01*
X95630800Y-118973800D01*
X95630800Y-117246200D01*
X97358400Y-117246200D01*
X97358400Y-118973800D01*
X97358400Y-118973800D01*
G37*
G36*
X160130442Y-115945518D02*
G01*
X160196627Y-115952037D01*
X160366466Y-116003557D01*
X160522991Y-116087222D01*
X160558729Y-116116552D01*
X160660186Y-116199814D01*
X160743448Y-116301271D01*
X160772778Y-116337009D01*
X160856443Y-116493534D01*
X160907963Y-116663373D01*
X160925359Y-116840000D01*
X160907963Y-117016627D01*
X160856443Y-117186466D01*
X160772778Y-117342991D01*
X160743448Y-117378729D01*
X160660186Y-117480186D01*
X160558729Y-117563448D01*
X160522991Y-117592778D01*
X160366466Y-117676443D01*
X160196627Y-117727963D01*
X160130442Y-117734482D01*
X160064260Y-117741000D01*
X159975740Y-117741000D01*
X159909558Y-117734482D01*
X159843373Y-117727963D01*
X159673534Y-117676443D01*
X159517009Y-117592778D01*
X159481271Y-117563448D01*
X159379814Y-117480186D01*
X159296552Y-117378729D01*
X159267222Y-117342991D01*
X159183557Y-117186466D01*
X159132037Y-117016627D01*
X159114641Y-116840000D01*
X159132037Y-116663373D01*
X159183557Y-116493534D01*
X159267222Y-116337009D01*
X159296552Y-116301271D01*
X159379814Y-116199814D01*
X159481271Y-116116552D01*
X159517009Y-116087222D01*
X159673534Y-116003557D01*
X159843373Y-115952037D01*
X159909558Y-115945518D01*
X159975740Y-115939000D01*
X160064260Y-115939000D01*
X160130442Y-115945518D01*
X160130442Y-115945518D01*
G37*
G36*
X139810442Y-115945518D02*
G01*
X139876627Y-115952037D01*
X140046466Y-116003557D01*
X140202991Y-116087222D01*
X140238729Y-116116552D01*
X140340186Y-116199814D01*
X140423448Y-116301271D01*
X140452778Y-116337009D01*
X140536443Y-116493534D01*
X140587963Y-116663373D01*
X140605359Y-116840000D01*
X140587963Y-117016627D01*
X140536443Y-117186466D01*
X140452778Y-117342991D01*
X140423448Y-117378729D01*
X140340186Y-117480186D01*
X140238729Y-117563448D01*
X140202991Y-117592778D01*
X140046466Y-117676443D01*
X139876627Y-117727963D01*
X139810442Y-117734482D01*
X139744260Y-117741000D01*
X139655740Y-117741000D01*
X139589558Y-117734482D01*
X139523373Y-117727963D01*
X139353534Y-117676443D01*
X139197009Y-117592778D01*
X139161271Y-117563448D01*
X139059814Y-117480186D01*
X138976552Y-117378729D01*
X138947222Y-117342991D01*
X138863557Y-117186466D01*
X138812037Y-117016627D01*
X138794641Y-116840000D01*
X138812037Y-116663373D01*
X138863557Y-116493534D01*
X138947222Y-116337009D01*
X138976552Y-116301271D01*
X139059814Y-116199814D01*
X139161271Y-116116552D01*
X139197009Y-116087222D01*
X139353534Y-116003557D01*
X139523373Y-115952037D01*
X139589558Y-115945518D01*
X139655740Y-115939000D01*
X139744260Y-115939000D01*
X139810442Y-115945518D01*
X139810442Y-115945518D01*
G37*
G36*
X88455200Y-116971800D02*
G01*
X86353200Y-116971800D01*
X86353200Y-114269800D01*
X88455200Y-114269800D01*
X88455200Y-116971800D01*
X88455200Y-116971800D01*
G37*
G36*
X82455200Y-116971800D02*
G01*
X80353200Y-116971800D01*
X80353200Y-114269800D01*
X82455200Y-114269800D01*
X82455200Y-116971800D01*
X82455200Y-116971800D01*
G37*
G36*
X170290443Y-114675519D02*
G01*
X170356627Y-114682037D01*
X170526466Y-114733557D01*
X170682991Y-114817222D01*
X170718729Y-114846552D01*
X170820186Y-114929814D01*
X170903448Y-115031271D01*
X170932778Y-115067009D01*
X171016443Y-115223534D01*
X171067963Y-115393373D01*
X171085359Y-115570000D01*
X171067963Y-115746627D01*
X171016443Y-115916466D01*
X170932778Y-116072991D01*
X170903448Y-116108729D01*
X170820186Y-116210186D01*
X170718729Y-116293448D01*
X170682991Y-116322778D01*
X170526466Y-116406443D01*
X170356627Y-116457963D01*
X170290442Y-116464482D01*
X170224260Y-116471000D01*
X170135740Y-116471000D01*
X170069558Y-116464482D01*
X170003373Y-116457963D01*
X169833534Y-116406443D01*
X169677009Y-116322778D01*
X169641271Y-116293448D01*
X169539814Y-116210186D01*
X169456552Y-116108729D01*
X169427222Y-116072991D01*
X169343557Y-115916466D01*
X169292037Y-115746627D01*
X169274641Y-115570000D01*
X169292037Y-115393373D01*
X169343557Y-115223534D01*
X169427222Y-115067009D01*
X169456552Y-115031271D01*
X169539814Y-114929814D01*
X169641271Y-114846552D01*
X169677009Y-114817222D01*
X169833534Y-114733557D01*
X170003373Y-114682037D01*
X170069557Y-114675519D01*
X170135740Y-114669000D01*
X170224260Y-114669000D01*
X170290443Y-114675519D01*
X170290443Y-114675519D01*
G37*
G36*
X160130443Y-113405519D02*
G01*
X160196627Y-113412037D01*
X160366466Y-113463557D01*
X160522991Y-113547222D01*
X160540998Y-113562000D01*
X160660186Y-113659814D01*
X160743448Y-113761271D01*
X160772778Y-113797009D01*
X160856443Y-113953534D01*
X160907963Y-114123373D01*
X160925359Y-114300000D01*
X160907963Y-114476627D01*
X160856443Y-114646466D01*
X160772778Y-114802991D01*
X160743448Y-114838729D01*
X160660186Y-114940186D01*
X160558729Y-115023448D01*
X160522991Y-115052778D01*
X160366466Y-115136443D01*
X160196627Y-115187963D01*
X160130442Y-115194482D01*
X160064260Y-115201000D01*
X159975740Y-115201000D01*
X159909558Y-115194482D01*
X159843373Y-115187963D01*
X159673534Y-115136443D01*
X159517009Y-115052778D01*
X159481271Y-115023448D01*
X159379814Y-114940186D01*
X159296552Y-114838729D01*
X159267222Y-114802991D01*
X159183557Y-114646466D01*
X159132037Y-114476627D01*
X159114641Y-114300000D01*
X159132037Y-114123373D01*
X159183557Y-113953534D01*
X159267222Y-113797009D01*
X159296552Y-113761271D01*
X159379814Y-113659814D01*
X159499002Y-113562000D01*
X159517009Y-113547222D01*
X159673534Y-113463557D01*
X159843373Y-113412037D01*
X159909557Y-113405519D01*
X159975740Y-113399000D01*
X160064260Y-113399000D01*
X160130443Y-113405519D01*
X160130443Y-113405519D01*
G37*
G36*
X139810443Y-113405519D02*
G01*
X139876627Y-113412037D01*
X140046466Y-113463557D01*
X140202991Y-113547222D01*
X140220998Y-113562000D01*
X140340186Y-113659814D01*
X140423448Y-113761271D01*
X140452778Y-113797009D01*
X140536443Y-113953534D01*
X140587963Y-114123373D01*
X140605359Y-114300000D01*
X140587963Y-114476627D01*
X140536443Y-114646466D01*
X140452778Y-114802991D01*
X140423448Y-114838729D01*
X140340186Y-114940186D01*
X140238729Y-115023448D01*
X140202991Y-115052778D01*
X140046466Y-115136443D01*
X139876627Y-115187963D01*
X139810442Y-115194482D01*
X139744260Y-115201000D01*
X139655740Y-115201000D01*
X139589558Y-115194482D01*
X139523373Y-115187963D01*
X139353534Y-115136443D01*
X139197009Y-115052778D01*
X139161271Y-115023448D01*
X139059814Y-114940186D01*
X138976552Y-114838729D01*
X138947222Y-114802991D01*
X138863557Y-114646466D01*
X138812037Y-114476627D01*
X138794641Y-114300000D01*
X138812037Y-114123373D01*
X138863557Y-113953534D01*
X138947222Y-113797009D01*
X138976552Y-113761271D01*
X139059814Y-113659814D01*
X139179002Y-113562000D01*
X139197009Y-113547222D01*
X139353534Y-113463557D01*
X139523373Y-113412037D01*
X139589557Y-113405519D01*
X139655740Y-113399000D01*
X139744260Y-113399000D01*
X139810443Y-113405519D01*
X139810443Y-113405519D01*
G37*
G36*
X170290443Y-112135519D02*
G01*
X170356627Y-112142037D01*
X170526466Y-112193557D01*
X170682991Y-112277222D01*
X170718729Y-112306552D01*
X170820186Y-112389814D01*
X170903448Y-112491271D01*
X170932778Y-112527009D01*
X171016443Y-112683534D01*
X171067963Y-112853373D01*
X171085359Y-113030000D01*
X171067963Y-113206627D01*
X171016443Y-113376466D01*
X170932778Y-113532991D01*
X170908971Y-113562000D01*
X170820186Y-113670186D01*
X170718729Y-113753448D01*
X170682991Y-113782778D01*
X170526466Y-113866443D01*
X170356627Y-113917963D01*
X170290443Y-113924481D01*
X170224260Y-113931000D01*
X170135740Y-113931000D01*
X170069557Y-113924481D01*
X170003373Y-113917963D01*
X169833534Y-113866443D01*
X169677009Y-113782778D01*
X169641271Y-113753448D01*
X169539814Y-113670186D01*
X169451029Y-113562000D01*
X169427222Y-113532991D01*
X169343557Y-113376466D01*
X169292037Y-113206627D01*
X169274641Y-113030000D01*
X169292037Y-112853373D01*
X169343557Y-112683534D01*
X169427222Y-112527009D01*
X169456552Y-112491271D01*
X169539814Y-112389814D01*
X169641271Y-112306552D01*
X169677009Y-112277222D01*
X169833534Y-112193557D01*
X170003373Y-112142037D01*
X170069557Y-112135519D01*
X170135740Y-112129000D01*
X170224260Y-112129000D01*
X170290443Y-112135519D01*
X170290443Y-112135519D01*
G37*
G36*
X134856600Y-113622200D02*
G01*
X132554600Y-113622200D01*
X132554600Y-111320200D01*
X134856600Y-111320200D01*
X134856600Y-113622200D01*
X134856600Y-113622200D01*
G37*
G36*
X129294000Y-113622200D02*
G01*
X126992000Y-113622200D01*
X126992000Y-111320200D01*
X129294000Y-111320200D01*
X129294000Y-113622200D01*
X129294000Y-113622200D01*
G37*
G36*
X139810442Y-110865518D02*
G01*
X139876627Y-110872037D01*
X140046466Y-110923557D01*
X140202991Y-111007222D01*
X140238729Y-111036552D01*
X140340186Y-111119814D01*
X140423448Y-111221271D01*
X140452778Y-111257009D01*
X140536443Y-111413534D01*
X140587963Y-111583373D01*
X140605359Y-111760000D01*
X140587963Y-111936627D01*
X140536443Y-112106466D01*
X140452778Y-112262991D01*
X140423448Y-112298729D01*
X140340186Y-112400186D01*
X140238729Y-112483448D01*
X140202991Y-112512778D01*
X140046466Y-112596443D01*
X139876627Y-112647963D01*
X139810442Y-112654482D01*
X139744260Y-112661000D01*
X139655740Y-112661000D01*
X139589558Y-112654482D01*
X139523373Y-112647963D01*
X139353534Y-112596443D01*
X139197009Y-112512778D01*
X139161271Y-112483448D01*
X139059814Y-112400186D01*
X138976552Y-112298729D01*
X138947222Y-112262991D01*
X138863557Y-112106466D01*
X138812037Y-111936627D01*
X138794641Y-111760000D01*
X138812037Y-111583373D01*
X138863557Y-111413534D01*
X138947222Y-111257009D01*
X138976552Y-111221271D01*
X139059814Y-111119814D01*
X139161271Y-111036552D01*
X139197009Y-111007222D01*
X139353534Y-110923557D01*
X139523373Y-110872037D01*
X139589558Y-110865518D01*
X139655740Y-110859000D01*
X139744260Y-110859000D01*
X139810442Y-110865518D01*
X139810442Y-110865518D01*
G37*
G36*
X160130442Y-110865518D02*
G01*
X160196627Y-110872037D01*
X160366466Y-110923557D01*
X160522991Y-111007222D01*
X160558729Y-111036552D01*
X160660186Y-111119814D01*
X160743448Y-111221271D01*
X160772778Y-111257009D01*
X160856443Y-111413534D01*
X160907963Y-111583373D01*
X160925359Y-111760000D01*
X160907963Y-111936627D01*
X160856443Y-112106466D01*
X160772778Y-112262991D01*
X160743448Y-112298729D01*
X160660186Y-112400186D01*
X160558729Y-112483448D01*
X160522991Y-112512778D01*
X160366466Y-112596443D01*
X160196627Y-112647963D01*
X160130442Y-112654482D01*
X160064260Y-112661000D01*
X159975740Y-112661000D01*
X159909558Y-112654482D01*
X159843373Y-112647963D01*
X159673534Y-112596443D01*
X159517009Y-112512778D01*
X159481271Y-112483448D01*
X159379814Y-112400186D01*
X159296552Y-112298729D01*
X159267222Y-112262991D01*
X159183557Y-112106466D01*
X159132037Y-111936627D01*
X159114641Y-111760000D01*
X159132037Y-111583373D01*
X159183557Y-111413534D01*
X159267222Y-111257009D01*
X159296552Y-111221271D01*
X159379814Y-111119814D01*
X159481271Y-111036552D01*
X159517009Y-111007222D01*
X159673534Y-110923557D01*
X159843373Y-110872037D01*
X159909558Y-110865518D01*
X159975740Y-110859000D01*
X160064260Y-110859000D01*
X160130442Y-110865518D01*
X160130442Y-110865518D01*
G37*
G36*
X170290442Y-109595518D02*
G01*
X170356627Y-109602037D01*
X170526466Y-109653557D01*
X170682991Y-109737222D01*
X170718729Y-109766552D01*
X170820186Y-109849814D01*
X170903448Y-109951271D01*
X170932778Y-109987009D01*
X171016443Y-110143534D01*
X171067963Y-110313373D01*
X171085359Y-110490000D01*
X171067963Y-110666627D01*
X171016443Y-110836466D01*
X170932778Y-110992991D01*
X170903448Y-111028729D01*
X170820186Y-111130186D01*
X170718729Y-111213448D01*
X170682991Y-111242778D01*
X170526466Y-111326443D01*
X170356627Y-111377963D01*
X170290443Y-111384481D01*
X170224260Y-111391000D01*
X170135740Y-111391000D01*
X170069557Y-111384481D01*
X170003373Y-111377963D01*
X169833534Y-111326443D01*
X169677009Y-111242778D01*
X169641271Y-111213448D01*
X169539814Y-111130186D01*
X169456552Y-111028729D01*
X169427222Y-110992991D01*
X169343557Y-110836466D01*
X169292037Y-110666627D01*
X169274641Y-110490000D01*
X169292037Y-110313373D01*
X169343557Y-110143534D01*
X169427222Y-109987009D01*
X169456552Y-109951271D01*
X169539814Y-109849814D01*
X169641271Y-109766552D01*
X169677009Y-109737222D01*
X169833534Y-109653557D01*
X170003373Y-109602037D01*
X170069558Y-109595518D01*
X170135740Y-109589000D01*
X170224260Y-109589000D01*
X170290442Y-109595518D01*
X170290442Y-109595518D01*
G37*
G36*
X160130443Y-108325519D02*
G01*
X160196627Y-108332037D01*
X160366466Y-108383557D01*
X160522991Y-108467222D01*
X160558729Y-108496552D01*
X160660186Y-108579814D01*
X160743448Y-108681271D01*
X160772778Y-108717009D01*
X160856443Y-108873534D01*
X160907963Y-109043373D01*
X160925359Y-109220000D01*
X160907963Y-109396627D01*
X160856443Y-109566466D01*
X160772778Y-109722991D01*
X160743448Y-109758729D01*
X160660186Y-109860186D01*
X160558729Y-109943448D01*
X160522991Y-109972778D01*
X160366466Y-110056443D01*
X160196627Y-110107963D01*
X160130443Y-110114481D01*
X160064260Y-110121000D01*
X159975740Y-110121000D01*
X159909557Y-110114481D01*
X159843373Y-110107963D01*
X159673534Y-110056443D01*
X159517009Y-109972778D01*
X159481271Y-109943448D01*
X159379814Y-109860186D01*
X159296552Y-109758729D01*
X159267222Y-109722991D01*
X159183557Y-109566466D01*
X159132037Y-109396627D01*
X159114641Y-109220000D01*
X159132037Y-109043373D01*
X159183557Y-108873534D01*
X159267222Y-108717009D01*
X159296552Y-108681271D01*
X159379814Y-108579814D01*
X159481271Y-108496552D01*
X159517009Y-108467222D01*
X159673534Y-108383557D01*
X159843373Y-108332037D01*
X159909557Y-108325519D01*
X159975740Y-108319000D01*
X160064260Y-108319000D01*
X160130443Y-108325519D01*
X160130443Y-108325519D01*
G37*
G36*
X139810443Y-108325519D02*
G01*
X139876627Y-108332037D01*
X140046466Y-108383557D01*
X140202991Y-108467222D01*
X140238729Y-108496552D01*
X140340186Y-108579814D01*
X140423448Y-108681271D01*
X140452778Y-108717009D01*
X140536443Y-108873534D01*
X140587963Y-109043373D01*
X140605359Y-109220000D01*
X140587963Y-109396627D01*
X140536443Y-109566466D01*
X140452778Y-109722991D01*
X140423448Y-109758729D01*
X140340186Y-109860186D01*
X140238729Y-109943448D01*
X140202991Y-109972778D01*
X140046466Y-110056443D01*
X139876627Y-110107963D01*
X139810443Y-110114481D01*
X139744260Y-110121000D01*
X139655740Y-110121000D01*
X139589557Y-110114481D01*
X139523373Y-110107963D01*
X139353534Y-110056443D01*
X139197009Y-109972778D01*
X139161271Y-109943448D01*
X139059814Y-109860186D01*
X138976552Y-109758729D01*
X138947222Y-109722991D01*
X138863557Y-109566466D01*
X138812037Y-109396627D01*
X138794641Y-109220000D01*
X138812037Y-109043373D01*
X138863557Y-108873534D01*
X138947222Y-108717009D01*
X138976552Y-108681271D01*
X139059814Y-108579814D01*
X139161271Y-108496552D01*
X139197009Y-108467222D01*
X139353534Y-108383557D01*
X139523373Y-108332037D01*
X139589557Y-108325519D01*
X139655740Y-108319000D01*
X139744260Y-108319000D01*
X139810443Y-108325519D01*
X139810443Y-108325519D01*
G37*
G36*
X108116823Y-108381313D02*
G01*
X108277242Y-108429976D01*
X108346922Y-108467221D01*
X108425078Y-108508996D01*
X108554659Y-108615341D01*
X108661004Y-108744922D01*
X108661005Y-108744924D01*
X108740024Y-108892758D01*
X108788687Y-109053177D01*
X108805117Y-109220000D01*
X108788687Y-109386823D01*
X108740024Y-109547242D01*
X108710735Y-109602037D01*
X108661004Y-109695078D01*
X108554659Y-109824659D01*
X108425078Y-109931004D01*
X108425076Y-109931005D01*
X108277242Y-110010024D01*
X108116823Y-110058687D01*
X107991804Y-110071000D01*
X107908196Y-110071000D01*
X107783177Y-110058687D01*
X107622758Y-110010024D01*
X107474924Y-109931005D01*
X107474922Y-109931004D01*
X107345341Y-109824659D01*
X107238996Y-109695078D01*
X107189265Y-109602037D01*
X107159976Y-109547242D01*
X107111313Y-109386823D01*
X107094883Y-109220000D01*
X107111313Y-109053177D01*
X107159976Y-108892758D01*
X107238995Y-108744924D01*
X107238996Y-108744922D01*
X107345341Y-108615341D01*
X107474922Y-108508996D01*
X107553078Y-108467221D01*
X107622758Y-108429976D01*
X107783177Y-108381313D01*
X107908196Y-108369000D01*
X107991804Y-108369000D01*
X108116823Y-108381313D01*
X108116823Y-108381313D01*
G37*
G36*
X170290442Y-107055518D02*
G01*
X170356627Y-107062037D01*
X170526466Y-107113557D01*
X170682991Y-107197222D01*
X170718729Y-107226552D01*
X170820186Y-107309814D01*
X170887141Y-107391400D01*
X170932778Y-107447009D01*
X171016443Y-107603534D01*
X171067963Y-107773373D01*
X171085359Y-107950000D01*
X171067963Y-108126627D01*
X171016443Y-108296466D01*
X170932778Y-108452991D01*
X170903448Y-108488729D01*
X170820186Y-108590186D01*
X170718729Y-108673448D01*
X170682991Y-108702778D01*
X170526466Y-108786443D01*
X170356627Y-108837963D01*
X170290442Y-108844482D01*
X170224260Y-108851000D01*
X170135740Y-108851000D01*
X170069558Y-108844482D01*
X170003373Y-108837963D01*
X169833534Y-108786443D01*
X169677009Y-108702778D01*
X169641271Y-108673448D01*
X169539814Y-108590186D01*
X169456552Y-108488729D01*
X169427222Y-108452991D01*
X169343557Y-108296466D01*
X169292037Y-108126627D01*
X169274641Y-107950000D01*
X169292037Y-107773373D01*
X169343557Y-107603534D01*
X169427222Y-107447009D01*
X169472859Y-107391400D01*
X169539814Y-107309814D01*
X169641271Y-107226552D01*
X169677009Y-107197222D01*
X169833534Y-107113557D01*
X170003373Y-107062037D01*
X170069558Y-107055518D01*
X170135740Y-107049000D01*
X170224260Y-107049000D01*
X170290442Y-107055518D01*
X170290442Y-107055518D01*
G37*
G36*
X160130443Y-105785519D02*
G01*
X160196627Y-105792037D01*
X160366466Y-105843557D01*
X160522991Y-105927222D01*
X160558729Y-105956552D01*
X160660186Y-106039814D01*
X160732081Y-106127420D01*
X160772778Y-106177009D01*
X160856443Y-106333534D01*
X160907963Y-106503373D01*
X160925359Y-106680000D01*
X160907963Y-106856627D01*
X160856443Y-107026466D01*
X160772778Y-107182991D01*
X160743448Y-107218729D01*
X160660186Y-107320186D01*
X160573410Y-107391400D01*
X160522991Y-107432778D01*
X160366466Y-107516443D01*
X160196627Y-107567963D01*
X160130443Y-107574481D01*
X160064260Y-107581000D01*
X159975740Y-107581000D01*
X159909557Y-107574481D01*
X159843373Y-107567963D01*
X159673534Y-107516443D01*
X159517009Y-107432778D01*
X159466590Y-107391400D01*
X159379814Y-107320186D01*
X159296552Y-107218729D01*
X159267222Y-107182991D01*
X159183557Y-107026466D01*
X159132037Y-106856627D01*
X159114641Y-106680000D01*
X159132037Y-106503373D01*
X159183557Y-106333534D01*
X159267222Y-106177009D01*
X159307919Y-106127420D01*
X159379814Y-106039814D01*
X159481271Y-105956552D01*
X159517009Y-105927222D01*
X159673534Y-105843557D01*
X159843373Y-105792037D01*
X159909557Y-105785519D01*
X159975740Y-105779000D01*
X160064260Y-105779000D01*
X160130443Y-105785519D01*
X160130443Y-105785519D01*
G37*
G36*
X139810443Y-105785519D02*
G01*
X139876627Y-105792037D01*
X140046466Y-105843557D01*
X140202991Y-105927222D01*
X140238729Y-105956552D01*
X140340186Y-106039814D01*
X140412081Y-106127420D01*
X140452778Y-106177009D01*
X140536443Y-106333534D01*
X140587963Y-106503373D01*
X140605359Y-106680000D01*
X140587963Y-106856627D01*
X140536443Y-107026466D01*
X140452778Y-107182991D01*
X140423448Y-107218729D01*
X140340186Y-107320186D01*
X140253410Y-107391400D01*
X140202991Y-107432778D01*
X140046466Y-107516443D01*
X139876627Y-107567963D01*
X139810443Y-107574481D01*
X139744260Y-107581000D01*
X139655740Y-107581000D01*
X139589557Y-107574481D01*
X139523373Y-107567963D01*
X139353534Y-107516443D01*
X139197009Y-107432778D01*
X139146590Y-107391400D01*
X139059814Y-107320186D01*
X138976552Y-107218729D01*
X138947222Y-107182991D01*
X138863557Y-107026466D01*
X138812037Y-106856627D01*
X138794641Y-106680000D01*
X138812037Y-106503373D01*
X138863557Y-106333534D01*
X138947222Y-106177009D01*
X138987919Y-106127420D01*
X139059814Y-106039814D01*
X139161271Y-105956552D01*
X139197009Y-105927222D01*
X139353534Y-105843557D01*
X139523373Y-105792037D01*
X139589557Y-105785519D01*
X139655740Y-105779000D01*
X139744260Y-105779000D01*
X139810443Y-105785519D01*
X139810443Y-105785519D01*
G37*
G36*
X127207507Y-105995938D02*
G01*
X127336973Y-106049565D01*
X127453490Y-106127419D01*
X127552581Y-106226510D01*
X127630435Y-106343027D01*
X127684062Y-106472493D01*
X127711400Y-106609932D01*
X127711400Y-106750068D01*
X127684062Y-106887507D01*
X127630435Y-107016973D01*
X127552581Y-107133490D01*
X127453490Y-107232581D01*
X127336973Y-107310435D01*
X127207507Y-107364062D01*
X127070068Y-107391400D01*
X126929932Y-107391400D01*
X126792493Y-107364062D01*
X126663027Y-107310435D01*
X126546510Y-107232581D01*
X126447419Y-107133490D01*
X126369565Y-107016973D01*
X126315938Y-106887507D01*
X126288600Y-106750068D01*
X126288600Y-106609932D01*
X126315938Y-106472493D01*
X126369565Y-106343027D01*
X126447419Y-106226510D01*
X126546510Y-106127419D01*
X126663027Y-106049565D01*
X126792493Y-105995938D01*
X126929932Y-105968600D01*
X127070068Y-105968600D01*
X127207507Y-105995938D01*
X127207507Y-105995938D01*
G37*
G36*
X119587507Y-105995938D02*
G01*
X119716973Y-106049565D01*
X119833490Y-106127419D01*
X119932581Y-106226510D01*
X120010435Y-106343027D01*
X120064062Y-106472493D01*
X120091400Y-106609932D01*
X120091400Y-106750068D01*
X120064062Y-106887507D01*
X120010435Y-107016973D01*
X119932581Y-107133490D01*
X119833490Y-107232581D01*
X119716973Y-107310435D01*
X119587507Y-107364062D01*
X119450068Y-107391400D01*
X119309932Y-107391400D01*
X119172493Y-107364062D01*
X119043027Y-107310435D01*
X118926510Y-107232581D01*
X118827419Y-107133490D01*
X118749565Y-107016973D01*
X118695938Y-106887507D01*
X118668600Y-106750068D01*
X118668600Y-106609932D01*
X118695938Y-106472493D01*
X118749565Y-106343027D01*
X118827419Y-106226510D01*
X118926510Y-106127419D01*
X119043027Y-106049565D01*
X119172493Y-105995938D01*
X119309932Y-105968600D01*
X119450068Y-105968600D01*
X119587507Y-105995938D01*
X119587507Y-105995938D01*
G37*
G36*
X170290443Y-104515519D02*
G01*
X170356627Y-104522037D01*
X170526466Y-104573557D01*
X170682991Y-104657222D01*
X170718729Y-104686552D01*
X170820186Y-104769814D01*
X170887141Y-104851400D01*
X170932778Y-104907009D01*
X171016443Y-105063534D01*
X171067963Y-105233373D01*
X171085359Y-105410000D01*
X171067963Y-105586627D01*
X171016443Y-105756466D01*
X170932778Y-105912991D01*
X170903448Y-105948729D01*
X170820186Y-106050186D01*
X170726076Y-106127419D01*
X170682991Y-106162778D01*
X170526466Y-106246443D01*
X170356627Y-106297963D01*
X170290442Y-106304482D01*
X170224260Y-106311000D01*
X170135740Y-106311000D01*
X170069558Y-106304482D01*
X170003373Y-106297963D01*
X169833534Y-106246443D01*
X169677009Y-106162778D01*
X169633924Y-106127419D01*
X169539814Y-106050186D01*
X169456552Y-105948729D01*
X169427222Y-105912991D01*
X169343557Y-105756466D01*
X169292037Y-105586627D01*
X169274641Y-105410000D01*
X169292037Y-105233373D01*
X169343557Y-105063534D01*
X169427222Y-104907009D01*
X169472859Y-104851400D01*
X169539814Y-104769814D01*
X169641271Y-104686552D01*
X169677009Y-104657222D01*
X169833534Y-104573557D01*
X170003373Y-104522037D01*
X170069557Y-104515519D01*
X170135740Y-104509000D01*
X170224260Y-104509000D01*
X170290443Y-104515519D01*
X170290443Y-104515519D01*
G37*
G36*
X139810443Y-103245519D02*
G01*
X139876627Y-103252037D01*
X140046466Y-103303557D01*
X140202991Y-103387222D01*
X140238729Y-103416552D01*
X140340186Y-103499814D01*
X140412081Y-103587420D01*
X140452778Y-103637009D01*
X140536443Y-103793534D01*
X140587963Y-103963373D01*
X140605359Y-104140000D01*
X140587963Y-104316627D01*
X140536443Y-104486466D01*
X140452778Y-104642991D01*
X140423448Y-104678729D01*
X140340186Y-104780186D01*
X140253410Y-104851400D01*
X140202991Y-104892778D01*
X140046466Y-104976443D01*
X139876627Y-105027963D01*
X139810442Y-105034482D01*
X139744260Y-105041000D01*
X139655740Y-105041000D01*
X139589557Y-105034481D01*
X139523373Y-105027963D01*
X139353534Y-104976443D01*
X139197009Y-104892778D01*
X139146590Y-104851400D01*
X139059814Y-104780186D01*
X138976552Y-104678729D01*
X138947222Y-104642991D01*
X138863557Y-104486466D01*
X138812037Y-104316627D01*
X138794641Y-104140000D01*
X138812037Y-103963373D01*
X138863557Y-103793534D01*
X138947222Y-103637009D01*
X138987919Y-103587420D01*
X139059814Y-103499814D01*
X139161271Y-103416552D01*
X139197009Y-103387222D01*
X139353534Y-103303557D01*
X139523373Y-103252037D01*
X139589558Y-103245518D01*
X139655740Y-103239000D01*
X139744260Y-103239000D01*
X139810443Y-103245519D01*
X139810443Y-103245519D01*
G37*
G36*
X160130443Y-103245519D02*
G01*
X160196627Y-103252037D01*
X160366466Y-103303557D01*
X160522991Y-103387222D01*
X160558729Y-103416552D01*
X160660186Y-103499814D01*
X160732081Y-103587420D01*
X160772778Y-103637009D01*
X160856443Y-103793534D01*
X160907963Y-103963373D01*
X160925359Y-104140000D01*
X160907963Y-104316627D01*
X160856443Y-104486466D01*
X160772778Y-104642991D01*
X160743448Y-104678729D01*
X160660186Y-104780186D01*
X160573410Y-104851400D01*
X160522991Y-104892778D01*
X160366466Y-104976443D01*
X160196627Y-105027963D01*
X160130442Y-105034482D01*
X160064260Y-105041000D01*
X159975740Y-105041000D01*
X159909557Y-105034481D01*
X159843373Y-105027963D01*
X159673534Y-104976443D01*
X159517009Y-104892778D01*
X159466590Y-104851400D01*
X159379814Y-104780186D01*
X159296552Y-104678729D01*
X159267222Y-104642991D01*
X159183557Y-104486466D01*
X159132037Y-104316627D01*
X159114641Y-104140000D01*
X159132037Y-103963373D01*
X159183557Y-103793534D01*
X159267222Y-103637009D01*
X159307919Y-103587420D01*
X159379814Y-103499814D01*
X159481271Y-103416552D01*
X159517009Y-103387222D01*
X159673534Y-103303557D01*
X159843373Y-103252037D01*
X159909558Y-103245518D01*
X159975740Y-103239000D01*
X160064260Y-103239000D01*
X160130443Y-103245519D01*
X160130443Y-103245519D01*
G37*
G36*
X127207507Y-103455938D02*
G01*
X127336973Y-103509565D01*
X127453490Y-103587419D01*
X127552581Y-103686510D01*
X127630435Y-103803027D01*
X127684062Y-103932493D01*
X127711400Y-104069932D01*
X127711400Y-104210068D01*
X127684062Y-104347507D01*
X127630435Y-104476973D01*
X127552581Y-104593490D01*
X127453490Y-104692581D01*
X127336973Y-104770435D01*
X127207507Y-104824062D01*
X127070068Y-104851400D01*
X126929932Y-104851400D01*
X126792493Y-104824062D01*
X126663027Y-104770435D01*
X126546510Y-104692581D01*
X126447419Y-104593490D01*
X126369565Y-104476973D01*
X126315938Y-104347507D01*
X126288600Y-104210068D01*
X126288600Y-104069932D01*
X126315938Y-103932493D01*
X126369565Y-103803027D01*
X126447419Y-103686510D01*
X126546510Y-103587419D01*
X126663027Y-103509565D01*
X126792493Y-103455938D01*
X126929932Y-103428600D01*
X127070068Y-103428600D01*
X127207507Y-103455938D01*
X127207507Y-103455938D01*
G37*
G36*
X119587507Y-103455938D02*
G01*
X119716973Y-103509565D01*
X119833490Y-103587419D01*
X119932581Y-103686510D01*
X120010435Y-103803027D01*
X120064062Y-103932493D01*
X120091400Y-104069932D01*
X120091400Y-104210068D01*
X120064062Y-104347507D01*
X120010435Y-104476973D01*
X119932581Y-104593490D01*
X119833490Y-104692581D01*
X119716973Y-104770435D01*
X119587507Y-104824062D01*
X119450068Y-104851400D01*
X119309932Y-104851400D01*
X119172493Y-104824062D01*
X119043027Y-104770435D01*
X118926510Y-104692581D01*
X118827419Y-104593490D01*
X118749565Y-104476973D01*
X118695938Y-104347507D01*
X118668600Y-104210068D01*
X118668600Y-104069932D01*
X118695938Y-103932493D01*
X118749565Y-103803027D01*
X118827419Y-103686510D01*
X118926510Y-103587419D01*
X119043027Y-103509565D01*
X119172493Y-103455938D01*
X119309932Y-103428600D01*
X119450068Y-103428600D01*
X119587507Y-103455938D01*
X119587507Y-103455938D01*
G37*
G36*
X170290442Y-101975518D02*
G01*
X170356627Y-101982037D01*
X170526466Y-102033557D01*
X170682991Y-102117222D01*
X170713768Y-102142480D01*
X170820186Y-102229814D01*
X170887141Y-102311400D01*
X170932778Y-102367009D01*
X171016443Y-102523534D01*
X171067963Y-102693373D01*
X171085359Y-102870000D01*
X171067963Y-103046627D01*
X171016443Y-103216466D01*
X170932778Y-103372991D01*
X170903448Y-103408729D01*
X170820186Y-103510186D01*
X170726076Y-103587419D01*
X170682991Y-103622778D01*
X170526466Y-103706443D01*
X170356627Y-103757963D01*
X170290443Y-103764481D01*
X170224260Y-103771000D01*
X170135740Y-103771000D01*
X170069557Y-103764481D01*
X170003373Y-103757963D01*
X169833534Y-103706443D01*
X169677009Y-103622778D01*
X169633924Y-103587419D01*
X169539814Y-103510186D01*
X169456552Y-103408729D01*
X169427222Y-103372991D01*
X169343557Y-103216466D01*
X169292037Y-103046627D01*
X169274641Y-102870000D01*
X169292037Y-102693373D01*
X169343557Y-102523534D01*
X169427222Y-102367009D01*
X169472859Y-102311400D01*
X169539814Y-102229814D01*
X169646232Y-102142480D01*
X169677009Y-102117222D01*
X169833534Y-102033557D01*
X170003373Y-101982037D01*
X170069558Y-101975518D01*
X170135740Y-101969000D01*
X170224260Y-101969000D01*
X170290442Y-101975518D01*
X170290442Y-101975518D01*
G37*
G36*
X139810443Y-100705519D02*
G01*
X139876627Y-100712037D01*
X140046466Y-100763557D01*
X140202991Y-100847222D01*
X140238729Y-100876552D01*
X140340186Y-100959814D01*
X140412081Y-101047420D01*
X140452778Y-101097009D01*
X140536443Y-101253534D01*
X140587963Y-101423373D01*
X140605359Y-101600000D01*
X140587963Y-101776627D01*
X140536443Y-101946466D01*
X140452778Y-102102991D01*
X140423448Y-102138729D01*
X140340186Y-102240186D01*
X140253410Y-102311400D01*
X140202991Y-102352778D01*
X140046466Y-102436443D01*
X139876627Y-102487963D01*
X139810442Y-102494482D01*
X139744260Y-102501000D01*
X139655740Y-102501000D01*
X139589558Y-102494482D01*
X139523373Y-102487963D01*
X139353534Y-102436443D01*
X139197009Y-102352778D01*
X139146590Y-102311400D01*
X139059814Y-102240186D01*
X138976552Y-102138729D01*
X138947222Y-102102991D01*
X138863557Y-101946466D01*
X138812037Y-101776627D01*
X138794641Y-101600000D01*
X138812037Y-101423373D01*
X138863557Y-101253534D01*
X138947222Y-101097009D01*
X138987919Y-101047420D01*
X139059814Y-100959814D01*
X139161271Y-100876552D01*
X139197009Y-100847222D01*
X139353534Y-100763557D01*
X139523373Y-100712037D01*
X139589557Y-100705519D01*
X139655740Y-100699000D01*
X139744260Y-100699000D01*
X139810443Y-100705519D01*
X139810443Y-100705519D01*
G37*
G36*
X160130443Y-100705519D02*
G01*
X160196627Y-100712037D01*
X160366466Y-100763557D01*
X160522991Y-100847222D01*
X160558729Y-100876552D01*
X160660186Y-100959814D01*
X160732081Y-101047420D01*
X160772778Y-101097009D01*
X160856443Y-101253534D01*
X160907963Y-101423373D01*
X160925359Y-101600000D01*
X160907963Y-101776627D01*
X160856443Y-101946466D01*
X160772778Y-102102991D01*
X160743448Y-102138729D01*
X160660186Y-102240186D01*
X160573410Y-102311400D01*
X160522991Y-102352778D01*
X160366466Y-102436443D01*
X160196627Y-102487963D01*
X160130442Y-102494482D01*
X160064260Y-102501000D01*
X159975740Y-102501000D01*
X159909558Y-102494482D01*
X159843373Y-102487963D01*
X159673534Y-102436443D01*
X159517009Y-102352778D01*
X159466590Y-102311400D01*
X159379814Y-102240186D01*
X159296552Y-102138729D01*
X159267222Y-102102991D01*
X159183557Y-101946466D01*
X159132037Y-101776627D01*
X159114641Y-101600000D01*
X159132037Y-101423373D01*
X159183557Y-101253534D01*
X159267222Y-101097009D01*
X159307919Y-101047420D01*
X159379814Y-100959814D01*
X159481271Y-100876552D01*
X159517009Y-100847222D01*
X159673534Y-100763557D01*
X159843373Y-100712037D01*
X159909557Y-100705519D01*
X159975740Y-100699000D01*
X160064260Y-100699000D01*
X160130443Y-100705519D01*
X160130443Y-100705519D01*
G37*
G36*
X108198228Y-100781703D02*
G01*
X108353100Y-100845853D01*
X108492481Y-100938985D01*
X108611015Y-101057519D01*
X108704147Y-101196900D01*
X108768297Y-101351772D01*
X108801000Y-101516184D01*
X108801000Y-101683816D01*
X108768297Y-101848228D01*
X108704147Y-102003100D01*
X108611015Y-102142481D01*
X108492481Y-102261015D01*
X108353100Y-102354147D01*
X108198228Y-102418297D01*
X108033816Y-102451000D01*
X107866184Y-102451000D01*
X107701772Y-102418297D01*
X107546900Y-102354147D01*
X107407519Y-102261015D01*
X107288985Y-102142481D01*
X107195853Y-102003100D01*
X107131703Y-101848228D01*
X107099000Y-101683816D01*
X107099000Y-101516184D01*
X107131703Y-101351772D01*
X107195853Y-101196900D01*
X107288985Y-101057519D01*
X107407519Y-100938985D01*
X107546900Y-100845853D01*
X107701772Y-100781703D01*
X107866184Y-100749000D01*
X108033816Y-100749000D01*
X108198228Y-100781703D01*
X108198228Y-100781703D01*
G37*
G36*
X119587507Y-100915938D02*
G01*
X119716973Y-100969565D01*
X119833490Y-101047419D01*
X119932581Y-101146510D01*
X120010435Y-101263027D01*
X120064062Y-101392493D01*
X120091400Y-101529932D01*
X120091400Y-101670068D01*
X120064062Y-101807507D01*
X120010435Y-101936973D01*
X119932581Y-102053490D01*
X119833490Y-102152581D01*
X119716973Y-102230435D01*
X119587507Y-102284062D01*
X119450068Y-102311400D01*
X119309932Y-102311400D01*
X119172493Y-102284062D01*
X119043027Y-102230435D01*
X118926510Y-102152581D01*
X118827419Y-102053490D01*
X118749565Y-101936973D01*
X118695938Y-101807507D01*
X118668600Y-101670068D01*
X118668600Y-101529932D01*
X118695938Y-101392493D01*
X118749565Y-101263027D01*
X118827419Y-101146510D01*
X118926510Y-101047419D01*
X119043027Y-100969565D01*
X119172493Y-100915938D01*
X119309932Y-100888600D01*
X119450068Y-100888600D01*
X119587507Y-100915938D01*
X119587507Y-100915938D01*
G37*
G36*
X127207507Y-100915938D02*
G01*
X127336973Y-100969565D01*
X127453490Y-101047419D01*
X127552581Y-101146510D01*
X127630435Y-101263027D01*
X127684062Y-101392493D01*
X127711400Y-101529932D01*
X127711400Y-101670068D01*
X127684062Y-101807507D01*
X127630435Y-101936973D01*
X127552581Y-102053490D01*
X127453490Y-102152581D01*
X127336973Y-102230435D01*
X127207507Y-102284062D01*
X127070068Y-102311400D01*
X126929932Y-102311400D01*
X126792493Y-102284062D01*
X126663027Y-102230435D01*
X126546510Y-102152581D01*
X126447419Y-102053490D01*
X126369565Y-101936973D01*
X126315938Y-101807507D01*
X126288600Y-101670068D01*
X126288600Y-101529932D01*
X126315938Y-101392493D01*
X126369565Y-101263027D01*
X126447419Y-101146510D01*
X126546510Y-101047419D01*
X126663027Y-100969565D01*
X126792493Y-100915938D01*
X126929932Y-100888600D01*
X127070068Y-100888600D01*
X127207507Y-100915938D01*
X127207507Y-100915938D01*
G37*
G36*
X170290443Y-99435519D02*
G01*
X170356627Y-99442037D01*
X170526466Y-99493557D01*
X170682991Y-99577222D01*
X170718729Y-99606552D01*
X170820186Y-99689814D01*
X170887141Y-99771400D01*
X170932778Y-99827009D01*
X171016443Y-99983534D01*
X171067963Y-100153373D01*
X171085359Y-100330000D01*
X171067963Y-100506627D01*
X171016443Y-100676466D01*
X170932778Y-100832991D01*
X170903448Y-100868729D01*
X170820186Y-100970186D01*
X170726076Y-101047419D01*
X170682991Y-101082778D01*
X170526466Y-101166443D01*
X170356627Y-101217963D01*
X170290443Y-101224481D01*
X170224260Y-101231000D01*
X170135740Y-101231000D01*
X170069558Y-101224482D01*
X170003373Y-101217963D01*
X169833534Y-101166443D01*
X169677009Y-101082778D01*
X169633924Y-101047419D01*
X169539814Y-100970186D01*
X169456552Y-100868729D01*
X169427222Y-100832991D01*
X169343557Y-100676466D01*
X169292037Y-100506627D01*
X169274641Y-100330000D01*
X169292037Y-100153373D01*
X169343557Y-99983534D01*
X169427222Y-99827009D01*
X169472859Y-99771400D01*
X169539814Y-99689814D01*
X169641271Y-99606552D01*
X169677009Y-99577222D01*
X169833534Y-99493557D01*
X170003373Y-99442037D01*
X170069558Y-99435518D01*
X170135740Y-99429000D01*
X170224260Y-99429000D01*
X170290443Y-99435519D01*
X170290443Y-99435519D01*
G37*
G36*
X90254742Y-98379842D02*
G01*
X90402701Y-98441129D01*
X90535855Y-98530099D01*
X90649101Y-98643345D01*
X90738071Y-98776499D01*
X90799358Y-98924458D01*
X90830600Y-99081525D01*
X90830600Y-99241675D01*
X90799358Y-99398742D01*
X90738071Y-99546701D01*
X90649101Y-99679855D01*
X90535855Y-99793101D01*
X90402701Y-99882071D01*
X90254742Y-99943358D01*
X90097675Y-99974600D01*
X89937525Y-99974600D01*
X89780458Y-99943358D01*
X89632499Y-99882071D01*
X89499345Y-99793101D01*
X89386099Y-99679855D01*
X89297129Y-99546701D01*
X89235842Y-99398742D01*
X89204600Y-99241675D01*
X89204600Y-99081525D01*
X89235842Y-98924458D01*
X89297129Y-98776499D01*
X89386099Y-98643345D01*
X89499345Y-98530099D01*
X89632499Y-98441129D01*
X89780458Y-98379842D01*
X89937525Y-98348600D01*
X90097675Y-98348600D01*
X90254742Y-98379842D01*
X90254742Y-98379842D01*
G37*
G36*
X160130443Y-98165519D02*
G01*
X160196627Y-98172037D01*
X160366466Y-98223557D01*
X160522991Y-98307222D01*
X160558729Y-98336552D01*
X160660186Y-98419814D01*
X160732081Y-98507420D01*
X160772778Y-98557009D01*
X160856443Y-98713534D01*
X160907963Y-98883373D01*
X160925359Y-99060000D01*
X160907963Y-99236627D01*
X160856443Y-99406466D01*
X160772778Y-99562991D01*
X160743448Y-99598729D01*
X160660186Y-99700186D01*
X160573410Y-99771400D01*
X160522991Y-99812778D01*
X160366466Y-99896443D01*
X160196627Y-99947963D01*
X160130443Y-99954481D01*
X160064260Y-99961000D01*
X159975740Y-99961000D01*
X159909557Y-99954481D01*
X159843373Y-99947963D01*
X159673534Y-99896443D01*
X159517009Y-99812778D01*
X159466590Y-99771400D01*
X159379814Y-99700186D01*
X159296552Y-99598729D01*
X159267222Y-99562991D01*
X159183557Y-99406466D01*
X159132037Y-99236627D01*
X159114641Y-99060000D01*
X159132037Y-98883373D01*
X159183557Y-98713534D01*
X159267222Y-98557009D01*
X159307919Y-98507420D01*
X159379814Y-98419814D01*
X159481271Y-98336552D01*
X159517009Y-98307222D01*
X159673534Y-98223557D01*
X159843373Y-98172037D01*
X159909557Y-98165519D01*
X159975740Y-98159000D01*
X160064260Y-98159000D01*
X160130443Y-98165519D01*
X160130443Y-98165519D01*
G37*
G36*
X139810443Y-98165519D02*
G01*
X139876627Y-98172037D01*
X140046466Y-98223557D01*
X140202991Y-98307222D01*
X140238729Y-98336552D01*
X140340186Y-98419814D01*
X140412081Y-98507420D01*
X140452778Y-98557009D01*
X140536443Y-98713534D01*
X140587963Y-98883373D01*
X140605359Y-99060000D01*
X140587963Y-99236627D01*
X140536443Y-99406466D01*
X140452778Y-99562991D01*
X140423448Y-99598729D01*
X140340186Y-99700186D01*
X140253410Y-99771400D01*
X140202991Y-99812778D01*
X140046466Y-99896443D01*
X139876627Y-99947963D01*
X139810443Y-99954481D01*
X139744260Y-99961000D01*
X139655740Y-99961000D01*
X139589557Y-99954481D01*
X139523373Y-99947963D01*
X139353534Y-99896443D01*
X139197009Y-99812778D01*
X139146590Y-99771400D01*
X139059814Y-99700186D01*
X138976552Y-99598729D01*
X138947222Y-99562991D01*
X138863557Y-99406466D01*
X138812037Y-99236627D01*
X138794641Y-99060000D01*
X138812037Y-98883373D01*
X138863557Y-98713534D01*
X138947222Y-98557009D01*
X138987919Y-98507420D01*
X139059814Y-98419814D01*
X139161271Y-98336552D01*
X139197009Y-98307222D01*
X139353534Y-98223557D01*
X139523373Y-98172037D01*
X139589557Y-98165519D01*
X139655740Y-98159000D01*
X139744260Y-98159000D01*
X139810443Y-98165519D01*
X139810443Y-98165519D01*
G37*
G36*
X120091400Y-99771400D02*
G01*
X118668600Y-99771400D01*
X118668600Y-98348600D01*
X120091400Y-98348600D01*
X120091400Y-99771400D01*
X120091400Y-99771400D01*
G37*
G36*
X127207507Y-98375938D02*
G01*
X127336973Y-98429565D01*
X127453490Y-98507419D01*
X127552581Y-98606510D01*
X127630435Y-98723027D01*
X127684062Y-98852493D01*
X127711400Y-98989932D01*
X127711400Y-99130068D01*
X127684062Y-99267507D01*
X127630435Y-99396973D01*
X127552581Y-99513490D01*
X127453490Y-99612581D01*
X127336973Y-99690435D01*
X127207507Y-99744062D01*
X127070068Y-99771400D01*
X126929932Y-99771400D01*
X126792493Y-99744062D01*
X126663027Y-99690435D01*
X126546510Y-99612581D01*
X126447419Y-99513490D01*
X126369565Y-99396973D01*
X126315938Y-99267507D01*
X126288600Y-99130068D01*
X126288600Y-98989932D01*
X126315938Y-98852493D01*
X126369565Y-98723027D01*
X126447419Y-98606510D01*
X126546510Y-98507419D01*
X126663027Y-98429565D01*
X126792493Y-98375938D01*
X126929932Y-98348600D01*
X127070068Y-98348600D01*
X127207507Y-98375938D01*
X127207507Y-98375938D01*
G37*
G36*
X170290442Y-96895518D02*
G01*
X170356627Y-96902037D01*
X170526466Y-96953557D01*
X170682991Y-97037222D01*
X170713768Y-97062480D01*
X170820186Y-97149814D01*
X170903448Y-97251271D01*
X170932778Y-97287009D01*
X171016443Y-97443534D01*
X171067963Y-97613373D01*
X171085359Y-97790000D01*
X171067963Y-97966627D01*
X171016443Y-98136466D01*
X170932778Y-98292991D01*
X170903448Y-98328729D01*
X170820186Y-98430186D01*
X170726076Y-98507419D01*
X170682991Y-98542778D01*
X170526466Y-98626443D01*
X170356627Y-98677963D01*
X170290442Y-98684482D01*
X170224260Y-98691000D01*
X170135740Y-98691000D01*
X170069558Y-98684482D01*
X170003373Y-98677963D01*
X169833534Y-98626443D01*
X169677009Y-98542778D01*
X169633924Y-98507419D01*
X169539814Y-98430186D01*
X169456552Y-98328729D01*
X169427222Y-98292991D01*
X169343557Y-98136466D01*
X169292037Y-97966627D01*
X169274641Y-97790000D01*
X169292037Y-97613373D01*
X169343557Y-97443534D01*
X169427222Y-97287009D01*
X169456552Y-97251271D01*
X169539814Y-97149814D01*
X169646232Y-97062480D01*
X169677009Y-97037222D01*
X169833534Y-96953557D01*
X170003373Y-96902037D01*
X170069558Y-96895518D01*
X170135740Y-96889000D01*
X170224260Y-96889000D01*
X170290442Y-96895518D01*
X170290442Y-96895518D01*
G37*
G36*
X108116823Y-95681313D02*
G01*
X108277242Y-95729976D01*
X108344361Y-95765852D01*
X108425078Y-95808996D01*
X108554659Y-95915341D01*
X108661004Y-96044922D01*
X108661005Y-96044924D01*
X108740024Y-96192758D01*
X108788687Y-96353177D01*
X108805117Y-96520000D01*
X108788687Y-96686823D01*
X108740024Y-96847242D01*
X108699477Y-96923100D01*
X108661004Y-96995078D01*
X108554659Y-97124659D01*
X108425078Y-97231004D01*
X108425076Y-97231005D01*
X108277242Y-97310024D01*
X108116823Y-97358687D01*
X107991804Y-97371000D01*
X107908196Y-97371000D01*
X107783177Y-97358687D01*
X107622758Y-97310024D01*
X107474924Y-97231005D01*
X107474922Y-97231004D01*
X107345341Y-97124659D01*
X107238996Y-96995078D01*
X107200523Y-96923100D01*
X107159976Y-96847242D01*
X107111313Y-96686823D01*
X107094883Y-96520000D01*
X107111313Y-96353177D01*
X107159976Y-96192758D01*
X107238995Y-96044924D01*
X107238996Y-96044922D01*
X107345341Y-95915341D01*
X107474922Y-95808996D01*
X107555639Y-95765852D01*
X107622758Y-95729976D01*
X107783177Y-95681313D01*
X107908196Y-95669000D01*
X107991804Y-95669000D01*
X108116823Y-95681313D01*
X108116823Y-95681313D01*
G37*
G36*
X114548228Y-95701703D02*
G01*
X114703100Y-95765853D01*
X114842481Y-95858985D01*
X114961015Y-95977519D01*
X115054147Y-96116900D01*
X115118297Y-96271772D01*
X115151000Y-96436184D01*
X115151000Y-96603816D01*
X115118297Y-96768228D01*
X115054147Y-96923100D01*
X114961015Y-97062481D01*
X114842481Y-97181015D01*
X114703100Y-97274147D01*
X114548228Y-97338297D01*
X114383816Y-97371000D01*
X114216184Y-97371000D01*
X114051772Y-97338297D01*
X113896900Y-97274147D01*
X113757519Y-97181015D01*
X113638985Y-97062481D01*
X113545853Y-96923100D01*
X113481703Y-96768228D01*
X113449000Y-96603816D01*
X113449000Y-96436184D01*
X113481703Y-96271772D01*
X113545853Y-96116900D01*
X113638985Y-95977519D01*
X113757519Y-95858985D01*
X113896900Y-95765853D01*
X114051772Y-95701703D01*
X114216184Y-95669000D01*
X114383816Y-95669000D01*
X114548228Y-95701703D01*
X114548228Y-95701703D01*
G37*
G36*
X170290442Y-94355518D02*
G01*
X170356627Y-94362037D01*
X170526466Y-94413557D01*
X170682991Y-94497222D01*
X170718729Y-94526552D01*
X170820186Y-94609814D01*
X170903448Y-94711271D01*
X170932778Y-94747009D01*
X171016443Y-94903534D01*
X171067963Y-95073373D01*
X171085359Y-95250000D01*
X171067963Y-95426627D01*
X171016443Y-95596466D01*
X170932778Y-95752991D01*
X170922223Y-95765852D01*
X170820186Y-95890186D01*
X170718729Y-95973448D01*
X170682991Y-96002778D01*
X170526466Y-96086443D01*
X170356627Y-96137963D01*
X170290443Y-96144481D01*
X170224260Y-96151000D01*
X170135740Y-96151000D01*
X170069558Y-96144482D01*
X170003373Y-96137963D01*
X169833534Y-96086443D01*
X169677009Y-96002778D01*
X169641271Y-95973448D01*
X169539814Y-95890186D01*
X169437777Y-95765852D01*
X169427222Y-95752991D01*
X169343557Y-95596466D01*
X169292037Y-95426627D01*
X169274641Y-95250000D01*
X169292037Y-95073373D01*
X169343557Y-94903534D01*
X169427222Y-94747009D01*
X169456552Y-94711271D01*
X169539814Y-94609814D01*
X169641271Y-94526552D01*
X169677009Y-94497222D01*
X169833534Y-94413557D01*
X170003373Y-94362037D01*
X170069557Y-94355519D01*
X170135740Y-94349000D01*
X170224260Y-94349000D01*
X170290442Y-94355518D01*
X170290442Y-94355518D01*
G37*
G36*
X170290442Y-91815518D02*
G01*
X170356627Y-91822037D01*
X170526466Y-91873557D01*
X170682991Y-91957222D01*
X170718729Y-91986552D01*
X170820186Y-92069814D01*
X170903448Y-92171271D01*
X170932778Y-92207009D01*
X171016443Y-92363534D01*
X171067963Y-92533373D01*
X171085359Y-92710000D01*
X171067963Y-92886627D01*
X171016443Y-93056466D01*
X170932778Y-93212991D01*
X170903448Y-93248729D01*
X170820186Y-93350186D01*
X170718729Y-93433448D01*
X170682991Y-93462778D01*
X170526466Y-93546443D01*
X170356627Y-93597963D01*
X170290442Y-93604482D01*
X170224260Y-93611000D01*
X170135740Y-93611000D01*
X170069557Y-93604481D01*
X170003373Y-93597963D01*
X169833534Y-93546443D01*
X169677009Y-93462778D01*
X169641271Y-93433448D01*
X169539814Y-93350186D01*
X169456552Y-93248729D01*
X169427222Y-93212991D01*
X169343557Y-93056466D01*
X169292037Y-92886627D01*
X169274641Y-92710000D01*
X169292037Y-92533373D01*
X169343557Y-92363534D01*
X169427222Y-92207009D01*
X169456552Y-92171271D01*
X169539814Y-92069814D01*
X169641271Y-91986552D01*
X169677009Y-91957222D01*
X169833534Y-91873557D01*
X170003373Y-91822037D01*
X170069558Y-91815518D01*
X170135740Y-91809000D01*
X170224260Y-91809000D01*
X170290442Y-91815518D01*
X170290442Y-91815518D01*
G37*
G36*
X170290443Y-89275519D02*
G01*
X170356627Y-89282037D01*
X170526466Y-89333557D01*
X170682991Y-89417222D01*
X170713768Y-89442480D01*
X170820186Y-89529814D01*
X170903448Y-89631271D01*
X170932778Y-89667009D01*
X171016443Y-89823534D01*
X171067963Y-89993373D01*
X171085359Y-90170000D01*
X171067963Y-90346627D01*
X171016443Y-90516466D01*
X170932778Y-90672991D01*
X170903448Y-90708729D01*
X170820186Y-90810186D01*
X170718729Y-90893448D01*
X170682991Y-90922778D01*
X170526466Y-91006443D01*
X170356627Y-91057963D01*
X170290442Y-91064482D01*
X170224260Y-91071000D01*
X170135740Y-91071000D01*
X170069558Y-91064482D01*
X170003373Y-91057963D01*
X169833534Y-91006443D01*
X169677009Y-90922778D01*
X169641271Y-90893448D01*
X169539814Y-90810186D01*
X169456552Y-90708729D01*
X169427222Y-90672991D01*
X169343557Y-90516466D01*
X169292037Y-90346627D01*
X169274641Y-90170000D01*
X169292037Y-89993373D01*
X169343557Y-89823534D01*
X169427222Y-89667009D01*
X169456552Y-89631271D01*
X169539814Y-89529814D01*
X169646232Y-89442480D01*
X169677009Y-89417222D01*
X169833534Y-89333557D01*
X170003373Y-89282037D01*
X170069557Y-89275519D01*
X170135740Y-89269000D01*
X170224260Y-89269000D01*
X170290443Y-89275519D01*
X170290443Y-89275519D01*
G37*
G36*
X114466823Y-88061313D02*
G01*
X114627242Y-88109976D01*
X114694361Y-88145852D01*
X114775078Y-88188996D01*
X114904659Y-88295341D01*
X115011004Y-88424922D01*
X115011005Y-88424924D01*
X115090024Y-88572758D01*
X115138687Y-88733177D01*
X115155117Y-88900000D01*
X115138687Y-89066823D01*
X115090024Y-89227242D01*
X115049477Y-89303100D01*
X115011004Y-89375078D01*
X114904659Y-89504659D01*
X114775078Y-89611004D01*
X114775076Y-89611005D01*
X114627242Y-89690024D01*
X114466823Y-89738687D01*
X114341804Y-89751000D01*
X114258196Y-89751000D01*
X114133177Y-89738687D01*
X113972758Y-89690024D01*
X113824924Y-89611005D01*
X113824922Y-89611004D01*
X113695341Y-89504659D01*
X113588996Y-89375078D01*
X113550523Y-89303100D01*
X113509976Y-89227242D01*
X113461313Y-89066823D01*
X113444883Y-88900000D01*
X113461313Y-88733177D01*
X113509976Y-88572758D01*
X113588995Y-88424924D01*
X113588996Y-88424922D01*
X113695341Y-88295341D01*
X113824922Y-88188996D01*
X113905639Y-88145852D01*
X113972758Y-88109976D01*
X114133177Y-88061313D01*
X114258196Y-88049000D01*
X114341804Y-88049000D01*
X114466823Y-88061313D01*
X114466823Y-88061313D01*
G37*
G36*
X108198228Y-88081703D02*
G01*
X108353100Y-88145853D01*
X108492481Y-88238985D01*
X108611015Y-88357519D01*
X108704147Y-88496900D01*
X108768297Y-88651772D01*
X108801000Y-88816184D01*
X108801000Y-88983816D01*
X108768297Y-89148228D01*
X108704147Y-89303100D01*
X108611015Y-89442481D01*
X108492481Y-89561015D01*
X108353100Y-89654147D01*
X108198228Y-89718297D01*
X108033816Y-89751000D01*
X107866184Y-89751000D01*
X107701772Y-89718297D01*
X107546900Y-89654147D01*
X107407519Y-89561015D01*
X107288985Y-89442481D01*
X107195853Y-89303100D01*
X107131703Y-89148228D01*
X107099000Y-88983816D01*
X107099000Y-88816184D01*
X107131703Y-88651772D01*
X107195853Y-88496900D01*
X107288985Y-88357519D01*
X107407519Y-88238985D01*
X107546900Y-88145853D01*
X107701772Y-88081703D01*
X107866184Y-88049000D01*
X108033816Y-88049000D01*
X108198228Y-88081703D01*
X108198228Y-88081703D01*
G37*
G36*
X170290442Y-86735518D02*
G01*
X170356627Y-86742037D01*
X170526466Y-86793557D01*
X170682991Y-86877222D01*
X170684142Y-86878167D01*
X170820186Y-86989814D01*
X170885528Y-87069435D01*
X170932778Y-87127009D01*
X171016443Y-87283534D01*
X171067963Y-87453373D01*
X171085359Y-87630000D01*
X171067963Y-87806627D01*
X171016443Y-87976466D01*
X170932778Y-88132991D01*
X170922223Y-88145852D01*
X170820186Y-88270186D01*
X170718729Y-88353448D01*
X170682991Y-88382778D01*
X170526466Y-88466443D01*
X170356627Y-88517963D01*
X170290442Y-88524482D01*
X170224260Y-88531000D01*
X170135740Y-88531000D01*
X170069558Y-88524482D01*
X170003373Y-88517963D01*
X169833534Y-88466443D01*
X169677009Y-88382778D01*
X169641271Y-88353448D01*
X169539814Y-88270186D01*
X169437777Y-88145852D01*
X169427222Y-88132991D01*
X169343557Y-87976466D01*
X169292037Y-87806627D01*
X169274641Y-87630000D01*
X169292037Y-87453373D01*
X169343557Y-87283534D01*
X169427222Y-87127009D01*
X169474472Y-87069435D01*
X169539814Y-86989814D01*
X169675858Y-86878167D01*
X169677009Y-86877222D01*
X169833534Y-86793557D01*
X170003373Y-86742037D01*
X170069558Y-86735518D01*
X170135740Y-86729000D01*
X170224260Y-86729000D01*
X170290442Y-86735518D01*
X170290442Y-86735518D01*
G37*
G36*
X120274564Y-86365389D02*
G01*
X120465833Y-86444615D01*
X120465835Y-86444616D01*
X120637973Y-86559635D01*
X120784365Y-86706027D01*
X120899385Y-86878167D01*
X120978611Y-87069436D01*
X121019000Y-87272484D01*
X121019000Y-87479516D01*
X120978611Y-87682564D01*
X120899385Y-87873833D01*
X120899384Y-87873835D01*
X120784365Y-88045973D01*
X120637973Y-88192365D01*
X120465835Y-88307384D01*
X120465834Y-88307385D01*
X120465833Y-88307385D01*
X120274564Y-88386611D01*
X120071516Y-88427000D01*
X119864484Y-88427000D01*
X119661436Y-88386611D01*
X119470167Y-88307385D01*
X119470166Y-88307385D01*
X119470165Y-88307384D01*
X119298027Y-88192365D01*
X119151635Y-88045973D01*
X119036616Y-87873835D01*
X119036615Y-87873833D01*
X118957389Y-87682564D01*
X118917000Y-87479516D01*
X118917000Y-87272484D01*
X118957389Y-87069436D01*
X119036615Y-86878167D01*
X119151635Y-86706027D01*
X119298027Y-86559635D01*
X119470165Y-86444616D01*
X119470167Y-86444615D01*
X119661436Y-86365389D01*
X119864484Y-86325000D01*
X120071516Y-86325000D01*
X120274564Y-86365389D01*
X120274564Y-86365389D01*
G37*
G36*
X126019000Y-88427000D02*
G01*
X123917000Y-88427000D01*
X123917000Y-86325000D01*
X126019000Y-86325000D01*
X126019000Y-88427000D01*
X126019000Y-88427000D01*
G37*
G36*
X133002942Y-84486042D02*
G01*
X133150901Y-84547329D01*
X133284055Y-84636299D01*
X133397301Y-84749545D01*
X133486271Y-84882699D01*
X133547558Y-85030658D01*
X133578800Y-85187725D01*
X133578800Y-85347875D01*
X133547558Y-85504942D01*
X133486271Y-85652901D01*
X133397301Y-85786055D01*
X133284055Y-85899301D01*
X133150901Y-85988271D01*
X133002942Y-86049558D01*
X132845875Y-86080800D01*
X132685725Y-86080800D01*
X132528658Y-86049558D01*
X132380699Y-85988271D01*
X132247545Y-85899301D01*
X132134299Y-85786055D01*
X132045329Y-85652901D01*
X131984042Y-85504942D01*
X131952800Y-85347875D01*
X131952800Y-85187725D01*
X131984042Y-85030658D01*
X132045329Y-84882699D01*
X132134299Y-84749545D01*
X132247545Y-84636299D01*
X132380699Y-84547329D01*
X132528658Y-84486042D01*
X132685725Y-84454800D01*
X132845875Y-84454800D01*
X133002942Y-84486042D01*
X133002942Y-84486042D01*
G37*
G36*
X163482942Y-84486042D02*
G01*
X163630901Y-84547329D01*
X163764055Y-84636299D01*
X163877301Y-84749545D01*
X163966271Y-84882699D01*
X164027558Y-85030658D01*
X164058800Y-85187725D01*
X164058800Y-85347875D01*
X164027558Y-85504942D01*
X163966271Y-85652901D01*
X163877301Y-85786055D01*
X163764055Y-85899301D01*
X163630901Y-85988271D01*
X163482942Y-86049558D01*
X163325875Y-86080800D01*
X163165725Y-86080800D01*
X163008658Y-86049558D01*
X162860699Y-85988271D01*
X162727545Y-85899301D01*
X162614299Y-85786055D01*
X162525329Y-85652901D01*
X162464042Y-85504942D01*
X162432800Y-85347875D01*
X162432800Y-85187725D01*
X162464042Y-85030658D01*
X162525329Y-84882699D01*
X162614299Y-84749545D01*
X162727545Y-84636299D01*
X162860699Y-84547329D01*
X163008658Y-84486042D01*
X163165725Y-84454800D01*
X163325875Y-84454800D01*
X163482942Y-84486042D01*
X163482942Y-84486042D01*
G37*
G36*
X170290442Y-84195518D02*
G01*
X170356627Y-84202037D01*
X170526466Y-84253557D01*
X170682991Y-84337222D01*
X170718729Y-84366552D01*
X170820186Y-84449814D01*
X170900213Y-84547329D01*
X170932778Y-84587009D01*
X171016443Y-84743534D01*
X171067963Y-84913373D01*
X171085359Y-85090000D01*
X171067963Y-85266627D01*
X171016443Y-85436466D01*
X170932778Y-85592991D01*
X170903448Y-85628729D01*
X170820186Y-85730186D01*
X170718729Y-85813448D01*
X170682991Y-85842778D01*
X170682989Y-85842779D01*
X170577249Y-85899299D01*
X170526466Y-85926443D01*
X170356627Y-85977963D01*
X170290442Y-85984482D01*
X170224260Y-85991000D01*
X170135740Y-85991000D01*
X170069558Y-85984482D01*
X170003373Y-85977963D01*
X169833534Y-85926443D01*
X169782752Y-85899299D01*
X169677011Y-85842779D01*
X169677009Y-85842778D01*
X169641271Y-85813448D01*
X169539814Y-85730186D01*
X169456552Y-85628729D01*
X169427222Y-85592991D01*
X169343557Y-85436466D01*
X169292037Y-85266627D01*
X169274641Y-85090000D01*
X169292037Y-84913373D01*
X169343557Y-84743534D01*
X169427222Y-84587009D01*
X169459787Y-84547329D01*
X169539814Y-84449814D01*
X169641271Y-84366552D01*
X169677009Y-84337222D01*
X169833534Y-84253557D01*
X170003373Y-84202037D01*
X170069558Y-84195518D01*
X170135740Y-84189000D01*
X170224260Y-84189000D01*
X170290442Y-84195518D01*
X170290442Y-84195518D01*
G37*
G36*
X90553593Y-83115803D02*
G01*
X90618011Y-83135344D01*
X90677381Y-83167078D01*
X90729417Y-83209783D01*
X90772122Y-83261819D01*
X90803856Y-83321189D01*
X90823397Y-83385607D01*
X90830600Y-83458740D01*
X90830600Y-84384460D01*
X90823397Y-84457593D01*
X90803856Y-84522011D01*
X90772122Y-84581381D01*
X90729417Y-84633417D01*
X90677381Y-84676122D01*
X90618011Y-84707856D01*
X90553593Y-84727397D01*
X90480460Y-84734600D01*
X89554740Y-84734600D01*
X89481607Y-84727397D01*
X89417189Y-84707856D01*
X89357819Y-84676122D01*
X89305783Y-84633417D01*
X89263078Y-84581381D01*
X89231344Y-84522011D01*
X89211803Y-84457593D01*
X89204600Y-84384460D01*
X89204600Y-83458740D01*
X89211803Y-83385607D01*
X89231344Y-83321189D01*
X89263078Y-83261819D01*
X89305783Y-83209783D01*
X89357819Y-83167078D01*
X89417189Y-83135344D01*
X89481607Y-83115803D01*
X89554740Y-83108600D01*
X90480460Y-83108600D01*
X90553593Y-83115803D01*
X90553593Y-83115803D01*
G37*
G36*
X109420098Y-83160362D02*
G01*
X109539410Y-83209783D01*
X109544943Y-83212075D01*
X109657299Y-83287149D01*
X109752851Y-83382701D01*
X109803659Y-83458740D01*
X109827926Y-83495059D01*
X109879638Y-83619902D01*
X109906000Y-83752434D01*
X109906000Y-83887566D01*
X109879638Y-84020098D01*
X109827926Y-84144941D01*
X109827925Y-84144943D01*
X109752851Y-84257299D01*
X109657299Y-84352851D01*
X109544943Y-84427925D01*
X109544942Y-84427926D01*
X109544941Y-84427926D01*
X109420098Y-84479638D01*
X109287566Y-84506000D01*
X109152434Y-84506000D01*
X109019902Y-84479638D01*
X108895059Y-84427926D01*
X108895058Y-84427926D01*
X108895057Y-84427925D01*
X108782701Y-84352851D01*
X108687149Y-84257299D01*
X108612075Y-84144943D01*
X108612074Y-84144941D01*
X108560362Y-84020098D01*
X108534000Y-83887566D01*
X108534000Y-83752434D01*
X108560362Y-83619902D01*
X108612074Y-83495059D01*
X108636342Y-83458740D01*
X108687149Y-83382701D01*
X108782701Y-83287149D01*
X108895057Y-83212075D01*
X108900590Y-83209783D01*
X109019902Y-83160362D01*
X109152434Y-83134000D01*
X109287566Y-83134000D01*
X109420098Y-83160362D01*
X109420098Y-83160362D01*
G37*
G36*
X133002942Y-81946042D02*
G01*
X133150901Y-82007329D01*
X133284055Y-82096299D01*
X133397301Y-82209545D01*
X133486271Y-82342699D01*
X133547558Y-82490658D01*
X133578800Y-82647725D01*
X133578800Y-82807875D01*
X133547558Y-82964942D01*
X133486271Y-83112901D01*
X133397301Y-83246055D01*
X133284055Y-83359301D01*
X133150901Y-83448271D01*
X133002942Y-83509558D01*
X132845875Y-83540800D01*
X132685725Y-83540800D01*
X132528658Y-83509558D01*
X132380699Y-83448271D01*
X132247545Y-83359301D01*
X132134299Y-83246055D01*
X132045329Y-83112901D01*
X131984042Y-82964942D01*
X131952800Y-82807875D01*
X131952800Y-82647725D01*
X131984042Y-82490658D01*
X132045329Y-82342699D01*
X132134299Y-82209545D01*
X132247545Y-82096299D01*
X132380699Y-82007329D01*
X132528658Y-81946042D01*
X132685725Y-81914800D01*
X132845875Y-81914800D01*
X133002942Y-81946042D01*
X133002942Y-81946042D01*
G37*
G36*
X170290443Y-81655519D02*
G01*
X170356627Y-81662037D01*
X170526466Y-81713557D01*
X170682991Y-81797222D01*
X170718729Y-81826552D01*
X170820186Y-81909814D01*
X170900213Y-82007329D01*
X170932778Y-82047009D01*
X171016443Y-82203534D01*
X171067963Y-82373373D01*
X171085359Y-82550000D01*
X171067963Y-82726627D01*
X171016443Y-82896466D01*
X170932778Y-83052991D01*
X170903448Y-83088729D01*
X170820186Y-83190186D01*
X170718729Y-83273448D01*
X170682991Y-83302778D01*
X170682989Y-83302779D01*
X170576800Y-83359539D01*
X170526466Y-83386443D01*
X170356627Y-83437963D01*
X170290443Y-83444481D01*
X170224260Y-83451000D01*
X170135740Y-83451000D01*
X170069557Y-83444481D01*
X170003373Y-83437963D01*
X169833534Y-83386443D01*
X169783201Y-83359539D01*
X169677011Y-83302779D01*
X169677009Y-83302778D01*
X169641271Y-83273448D01*
X169539814Y-83190186D01*
X169456552Y-83088729D01*
X169427222Y-83052991D01*
X169343557Y-82896466D01*
X169292037Y-82726627D01*
X169274641Y-82550000D01*
X169292037Y-82373373D01*
X169343557Y-82203534D01*
X169427222Y-82047009D01*
X169459787Y-82007329D01*
X169539814Y-81909814D01*
X169641271Y-81826552D01*
X169677009Y-81797222D01*
X169833534Y-81713557D01*
X170003373Y-81662037D01*
X170069557Y-81655519D01*
X170135740Y-81649000D01*
X170224260Y-81649000D01*
X170290443Y-81655519D01*
X170290443Y-81655519D01*
G37*
G36*
X109906000Y-81966000D02*
G01*
X108534000Y-81966000D01*
X108534000Y-80594000D01*
X109906000Y-80594000D01*
X109906000Y-81966000D01*
X109906000Y-81966000D01*
G37*
G36*
X133002942Y-79406042D02*
G01*
X133150901Y-79467329D01*
X133284055Y-79556299D01*
X133397301Y-79669545D01*
X133486271Y-79802699D01*
X133547558Y-79950658D01*
X133578800Y-80107725D01*
X133578800Y-80267875D01*
X133547558Y-80424942D01*
X133486271Y-80572901D01*
X133397301Y-80706055D01*
X133284055Y-80819301D01*
X133150901Y-80908271D01*
X133002942Y-80969558D01*
X132845875Y-81000800D01*
X132685725Y-81000800D01*
X132528658Y-80969558D01*
X132380699Y-80908271D01*
X132247545Y-80819301D01*
X132134299Y-80706055D01*
X132045329Y-80572901D01*
X131984042Y-80424942D01*
X131952800Y-80267875D01*
X131952800Y-80107725D01*
X131984042Y-79950658D01*
X132045329Y-79802699D01*
X132134299Y-79669545D01*
X132247545Y-79556299D01*
X132380699Y-79467329D01*
X132528658Y-79406042D01*
X132685725Y-79374800D01*
X132845875Y-79374800D01*
X133002942Y-79406042D01*
X133002942Y-79406042D01*
G37*
G36*
X170290443Y-79115519D02*
G01*
X170356627Y-79122037D01*
X170526466Y-79173557D01*
X170682991Y-79257222D01*
X170718729Y-79286552D01*
X170820186Y-79369814D01*
X170900213Y-79467329D01*
X170932778Y-79507009D01*
X171016443Y-79663534D01*
X171067963Y-79833373D01*
X171085359Y-80010000D01*
X171067963Y-80186627D01*
X171016443Y-80356466D01*
X170932778Y-80512991D01*
X170903448Y-80548729D01*
X170820186Y-80650186D01*
X170718729Y-80733448D01*
X170682991Y-80762778D01*
X170682989Y-80762779D01*
X170577249Y-80819299D01*
X170526466Y-80846443D01*
X170356627Y-80897963D01*
X170290442Y-80904482D01*
X170224260Y-80911000D01*
X170135740Y-80911000D01*
X170069558Y-80904482D01*
X170003373Y-80897963D01*
X169833534Y-80846443D01*
X169782752Y-80819299D01*
X169677011Y-80762779D01*
X169677009Y-80762778D01*
X169641271Y-80733448D01*
X169539814Y-80650186D01*
X169456552Y-80548729D01*
X169427222Y-80512991D01*
X169343557Y-80356466D01*
X169292037Y-80186627D01*
X169274641Y-80010000D01*
X169292037Y-79833373D01*
X169343557Y-79663534D01*
X169427222Y-79507009D01*
X169459787Y-79467329D01*
X169539814Y-79369814D01*
X169641271Y-79286552D01*
X169677009Y-79257222D01*
X169833534Y-79173557D01*
X170003373Y-79122037D01*
X170069557Y-79115519D01*
X170135740Y-79109000D01*
X170224260Y-79109000D01*
X170290443Y-79115519D01*
X170290443Y-79115519D01*
G37*
G36*
X133002942Y-76866042D02*
G01*
X133150901Y-76927329D01*
X133284055Y-77016299D01*
X133397301Y-77129545D01*
X133486271Y-77262699D01*
X133547558Y-77410658D01*
X133578800Y-77567725D01*
X133578800Y-77727875D01*
X133547558Y-77884942D01*
X133486271Y-78032901D01*
X133397301Y-78166055D01*
X133284055Y-78279301D01*
X133150901Y-78368271D01*
X133002942Y-78429558D01*
X132845875Y-78460800D01*
X132685725Y-78460800D01*
X132528658Y-78429558D01*
X132380699Y-78368271D01*
X132247545Y-78279301D01*
X132134299Y-78166055D01*
X132045329Y-78032901D01*
X131984042Y-77884942D01*
X131952800Y-77727875D01*
X131952800Y-77567725D01*
X131984042Y-77410658D01*
X132045329Y-77262699D01*
X132134299Y-77129545D01*
X132247545Y-77016299D01*
X132380699Y-76927329D01*
X132528658Y-76866042D01*
X132685725Y-76834800D01*
X132845875Y-76834800D01*
X133002942Y-76866042D01*
X133002942Y-76866042D01*
G37*
G36*
X171081000Y-78371000D02*
G01*
X169279000Y-78371000D01*
X169279000Y-76569000D01*
X171081000Y-76569000D01*
X171081000Y-78371000D01*
X171081000Y-78371000D01*
G37*
G36*
X116695623Y-76478913D02*
G01*
X116856042Y-76527576D01*
X116988706Y-76598486D01*
X117003878Y-76606596D01*
X117133459Y-76712941D01*
X117239804Y-76842522D01*
X117239805Y-76842524D01*
X117318824Y-76990358D01*
X117367487Y-77150777D01*
X117383917Y-77317600D01*
X117367487Y-77484423D01*
X117318824Y-77644842D01*
X117274442Y-77727874D01*
X117239804Y-77792678D01*
X117133459Y-77922259D01*
X117003878Y-78028604D01*
X117003876Y-78028605D01*
X116856042Y-78107624D01*
X116695623Y-78156287D01*
X116570604Y-78168600D01*
X115686996Y-78168600D01*
X115561977Y-78156287D01*
X115401558Y-78107624D01*
X115253724Y-78028605D01*
X115253722Y-78028604D01*
X115124141Y-77922259D01*
X115017796Y-77792678D01*
X114983158Y-77727874D01*
X114938776Y-77644842D01*
X114890113Y-77484423D01*
X114873683Y-77317600D01*
X114890113Y-77150777D01*
X114938776Y-76990358D01*
X115017795Y-76842524D01*
X115017796Y-76842522D01*
X115124141Y-76712941D01*
X115253722Y-76606596D01*
X115268894Y-76598486D01*
X115401558Y-76527576D01*
X115561977Y-76478913D01*
X115686996Y-76466600D01*
X116570604Y-76466600D01*
X116695623Y-76478913D01*
X116695623Y-76478913D01*
G37*
G36*
X124315623Y-76478913D02*
G01*
X124476042Y-76527576D01*
X124608706Y-76598486D01*
X124623878Y-76606596D01*
X124753459Y-76712941D01*
X124859804Y-76842522D01*
X124859805Y-76842524D01*
X124938824Y-76990358D01*
X124987487Y-77150777D01*
X125003917Y-77317600D01*
X124987487Y-77484423D01*
X124938824Y-77644842D01*
X124894442Y-77727874D01*
X124859804Y-77792678D01*
X124753459Y-77922259D01*
X124623878Y-78028604D01*
X124623876Y-78028605D01*
X124476042Y-78107624D01*
X124315623Y-78156287D01*
X124190604Y-78168600D01*
X123306996Y-78168600D01*
X123181977Y-78156287D01*
X123021558Y-78107624D01*
X122873724Y-78028605D01*
X122873722Y-78028604D01*
X122744141Y-77922259D01*
X122637796Y-77792678D01*
X122603158Y-77727874D01*
X122558776Y-77644842D01*
X122510113Y-77484423D01*
X122493683Y-77317600D01*
X122510113Y-77150777D01*
X122558776Y-76990358D01*
X122637795Y-76842524D01*
X122637796Y-76842522D01*
X122744141Y-76712941D01*
X122873722Y-76606596D01*
X122888894Y-76598486D01*
X123021558Y-76527576D01*
X123181977Y-76478913D01*
X123306996Y-76466600D01*
X124190604Y-76466600D01*
X124315623Y-76478913D01*
X124315623Y-76478913D01*
G37*
G36*
X133002942Y-74326042D02*
G01*
X133150901Y-74387329D01*
X133284055Y-74476299D01*
X133397301Y-74589545D01*
X133486271Y-74722699D01*
X133547558Y-74870658D01*
X133578800Y-75027725D01*
X133578800Y-75187875D01*
X133547558Y-75344942D01*
X133486271Y-75492901D01*
X133397301Y-75626055D01*
X133284055Y-75739301D01*
X133150901Y-75828271D01*
X133002942Y-75889558D01*
X132845875Y-75920800D01*
X132685725Y-75920800D01*
X132528658Y-75889558D01*
X132380699Y-75828271D01*
X132247545Y-75739301D01*
X132134299Y-75626055D01*
X132045329Y-75492901D01*
X131984042Y-75344942D01*
X131952800Y-75187875D01*
X131952800Y-75027725D01*
X131984042Y-74870658D01*
X132045329Y-74722699D01*
X132134299Y-74589545D01*
X132247545Y-74476299D01*
X132380699Y-74387329D01*
X132528658Y-74326042D01*
X132685725Y-74294800D01*
X132845875Y-74294800D01*
X133002942Y-74326042D01*
X133002942Y-74326042D01*
G37*
G36*
X124315623Y-73938913D02*
G01*
X124476042Y-73987576D01*
X124608706Y-74058486D01*
X124623878Y-74066596D01*
X124753459Y-74172941D01*
X124859804Y-74302522D01*
X124859805Y-74302524D01*
X124938824Y-74450358D01*
X124987487Y-74610777D01*
X125003917Y-74777600D01*
X124987487Y-74944423D01*
X124938824Y-75104842D01*
X124894442Y-75187874D01*
X124859804Y-75252678D01*
X124753459Y-75382259D01*
X124623878Y-75488604D01*
X124623876Y-75488605D01*
X124476042Y-75567624D01*
X124315623Y-75616287D01*
X124190604Y-75628600D01*
X123306996Y-75628600D01*
X123181977Y-75616287D01*
X123021558Y-75567624D01*
X122873724Y-75488605D01*
X122873722Y-75488604D01*
X122744141Y-75382259D01*
X122637796Y-75252678D01*
X122603158Y-75187874D01*
X122558776Y-75104842D01*
X122510113Y-74944423D01*
X122493683Y-74777600D01*
X122510113Y-74610777D01*
X122558776Y-74450358D01*
X122637795Y-74302524D01*
X122637796Y-74302522D01*
X122744141Y-74172941D01*
X122873722Y-74066596D01*
X122888894Y-74058486D01*
X123021558Y-73987576D01*
X123181977Y-73938913D01*
X123306996Y-73926600D01*
X124190604Y-73926600D01*
X124315623Y-73938913D01*
X124315623Y-73938913D01*
G37*
G36*
X116695623Y-73938913D02*
G01*
X116856042Y-73987576D01*
X116988706Y-74058486D01*
X117003878Y-74066596D01*
X117133459Y-74172941D01*
X117239804Y-74302522D01*
X117239805Y-74302524D01*
X117318824Y-74450358D01*
X117367487Y-74610777D01*
X117383917Y-74777600D01*
X117367487Y-74944423D01*
X117318824Y-75104842D01*
X117274442Y-75187874D01*
X117239804Y-75252678D01*
X117133459Y-75382259D01*
X117003878Y-75488604D01*
X117003876Y-75488605D01*
X116856042Y-75567624D01*
X116695623Y-75616287D01*
X116570604Y-75628600D01*
X115686996Y-75628600D01*
X115561977Y-75616287D01*
X115401558Y-75567624D01*
X115253724Y-75488605D01*
X115253722Y-75488604D01*
X115124141Y-75382259D01*
X115017796Y-75252678D01*
X114983158Y-75187874D01*
X114938776Y-75104842D01*
X114890113Y-74944423D01*
X114873683Y-74777600D01*
X114890113Y-74610777D01*
X114938776Y-74450358D01*
X115017795Y-74302524D01*
X115017796Y-74302522D01*
X115124141Y-74172941D01*
X115253722Y-74066596D01*
X115268894Y-74058486D01*
X115401558Y-73987576D01*
X115561977Y-73938913D01*
X115686996Y-73926600D01*
X116570604Y-73926600D01*
X116695623Y-73938913D01*
X116695623Y-73938913D01*
G37*
G36*
X110106964Y-72141389D02*
G01*
X110298233Y-72220615D01*
X110298235Y-72220616D01*
X110470373Y-72335635D01*
X110616765Y-72482027D01*
X110716316Y-72631015D01*
X110731785Y-72654167D01*
X110811011Y-72845436D01*
X110851400Y-73048484D01*
X110851400Y-73255516D01*
X110811011Y-73458564D01*
X110731785Y-73649833D01*
X110731784Y-73649835D01*
X110616765Y-73821973D01*
X110470373Y-73968365D01*
X110298235Y-74083384D01*
X110298234Y-74083385D01*
X110298233Y-74083385D01*
X110106964Y-74162611D01*
X109903916Y-74203000D01*
X109696884Y-74203000D01*
X109493836Y-74162611D01*
X109302567Y-74083385D01*
X109302566Y-74083385D01*
X109302565Y-74083384D01*
X109130427Y-73968365D01*
X108984035Y-73821973D01*
X108869016Y-73649835D01*
X108869015Y-73649833D01*
X108789789Y-73458564D01*
X108749400Y-73255516D01*
X108749400Y-73048484D01*
X108789789Y-72845436D01*
X108869015Y-72654167D01*
X108884485Y-72631015D01*
X108984035Y-72482027D01*
X109130427Y-72335635D01*
X109302565Y-72220616D01*
X109302567Y-72220615D01*
X109493836Y-72141389D01*
X109696884Y-72101000D01*
X109903916Y-72101000D01*
X110106964Y-72141389D01*
X110106964Y-72141389D01*
G37*
G36*
X105851400Y-74203000D02*
G01*
X103749400Y-74203000D01*
X103749400Y-72101000D01*
X105851400Y-72101000D01*
X105851400Y-74203000D01*
X105851400Y-74203000D01*
G37*
G36*
X133002942Y-71786042D02*
G01*
X133150901Y-71847329D01*
X133284055Y-71936299D01*
X133397301Y-72049545D01*
X133486271Y-72182699D01*
X133547558Y-72330658D01*
X133578800Y-72487725D01*
X133578800Y-72647875D01*
X133547558Y-72804942D01*
X133486271Y-72952901D01*
X133397301Y-73086055D01*
X133284055Y-73199301D01*
X133150901Y-73288271D01*
X133002942Y-73349558D01*
X132845875Y-73380800D01*
X132685725Y-73380800D01*
X132528658Y-73349558D01*
X132380699Y-73288271D01*
X132247545Y-73199301D01*
X132134299Y-73086055D01*
X132045329Y-72952901D01*
X131984042Y-72804942D01*
X131952800Y-72647875D01*
X131952800Y-72487725D01*
X131984042Y-72330658D01*
X132045329Y-72182699D01*
X132134299Y-72049545D01*
X132247545Y-71936299D01*
X132380699Y-71847329D01*
X132528658Y-71786042D01*
X132685725Y-71754800D01*
X132845875Y-71754800D01*
X133002942Y-71786042D01*
X133002942Y-71786042D01*
G37*
G36*
X124315623Y-71398913D02*
G01*
X124476042Y-71447576D01*
X124608706Y-71518486D01*
X124623878Y-71526596D01*
X124753459Y-71632941D01*
X124859804Y-71762522D01*
X124859805Y-71762524D01*
X124938824Y-71910358D01*
X124987487Y-72070777D01*
X125003917Y-72237600D01*
X124987487Y-72404423D01*
X124938824Y-72564842D01*
X124903453Y-72631016D01*
X124859804Y-72712678D01*
X124753459Y-72842259D01*
X124623878Y-72948604D01*
X124623876Y-72948605D01*
X124476042Y-73027624D01*
X124315623Y-73076287D01*
X124190604Y-73088600D01*
X123306996Y-73088600D01*
X123181977Y-73076287D01*
X123021558Y-73027624D01*
X122873724Y-72948605D01*
X122873722Y-72948604D01*
X122744141Y-72842259D01*
X122637796Y-72712678D01*
X122594147Y-72631016D01*
X122558776Y-72564842D01*
X122510113Y-72404423D01*
X122493683Y-72237600D01*
X122510113Y-72070777D01*
X122558776Y-71910358D01*
X122637795Y-71762524D01*
X122637796Y-71762522D01*
X122744141Y-71632941D01*
X122873722Y-71526596D01*
X122888894Y-71518486D01*
X123021558Y-71447576D01*
X123181977Y-71398913D01*
X123306996Y-71386600D01*
X124190604Y-71386600D01*
X124315623Y-71398913D01*
X124315623Y-71398913D01*
G37*
G36*
X116695623Y-71398913D02*
G01*
X116856042Y-71447576D01*
X116988706Y-71518486D01*
X117003878Y-71526596D01*
X117133459Y-71632941D01*
X117239804Y-71762522D01*
X117239805Y-71762524D01*
X117318824Y-71910358D01*
X117367487Y-72070777D01*
X117383917Y-72237600D01*
X117367487Y-72404423D01*
X117318824Y-72564842D01*
X117283453Y-72631016D01*
X117239804Y-72712678D01*
X117133459Y-72842259D01*
X117003878Y-72948604D01*
X117003876Y-72948605D01*
X116856042Y-73027624D01*
X116695623Y-73076287D01*
X116570604Y-73088600D01*
X115686996Y-73088600D01*
X115561977Y-73076287D01*
X115401558Y-73027624D01*
X115253724Y-72948605D01*
X115253722Y-72948604D01*
X115124141Y-72842259D01*
X115017796Y-72712678D01*
X114974147Y-72631016D01*
X114938776Y-72564842D01*
X114890113Y-72404423D01*
X114873683Y-72237600D01*
X114890113Y-72070777D01*
X114938776Y-71910358D01*
X115017795Y-71762524D01*
X115017796Y-71762522D01*
X115124141Y-71632941D01*
X115253722Y-71526596D01*
X115268894Y-71518486D01*
X115401558Y-71447576D01*
X115561977Y-71398913D01*
X115686996Y-71386600D01*
X116570604Y-71386600D01*
X116695623Y-71398913D01*
X116695623Y-71398913D01*
G37*
G36*
X84449256Y-69739898D02*
G01*
X84555579Y-69761047D01*
X84627066Y-69790658D01*
X84805151Y-69864423D01*
X84856042Y-69885503D01*
X85126451Y-70066185D01*
X85356415Y-70296149D01*
X85537097Y-70566558D01*
X85637751Y-70809557D01*
X85661553Y-70867022D01*
X85725000Y-71185989D01*
X85725000Y-71511211D01*
X85700786Y-71632941D01*
X85661553Y-71830179D01*
X85537097Y-72130642D01*
X85356415Y-72401051D01*
X85126451Y-72631015D01*
X84856042Y-72811697D01*
X84555579Y-72936153D01*
X84492978Y-72948605D01*
X84236611Y-72999600D01*
X83911389Y-72999600D01*
X83655022Y-72948605D01*
X83592421Y-72936153D01*
X83291958Y-72811697D01*
X83021549Y-72631015D01*
X82791585Y-72401051D01*
X82610903Y-72130642D01*
X82486447Y-71830179D01*
X82447214Y-71632941D01*
X82423000Y-71511211D01*
X82423000Y-71185989D01*
X82486447Y-70867022D01*
X82510250Y-70809557D01*
X82610903Y-70566558D01*
X82791585Y-70296149D01*
X83021549Y-70066185D01*
X83291958Y-69885503D01*
X83342850Y-69864423D01*
X83520934Y-69790658D01*
X83592421Y-69761047D01*
X83698744Y-69739898D01*
X83911389Y-69697600D01*
X84236611Y-69697600D01*
X84449256Y-69739898D01*
X84449256Y-69739898D01*
G37*
G36*
X170301256Y-69739898D02*
G01*
X170407579Y-69761047D01*
X170479066Y-69790658D01*
X170657151Y-69864423D01*
X170708042Y-69885503D01*
X170978451Y-70066185D01*
X171208415Y-70296149D01*
X171389097Y-70566558D01*
X171489751Y-70809557D01*
X171513553Y-70867022D01*
X171577000Y-71185989D01*
X171577000Y-71511211D01*
X171552786Y-71632941D01*
X171513553Y-71830179D01*
X171389097Y-72130642D01*
X171208415Y-72401051D01*
X170978451Y-72631015D01*
X170708042Y-72811697D01*
X170407579Y-72936153D01*
X170344978Y-72948605D01*
X170088611Y-72999600D01*
X169763389Y-72999600D01*
X169507022Y-72948605D01*
X169444421Y-72936153D01*
X169143958Y-72811697D01*
X168873549Y-72631015D01*
X168643585Y-72401051D01*
X168462903Y-72130642D01*
X168338447Y-71830179D01*
X168299214Y-71632941D01*
X168275000Y-71511211D01*
X168275000Y-71185989D01*
X168338447Y-70867022D01*
X168362250Y-70809557D01*
X168462903Y-70566558D01*
X168643585Y-70296149D01*
X168873549Y-70066185D01*
X169143958Y-69885503D01*
X169194850Y-69864423D01*
X169372934Y-69790658D01*
X169444421Y-69761047D01*
X169550744Y-69739898D01*
X169763389Y-69697600D01*
X170088611Y-69697600D01*
X170301256Y-69739898D01*
X170301256Y-69739898D01*
G37*
G36*
X133002942Y-69246042D02*
G01*
X133150901Y-69307329D01*
X133284055Y-69396299D01*
X133397301Y-69509545D01*
X133486271Y-69642699D01*
X133547558Y-69790658D01*
X133578800Y-69947725D01*
X133578800Y-70107875D01*
X133547558Y-70264942D01*
X133486271Y-70412901D01*
X133397301Y-70546055D01*
X133284055Y-70659301D01*
X133150901Y-70748271D01*
X133002942Y-70809558D01*
X132845875Y-70840800D01*
X132685725Y-70840800D01*
X132528658Y-70809558D01*
X132380699Y-70748271D01*
X132247545Y-70659301D01*
X132134299Y-70546055D01*
X132045329Y-70412901D01*
X131984042Y-70264942D01*
X131952800Y-70107875D01*
X131952800Y-69947725D01*
X131984042Y-69790658D01*
X132045329Y-69642699D01*
X132134299Y-69509545D01*
X132247545Y-69396299D01*
X132380699Y-69307329D01*
X132528658Y-69246042D01*
X132685725Y-69214800D01*
X132845875Y-69214800D01*
X133002942Y-69246042D01*
X133002942Y-69246042D01*
G37*
G36*
X117379800Y-70548600D02*
G01*
X114877800Y-70548600D01*
X114877800Y-68846600D01*
X117379800Y-68846600D01*
X117379800Y-70548600D01*
X117379800Y-70548600D01*
G37*
G36*
X124315623Y-68858913D02*
G01*
X124476042Y-68907576D01*
X124608706Y-68978486D01*
X124623878Y-68986596D01*
X124753459Y-69092941D01*
X124859804Y-69222522D01*
X124859805Y-69222524D01*
X124938824Y-69370358D01*
X124987487Y-69530777D01*
X125003917Y-69697600D01*
X124987487Y-69864423D01*
X124938824Y-70024842D01*
X124894442Y-70107874D01*
X124859804Y-70172678D01*
X124753459Y-70302259D01*
X124623878Y-70408604D01*
X124623876Y-70408605D01*
X124476042Y-70487624D01*
X124315623Y-70536287D01*
X124190604Y-70548600D01*
X123306996Y-70548600D01*
X123181977Y-70536287D01*
X123021558Y-70487624D01*
X122873724Y-70408605D01*
X122873722Y-70408604D01*
X122744141Y-70302259D01*
X122637796Y-70172678D01*
X122603158Y-70107874D01*
X122558776Y-70024842D01*
X122510113Y-69864423D01*
X122493683Y-69697600D01*
X122510113Y-69530777D01*
X122558776Y-69370358D01*
X122637795Y-69222524D01*
X122637796Y-69222522D01*
X122744141Y-69092941D01*
X122873722Y-68986596D01*
X122888894Y-68978486D01*
X123021558Y-68907576D01*
X123181977Y-68858913D01*
X123306996Y-68846600D01*
X124190604Y-68846600D01*
X124315623Y-68858913D01*
X124315623Y-68858913D01*
G37*
G36*
X133002942Y-66706042D02*
G01*
X133150901Y-66767329D01*
X133284055Y-66856299D01*
X133397301Y-66969545D01*
X133486271Y-67102699D01*
X133547558Y-67250658D01*
X133578800Y-67407725D01*
X133578800Y-67567875D01*
X133547558Y-67724942D01*
X133486271Y-67872901D01*
X133397301Y-68006055D01*
X133284055Y-68119301D01*
X133150901Y-68208271D01*
X133002942Y-68269558D01*
X132845875Y-68300800D01*
X132685725Y-68300800D01*
X132528658Y-68269558D01*
X132380699Y-68208271D01*
X132247545Y-68119301D01*
X132134299Y-68006055D01*
X132045329Y-67872901D01*
X131984042Y-67724942D01*
X131952800Y-67567875D01*
X131952800Y-67407725D01*
X131984042Y-67250658D01*
X132045329Y-67102699D01*
X132134299Y-66969545D01*
X132247545Y-66856299D01*
X132380699Y-66767329D01*
X132528658Y-66706042D01*
X132685725Y-66674800D01*
X132845875Y-66674800D01*
X133002942Y-66706042D01*
X133002942Y-66706042D01*
G37*
G36*
X133002942Y-64166042D02*
G01*
X133150901Y-64227329D01*
X133284055Y-64316299D01*
X133397301Y-64429545D01*
X133486271Y-64562699D01*
X133547558Y-64710658D01*
X133578800Y-64867725D01*
X133578800Y-65027875D01*
X133547558Y-65184942D01*
X133486271Y-65332901D01*
X133397301Y-65466055D01*
X133284055Y-65579301D01*
X133150901Y-65668271D01*
X133002942Y-65729558D01*
X132845875Y-65760800D01*
X132685725Y-65760800D01*
X132528658Y-65729558D01*
X132380699Y-65668271D01*
X132247545Y-65579301D01*
X132134299Y-65466055D01*
X132045329Y-65332901D01*
X131984042Y-65184942D01*
X131952800Y-65027875D01*
X131952800Y-64867725D01*
X131984042Y-64710658D01*
X132045329Y-64562699D01*
X132134299Y-64429545D01*
X132247545Y-64316299D01*
X132380699Y-64227329D01*
X132528658Y-64166042D01*
X132685725Y-64134800D01*
X132845875Y-64134800D01*
X133002942Y-64166042D01*
X133002942Y-64166042D01*
G37*
G36*
X163482942Y-64166042D02*
G01*
X163630901Y-64227329D01*
X163764055Y-64316299D01*
X163877301Y-64429545D01*
X163966271Y-64562699D01*
X164027558Y-64710658D01*
X164058800Y-64867725D01*
X164058800Y-65027875D01*
X164027558Y-65184942D01*
X163966271Y-65332901D01*
X163877301Y-65466055D01*
X163764055Y-65579301D01*
X163630901Y-65668271D01*
X163482942Y-65729558D01*
X163325875Y-65760800D01*
X163165725Y-65760800D01*
X163008658Y-65729558D01*
X162860699Y-65668271D01*
X162727545Y-65579301D01*
X162614299Y-65466055D01*
X162525329Y-65332901D01*
X162464042Y-65184942D01*
X162432800Y-65027875D01*
X162432800Y-64867725D01*
X162464042Y-64710658D01*
X162525329Y-64562699D01*
X162614299Y-64429545D01*
X162727545Y-64316299D01*
X162860699Y-64227329D01*
X163008658Y-64166042D01*
X163165725Y-64134800D01*
X163325875Y-64134800D01*
X163482942Y-64166042D01*
X163482942Y-64166042D01*
G37*
M02*
