G04 #@! TF.GenerationSoftware,KiCad,Pcbnew,(5.1.4-0-10_14)*
G04 #@! TF.CreationDate,2020-01-10T09:40:25-08:00*
G04 #@! TF.ProjectId,Griduino,47726964-7569-46e6-9f2e-6b696361645f,0*
G04 #@! TF.SameCoordinates,Original*
G04 #@! TF.FileFunction,Legend,Top*
G04 #@! TF.FilePolarity,Positive*
%FSLAX46Y46*%
G04 Gerber Fmt 4.6, Leading zero omitted, Abs format (unit mm)*
G04 Created by KiCad (PCBNEW (5.1.4-0-10_14)) date 2020-01-10 09:40:25*
%MOMM*%
%LPD*%
G04 APERTURE LIST*
%ADD10C,0.120000*%
%ADD11C,0.100000*%
%ADD12C,0.152400*%
%ADD13C,0.150000*%
G04 APERTURE END LIST*
D10*
X104749600Y-91414600D02*
G75*
G03X104749600Y-91414600I-14605000J0D01*
G01*
X130225800Y-87807800D02*
X130225800Y-62407800D01*
X165785800Y-87807800D02*
X130225800Y-87807800D01*
X165785800Y-62407800D02*
X165785800Y-87807800D01*
X130225800Y-62407800D02*
X165785800Y-62407800D01*
X121860000Y-125670000D02*
X123190000Y-125670000D01*
X121860000Y-127000000D02*
X121860000Y-125670000D01*
X121860000Y-128270000D02*
X124520000Y-128270000D01*
X124520000Y-128270000D02*
X124520000Y-128330000D01*
X121860000Y-128270000D02*
X121860000Y-128330000D01*
X121860000Y-128330000D02*
X124520000Y-128330000D01*
D11*
X88204200Y-111020800D02*
X88204200Y-111520800D01*
X88204200Y-111020800D02*
X87704200Y-111020800D01*
X88204200Y-120220800D02*
X88204200Y-119720800D01*
X88204200Y-120220800D02*
X87704200Y-120220800D01*
X82604200Y-116820800D02*
X82604200Y-114420800D01*
X73604200Y-120220800D02*
X74104200Y-120220800D01*
X73604200Y-120220800D02*
X73604200Y-119720800D01*
X73604200Y-111020800D02*
X73604200Y-111520800D01*
X73604200Y-111020800D02*
X74104200Y-111020800D01*
X80904200Y-120220800D02*
X79904200Y-120220800D01*
X80904200Y-111020800D02*
X79904200Y-111020800D01*
D12*
X127254000Y-98099890D02*
X127254000Y-97790000D01*
X127254000Y-100639890D02*
X127254000Y-100020110D01*
X127254000Y-103179890D02*
X127254000Y-102560110D01*
X127254000Y-105719890D02*
X127254000Y-105100110D01*
X119126000Y-107640110D02*
X119126000Y-107950000D01*
X119126000Y-105100110D02*
X119126000Y-105719890D01*
X119126000Y-102560110D02*
X119126000Y-103179890D01*
X119126000Y-100053140D02*
X119126000Y-100639890D01*
X119126000Y-97790000D02*
X119126000Y-98066860D01*
X127254000Y-97790000D02*
X119126000Y-97790000D01*
X127254000Y-107950000D02*
X127254000Y-107640110D01*
X119126000Y-107950000D02*
X127254000Y-107950000D01*
D10*
X135175600Y-115611200D02*
X132235600Y-115611200D01*
X135175600Y-115851200D02*
X132235600Y-115851200D01*
X135175600Y-115731200D02*
X132235600Y-115731200D01*
X133705600Y-121291200D02*
X133705600Y-120271200D01*
X133705600Y-113811200D02*
X133705600Y-114831200D01*
X135175600Y-120271200D02*
X135175600Y-114831200D01*
X132235600Y-120271200D02*
X135175600Y-120271200D01*
X132235600Y-114831200D02*
X132235600Y-120271200D01*
X135175600Y-114831200D02*
X132235600Y-114831200D01*
X129613000Y-115611200D02*
X126673000Y-115611200D01*
X129613000Y-115851200D02*
X126673000Y-115851200D01*
X129613000Y-115731200D02*
X126673000Y-115731200D01*
X128143000Y-121291200D02*
X128143000Y-120271200D01*
X128143000Y-113811200D02*
X128143000Y-114831200D01*
X129613000Y-120271200D02*
X129613000Y-114831200D01*
X126673000Y-120271200D02*
X129613000Y-120271200D01*
X126673000Y-114831200D02*
X126673000Y-120271200D01*
X129613000Y-114831200D02*
X126673000Y-114831200D01*
X108150000Y-130394000D02*
X105210000Y-130394000D01*
X108150000Y-130634000D02*
X105210000Y-130634000D01*
X108150000Y-130514000D02*
X105210000Y-130514000D01*
X106680000Y-136074000D02*
X106680000Y-135054000D01*
X106680000Y-128594000D02*
X106680000Y-129614000D01*
X108150000Y-135054000D02*
X108150000Y-129614000D01*
X105210000Y-135054000D02*
X108150000Y-135054000D01*
X105210000Y-129614000D02*
X105210000Y-135054000D01*
X108150000Y-129614000D02*
X105210000Y-129614000D01*
X127447646Y-90751000D02*
X127447646Y-89751000D01*
X127947646Y-90251000D02*
X126947646Y-90251000D01*
X117387000Y-87975000D02*
X117387000Y-86777000D01*
X117427000Y-88238000D02*
X117427000Y-86514000D01*
X117467000Y-88438000D02*
X117467000Y-86314000D01*
X117507000Y-88606000D02*
X117507000Y-86146000D01*
X117547000Y-88754000D02*
X117547000Y-85998000D01*
X117587000Y-88886000D02*
X117587000Y-85866000D01*
X117627000Y-89006000D02*
X117627000Y-85746000D01*
X117667000Y-89118000D02*
X117667000Y-85634000D01*
X117707000Y-89222000D02*
X117707000Y-85530000D01*
X117747000Y-89320000D02*
X117747000Y-85432000D01*
X117787000Y-89413000D02*
X117787000Y-85339000D01*
X117827000Y-89501000D02*
X117827000Y-85251000D01*
X117867000Y-89585000D02*
X117867000Y-85167000D01*
X117907000Y-89665000D02*
X117907000Y-85087000D01*
X117947000Y-89741000D02*
X117947000Y-85011000D01*
X117987000Y-89815000D02*
X117987000Y-84937000D01*
X118027000Y-89886000D02*
X118027000Y-84866000D01*
X118067000Y-89955000D02*
X118067000Y-84797000D01*
X118107000Y-90021000D02*
X118107000Y-84731000D01*
X118147000Y-90085000D02*
X118147000Y-84667000D01*
X118187000Y-90146000D02*
X118187000Y-84606000D01*
X118227000Y-90206000D02*
X118227000Y-84546000D01*
X118267000Y-90265000D02*
X118267000Y-84487000D01*
X118307000Y-90321000D02*
X118307000Y-84431000D01*
X118347000Y-90376000D02*
X118347000Y-84376000D01*
X118387000Y-90430000D02*
X118387000Y-84322000D01*
X118427000Y-90482000D02*
X118427000Y-84270000D01*
X118467000Y-90532000D02*
X118467000Y-84220000D01*
X118507000Y-90582000D02*
X118507000Y-84170000D01*
X118547000Y-90630000D02*
X118547000Y-84122000D01*
X118587000Y-90677000D02*
X118587000Y-84075000D01*
X118627000Y-90723000D02*
X118627000Y-84029000D01*
X118667000Y-90768000D02*
X118667000Y-83984000D01*
X118707000Y-90812000D02*
X118707000Y-83940000D01*
X118747000Y-86135000D02*
X118747000Y-83898000D01*
X118747000Y-90854000D02*
X118747000Y-88617000D01*
X118787000Y-86135000D02*
X118787000Y-83856000D01*
X118787000Y-90896000D02*
X118787000Y-88617000D01*
X118827000Y-86135000D02*
X118827000Y-83815000D01*
X118827000Y-90937000D02*
X118827000Y-88617000D01*
X118867000Y-86135000D02*
X118867000Y-83775000D01*
X118867000Y-90977000D02*
X118867000Y-88617000D01*
X118907000Y-86135000D02*
X118907000Y-83736000D01*
X118907000Y-91016000D02*
X118907000Y-88617000D01*
X118947000Y-86135000D02*
X118947000Y-83697000D01*
X118947000Y-91055000D02*
X118947000Y-88617000D01*
X118987000Y-86135000D02*
X118987000Y-83660000D01*
X118987000Y-91092000D02*
X118987000Y-88617000D01*
X119027000Y-86135000D02*
X119027000Y-83623000D01*
X119027000Y-91129000D02*
X119027000Y-88617000D01*
X119067000Y-86135000D02*
X119067000Y-83587000D01*
X119067000Y-91165000D02*
X119067000Y-88617000D01*
X119107000Y-86135000D02*
X119107000Y-83552000D01*
X119107000Y-91200000D02*
X119107000Y-88617000D01*
X119147000Y-86135000D02*
X119147000Y-83518000D01*
X119147000Y-91234000D02*
X119147000Y-88617000D01*
X119187000Y-86135000D02*
X119187000Y-83484000D01*
X119187000Y-91268000D02*
X119187000Y-88617000D01*
X119227000Y-86135000D02*
X119227000Y-83451000D01*
X119227000Y-91301000D02*
X119227000Y-88617000D01*
X119267000Y-86135000D02*
X119267000Y-83419000D01*
X119267000Y-91333000D02*
X119267000Y-88617000D01*
X119307000Y-86135000D02*
X119307000Y-83387000D01*
X119307000Y-91365000D02*
X119307000Y-88617000D01*
X119347000Y-86135000D02*
X119347000Y-83356000D01*
X119347000Y-91396000D02*
X119347000Y-88617000D01*
X119387000Y-86135000D02*
X119387000Y-83326000D01*
X119387000Y-91426000D02*
X119387000Y-88617000D01*
X119427000Y-86135000D02*
X119427000Y-83296000D01*
X119427000Y-91456000D02*
X119427000Y-88617000D01*
X119467000Y-86135000D02*
X119467000Y-83266000D01*
X119467000Y-91486000D02*
X119467000Y-88617000D01*
X119507000Y-86135000D02*
X119507000Y-83238000D01*
X119507000Y-91514000D02*
X119507000Y-88617000D01*
X119547000Y-86135000D02*
X119547000Y-83210000D01*
X119547000Y-91542000D02*
X119547000Y-88617000D01*
X119587000Y-86135000D02*
X119587000Y-83182000D01*
X119587000Y-91570000D02*
X119587000Y-88617000D01*
X119627000Y-86135000D02*
X119627000Y-83155000D01*
X119627000Y-91597000D02*
X119627000Y-88617000D01*
X119667000Y-86135000D02*
X119667000Y-83129000D01*
X119667000Y-91623000D02*
X119667000Y-88617000D01*
X119707000Y-86135000D02*
X119707000Y-83103000D01*
X119707000Y-91649000D02*
X119707000Y-88617000D01*
X119747000Y-86135000D02*
X119747000Y-83078000D01*
X119747000Y-91674000D02*
X119747000Y-88617000D01*
X119787000Y-86135000D02*
X119787000Y-83053000D01*
X119787000Y-91699000D02*
X119787000Y-88617000D01*
X119827000Y-86135000D02*
X119827000Y-83029000D01*
X119827000Y-91723000D02*
X119827000Y-88617000D01*
X119867000Y-86135000D02*
X119867000Y-83005000D01*
X119867000Y-91747000D02*
X119867000Y-88617000D01*
X119907000Y-86135000D02*
X119907000Y-82981000D01*
X119907000Y-91771000D02*
X119907000Y-88617000D01*
X119947000Y-86135000D02*
X119947000Y-82959000D01*
X119947000Y-91793000D02*
X119947000Y-88617000D01*
X119987000Y-86135000D02*
X119987000Y-82936000D01*
X119987000Y-91816000D02*
X119987000Y-88617000D01*
X120027000Y-86135000D02*
X120027000Y-82914000D01*
X120027000Y-91838000D02*
X120027000Y-88617000D01*
X120067000Y-86135000D02*
X120067000Y-82893000D01*
X120067000Y-91859000D02*
X120067000Y-88617000D01*
X120107000Y-86135000D02*
X120107000Y-82872000D01*
X120107000Y-91880000D02*
X120107000Y-88617000D01*
X120147000Y-86135000D02*
X120147000Y-82851000D01*
X120147000Y-91901000D02*
X120147000Y-88617000D01*
X120187000Y-86135000D02*
X120187000Y-82831000D01*
X120187000Y-91921000D02*
X120187000Y-88617000D01*
X120227000Y-86135000D02*
X120227000Y-82812000D01*
X120227000Y-91940000D02*
X120227000Y-88617000D01*
X120267000Y-86135000D02*
X120267000Y-82792000D01*
X120267000Y-91960000D02*
X120267000Y-88617000D01*
X120307000Y-86135000D02*
X120307000Y-82773000D01*
X120307000Y-91979000D02*
X120307000Y-88617000D01*
X120347000Y-86135000D02*
X120347000Y-82755000D01*
X120347000Y-91997000D02*
X120347000Y-88617000D01*
X120387000Y-86135000D02*
X120387000Y-82737000D01*
X120387000Y-92015000D02*
X120387000Y-88617000D01*
X120427000Y-86135000D02*
X120427000Y-82719000D01*
X120427000Y-92033000D02*
X120427000Y-88617000D01*
X120467000Y-86135000D02*
X120467000Y-82702000D01*
X120467000Y-92050000D02*
X120467000Y-88617000D01*
X120507000Y-86135000D02*
X120507000Y-82686000D01*
X120507000Y-92066000D02*
X120507000Y-88617000D01*
X120547000Y-86135000D02*
X120547000Y-82669000D01*
X120547000Y-92083000D02*
X120547000Y-88617000D01*
X120587000Y-86135000D02*
X120587000Y-82653000D01*
X120587000Y-92099000D02*
X120587000Y-88617000D01*
X120627000Y-86135000D02*
X120627000Y-82638000D01*
X120627000Y-92114000D02*
X120627000Y-88617000D01*
X120667000Y-86135000D02*
X120667000Y-82622000D01*
X120667000Y-92130000D02*
X120667000Y-88617000D01*
X120707000Y-86135000D02*
X120707000Y-82608000D01*
X120707000Y-92144000D02*
X120707000Y-88617000D01*
X120747000Y-86135000D02*
X120747000Y-82593000D01*
X120747000Y-92159000D02*
X120747000Y-88617000D01*
X120787000Y-86135000D02*
X120787000Y-82579000D01*
X120787000Y-92173000D02*
X120787000Y-88617000D01*
X120827000Y-86135000D02*
X120827000Y-82565000D01*
X120827000Y-92187000D02*
X120827000Y-88617000D01*
X120867000Y-86135000D02*
X120867000Y-82552000D01*
X120867000Y-92200000D02*
X120867000Y-88617000D01*
X120907000Y-86135000D02*
X120907000Y-82539000D01*
X120907000Y-92213000D02*
X120907000Y-88617000D01*
X120947000Y-86135000D02*
X120947000Y-82526000D01*
X120947000Y-92226000D02*
X120947000Y-88617000D01*
X120987000Y-86135000D02*
X120987000Y-82514000D01*
X120987000Y-92238000D02*
X120987000Y-88617000D01*
X121027000Y-86135000D02*
X121027000Y-82502000D01*
X121027000Y-92250000D02*
X121027000Y-88617000D01*
X121067000Y-86135000D02*
X121067000Y-82491000D01*
X121067000Y-92261000D02*
X121067000Y-88617000D01*
X121107000Y-86135000D02*
X121107000Y-82479000D01*
X121107000Y-92273000D02*
X121107000Y-88617000D01*
X121147000Y-86135000D02*
X121147000Y-82469000D01*
X121147000Y-92283000D02*
X121147000Y-88617000D01*
X121187000Y-86135000D02*
X121187000Y-82458000D01*
X121187000Y-92294000D02*
X121187000Y-88617000D01*
X121227000Y-92304000D02*
X121227000Y-82448000D01*
X121267000Y-92314000D02*
X121267000Y-82438000D01*
X121307000Y-92323000D02*
X121307000Y-82429000D01*
X121347000Y-92332000D02*
X121347000Y-82420000D01*
X121387000Y-92341000D02*
X121387000Y-82411000D01*
X121427000Y-92350000D02*
X121427000Y-82402000D01*
X121467000Y-92358000D02*
X121467000Y-82394000D01*
X121507000Y-92366000D02*
X121507000Y-82386000D01*
X121547000Y-92373000D02*
X121547000Y-82379000D01*
X121587000Y-92380000D02*
X121587000Y-82372000D01*
X121627000Y-92387000D02*
X121627000Y-82365000D01*
X121667000Y-92394000D02*
X121667000Y-82358000D01*
X121707000Y-92400000D02*
X121707000Y-82352000D01*
X121747000Y-92406000D02*
X121747000Y-82346000D01*
X121788000Y-92411000D02*
X121788000Y-82341000D01*
X121828000Y-92416000D02*
X121828000Y-82336000D01*
X121868000Y-92421000D02*
X121868000Y-82331000D01*
X121908000Y-92426000D02*
X121908000Y-82326000D01*
X121948000Y-92430000D02*
X121948000Y-82322000D01*
X121988000Y-92434000D02*
X121988000Y-82318000D01*
X122028000Y-92438000D02*
X122028000Y-82314000D01*
X122068000Y-92441000D02*
X122068000Y-82311000D01*
X122108000Y-92444000D02*
X122108000Y-82308000D01*
X122148000Y-92446000D02*
X122148000Y-82306000D01*
X122188000Y-92449000D02*
X122188000Y-82303000D01*
X122228000Y-92451000D02*
X122228000Y-82301000D01*
X122268000Y-92453000D02*
X122268000Y-82299000D01*
X122308000Y-92454000D02*
X122308000Y-82298000D01*
X122348000Y-92455000D02*
X122348000Y-82297000D01*
X122388000Y-92456000D02*
X122388000Y-82296000D01*
X122428000Y-92456000D02*
X122428000Y-82296000D01*
X122468000Y-92456000D02*
X122468000Y-82296000D01*
X127588000Y-87376000D02*
G75*
G03X127588000Y-87376000I-5120000J0D01*
G01*
X127060354Y-131245000D02*
X127060354Y-132245000D01*
X126560354Y-131745000D02*
X127560354Y-131745000D01*
X137121000Y-134021000D02*
X137121000Y-135219000D01*
X137081000Y-133758000D02*
X137081000Y-135482000D01*
X137041000Y-133558000D02*
X137041000Y-135682000D01*
X137001000Y-133390000D02*
X137001000Y-135850000D01*
X136961000Y-133242000D02*
X136961000Y-135998000D01*
X136921000Y-133110000D02*
X136921000Y-136130000D01*
X136881000Y-132990000D02*
X136881000Y-136250000D01*
X136841000Y-132878000D02*
X136841000Y-136362000D01*
X136801000Y-132774000D02*
X136801000Y-136466000D01*
X136761000Y-132676000D02*
X136761000Y-136564000D01*
X136721000Y-132583000D02*
X136721000Y-136657000D01*
X136681000Y-132495000D02*
X136681000Y-136745000D01*
X136641000Y-132411000D02*
X136641000Y-136829000D01*
X136601000Y-132331000D02*
X136601000Y-136909000D01*
X136561000Y-132255000D02*
X136561000Y-136985000D01*
X136521000Y-132181000D02*
X136521000Y-137059000D01*
X136481000Y-132110000D02*
X136481000Y-137130000D01*
X136441000Y-132041000D02*
X136441000Y-137199000D01*
X136401000Y-131975000D02*
X136401000Y-137265000D01*
X136361000Y-131911000D02*
X136361000Y-137329000D01*
X136321000Y-131850000D02*
X136321000Y-137390000D01*
X136281000Y-131790000D02*
X136281000Y-137450000D01*
X136241000Y-131731000D02*
X136241000Y-137509000D01*
X136201000Y-131675000D02*
X136201000Y-137565000D01*
X136161000Y-131620000D02*
X136161000Y-137620000D01*
X136121000Y-131566000D02*
X136121000Y-137674000D01*
X136081000Y-131514000D02*
X136081000Y-137726000D01*
X136041000Y-131464000D02*
X136041000Y-137776000D01*
X136001000Y-131414000D02*
X136001000Y-137826000D01*
X135961000Y-131366000D02*
X135961000Y-137874000D01*
X135921000Y-131319000D02*
X135921000Y-137921000D01*
X135881000Y-131273000D02*
X135881000Y-137967000D01*
X135841000Y-131228000D02*
X135841000Y-138012000D01*
X135801000Y-131184000D02*
X135801000Y-138056000D01*
X135761000Y-135861000D02*
X135761000Y-138098000D01*
X135761000Y-131142000D02*
X135761000Y-133379000D01*
X135721000Y-135861000D02*
X135721000Y-138140000D01*
X135721000Y-131100000D02*
X135721000Y-133379000D01*
X135681000Y-135861000D02*
X135681000Y-138181000D01*
X135681000Y-131059000D02*
X135681000Y-133379000D01*
X135641000Y-135861000D02*
X135641000Y-138221000D01*
X135641000Y-131019000D02*
X135641000Y-133379000D01*
X135601000Y-135861000D02*
X135601000Y-138260000D01*
X135601000Y-130980000D02*
X135601000Y-133379000D01*
X135561000Y-135861000D02*
X135561000Y-138299000D01*
X135561000Y-130941000D02*
X135561000Y-133379000D01*
X135521000Y-135861000D02*
X135521000Y-138336000D01*
X135521000Y-130904000D02*
X135521000Y-133379000D01*
X135481000Y-135861000D02*
X135481000Y-138373000D01*
X135481000Y-130867000D02*
X135481000Y-133379000D01*
X135441000Y-135861000D02*
X135441000Y-138409000D01*
X135441000Y-130831000D02*
X135441000Y-133379000D01*
X135401000Y-135861000D02*
X135401000Y-138444000D01*
X135401000Y-130796000D02*
X135401000Y-133379000D01*
X135361000Y-135861000D02*
X135361000Y-138478000D01*
X135361000Y-130762000D02*
X135361000Y-133379000D01*
X135321000Y-135861000D02*
X135321000Y-138512000D01*
X135321000Y-130728000D02*
X135321000Y-133379000D01*
X135281000Y-135861000D02*
X135281000Y-138545000D01*
X135281000Y-130695000D02*
X135281000Y-133379000D01*
X135241000Y-135861000D02*
X135241000Y-138577000D01*
X135241000Y-130663000D02*
X135241000Y-133379000D01*
X135201000Y-135861000D02*
X135201000Y-138609000D01*
X135201000Y-130631000D02*
X135201000Y-133379000D01*
X135161000Y-135861000D02*
X135161000Y-138640000D01*
X135161000Y-130600000D02*
X135161000Y-133379000D01*
X135121000Y-135861000D02*
X135121000Y-138670000D01*
X135121000Y-130570000D02*
X135121000Y-133379000D01*
X135081000Y-135861000D02*
X135081000Y-138700000D01*
X135081000Y-130540000D02*
X135081000Y-133379000D01*
X135041000Y-135861000D02*
X135041000Y-138730000D01*
X135041000Y-130510000D02*
X135041000Y-133379000D01*
X135001000Y-135861000D02*
X135001000Y-138758000D01*
X135001000Y-130482000D02*
X135001000Y-133379000D01*
X134961000Y-135861000D02*
X134961000Y-138786000D01*
X134961000Y-130454000D02*
X134961000Y-133379000D01*
X134921000Y-135861000D02*
X134921000Y-138814000D01*
X134921000Y-130426000D02*
X134921000Y-133379000D01*
X134881000Y-135861000D02*
X134881000Y-138841000D01*
X134881000Y-130399000D02*
X134881000Y-133379000D01*
X134841000Y-135861000D02*
X134841000Y-138867000D01*
X134841000Y-130373000D02*
X134841000Y-133379000D01*
X134801000Y-135861000D02*
X134801000Y-138893000D01*
X134801000Y-130347000D02*
X134801000Y-133379000D01*
X134761000Y-135861000D02*
X134761000Y-138918000D01*
X134761000Y-130322000D02*
X134761000Y-133379000D01*
X134721000Y-135861000D02*
X134721000Y-138943000D01*
X134721000Y-130297000D02*
X134721000Y-133379000D01*
X134681000Y-135861000D02*
X134681000Y-138967000D01*
X134681000Y-130273000D02*
X134681000Y-133379000D01*
X134641000Y-135861000D02*
X134641000Y-138991000D01*
X134641000Y-130249000D02*
X134641000Y-133379000D01*
X134601000Y-135861000D02*
X134601000Y-139015000D01*
X134601000Y-130225000D02*
X134601000Y-133379000D01*
X134561000Y-135861000D02*
X134561000Y-139037000D01*
X134561000Y-130203000D02*
X134561000Y-133379000D01*
X134521000Y-135861000D02*
X134521000Y-139060000D01*
X134521000Y-130180000D02*
X134521000Y-133379000D01*
X134481000Y-135861000D02*
X134481000Y-139082000D01*
X134481000Y-130158000D02*
X134481000Y-133379000D01*
X134441000Y-135861000D02*
X134441000Y-139103000D01*
X134441000Y-130137000D02*
X134441000Y-133379000D01*
X134401000Y-135861000D02*
X134401000Y-139124000D01*
X134401000Y-130116000D02*
X134401000Y-133379000D01*
X134361000Y-135861000D02*
X134361000Y-139145000D01*
X134361000Y-130095000D02*
X134361000Y-133379000D01*
X134321000Y-135861000D02*
X134321000Y-139165000D01*
X134321000Y-130075000D02*
X134321000Y-133379000D01*
X134281000Y-135861000D02*
X134281000Y-139184000D01*
X134281000Y-130056000D02*
X134281000Y-133379000D01*
X134241000Y-135861000D02*
X134241000Y-139204000D01*
X134241000Y-130036000D02*
X134241000Y-133379000D01*
X134201000Y-135861000D02*
X134201000Y-139223000D01*
X134201000Y-130017000D02*
X134201000Y-133379000D01*
X134161000Y-135861000D02*
X134161000Y-139241000D01*
X134161000Y-129999000D02*
X134161000Y-133379000D01*
X134121000Y-135861000D02*
X134121000Y-139259000D01*
X134121000Y-129981000D02*
X134121000Y-133379000D01*
X134081000Y-135861000D02*
X134081000Y-139277000D01*
X134081000Y-129963000D02*
X134081000Y-133379000D01*
X134041000Y-135861000D02*
X134041000Y-139294000D01*
X134041000Y-129946000D02*
X134041000Y-133379000D01*
X134001000Y-135861000D02*
X134001000Y-139310000D01*
X134001000Y-129930000D02*
X134001000Y-133379000D01*
X133961000Y-135861000D02*
X133961000Y-139327000D01*
X133961000Y-129913000D02*
X133961000Y-133379000D01*
X133921000Y-135861000D02*
X133921000Y-139343000D01*
X133921000Y-129897000D02*
X133921000Y-133379000D01*
X133881000Y-135861000D02*
X133881000Y-139358000D01*
X133881000Y-129882000D02*
X133881000Y-133379000D01*
X133841000Y-135861000D02*
X133841000Y-139374000D01*
X133841000Y-129866000D02*
X133841000Y-133379000D01*
X133801000Y-135861000D02*
X133801000Y-139388000D01*
X133801000Y-129852000D02*
X133801000Y-133379000D01*
X133761000Y-135861000D02*
X133761000Y-139403000D01*
X133761000Y-129837000D02*
X133761000Y-133379000D01*
X133721000Y-135861000D02*
X133721000Y-139417000D01*
X133721000Y-129823000D02*
X133721000Y-133379000D01*
X133681000Y-135861000D02*
X133681000Y-139431000D01*
X133681000Y-129809000D02*
X133681000Y-133379000D01*
X133641000Y-135861000D02*
X133641000Y-139444000D01*
X133641000Y-129796000D02*
X133641000Y-133379000D01*
X133601000Y-135861000D02*
X133601000Y-139457000D01*
X133601000Y-129783000D02*
X133601000Y-133379000D01*
X133561000Y-135861000D02*
X133561000Y-139470000D01*
X133561000Y-129770000D02*
X133561000Y-133379000D01*
X133521000Y-135861000D02*
X133521000Y-139482000D01*
X133521000Y-129758000D02*
X133521000Y-133379000D01*
X133481000Y-135861000D02*
X133481000Y-139494000D01*
X133481000Y-129746000D02*
X133481000Y-133379000D01*
X133441000Y-135861000D02*
X133441000Y-139505000D01*
X133441000Y-129735000D02*
X133441000Y-133379000D01*
X133401000Y-135861000D02*
X133401000Y-139517000D01*
X133401000Y-129723000D02*
X133401000Y-133379000D01*
X133361000Y-135861000D02*
X133361000Y-139527000D01*
X133361000Y-129713000D02*
X133361000Y-133379000D01*
X133321000Y-135861000D02*
X133321000Y-139538000D01*
X133321000Y-129702000D02*
X133321000Y-133379000D01*
X133281000Y-129692000D02*
X133281000Y-139548000D01*
X133241000Y-129682000D02*
X133241000Y-139558000D01*
X133201000Y-129673000D02*
X133201000Y-139567000D01*
X133161000Y-129664000D02*
X133161000Y-139576000D01*
X133121000Y-129655000D02*
X133121000Y-139585000D01*
X133081000Y-129646000D02*
X133081000Y-139594000D01*
X133041000Y-129638000D02*
X133041000Y-139602000D01*
X133001000Y-129630000D02*
X133001000Y-139610000D01*
X132961000Y-129623000D02*
X132961000Y-139617000D01*
X132921000Y-129616000D02*
X132921000Y-139624000D01*
X132881000Y-129609000D02*
X132881000Y-139631000D01*
X132841000Y-129602000D02*
X132841000Y-139638000D01*
X132801000Y-129596000D02*
X132801000Y-139644000D01*
X132761000Y-129590000D02*
X132761000Y-139650000D01*
X132720000Y-129585000D02*
X132720000Y-139655000D01*
X132680000Y-129580000D02*
X132680000Y-139660000D01*
X132640000Y-129575000D02*
X132640000Y-139665000D01*
X132600000Y-129570000D02*
X132600000Y-139670000D01*
X132560000Y-129566000D02*
X132560000Y-139674000D01*
X132520000Y-129562000D02*
X132520000Y-139678000D01*
X132480000Y-129558000D02*
X132480000Y-139682000D01*
X132440000Y-129555000D02*
X132440000Y-139685000D01*
X132400000Y-129552000D02*
X132400000Y-139688000D01*
X132360000Y-129550000D02*
X132360000Y-139690000D01*
X132320000Y-129547000D02*
X132320000Y-139693000D01*
X132280000Y-129545000D02*
X132280000Y-139695000D01*
X132240000Y-129543000D02*
X132240000Y-139697000D01*
X132200000Y-129542000D02*
X132200000Y-139698000D01*
X132160000Y-129541000D02*
X132160000Y-139699000D01*
X132120000Y-129540000D02*
X132120000Y-139700000D01*
X132080000Y-129540000D02*
X132080000Y-139700000D01*
X132040000Y-129540000D02*
X132040000Y-139700000D01*
X137160000Y-134620000D02*
G75*
G03X137160000Y-134620000I-5120000J0D01*
G01*
X102320754Y-69777000D02*
X102320754Y-70777000D01*
X101820754Y-70277000D02*
X102820754Y-70277000D01*
X112381400Y-72553000D02*
X112381400Y-73751000D01*
X112341400Y-72290000D02*
X112341400Y-74014000D01*
X112301400Y-72090000D02*
X112301400Y-74214000D01*
X112261400Y-71922000D02*
X112261400Y-74382000D01*
X112221400Y-71774000D02*
X112221400Y-74530000D01*
X112181400Y-71642000D02*
X112181400Y-74662000D01*
X112141400Y-71522000D02*
X112141400Y-74782000D01*
X112101400Y-71410000D02*
X112101400Y-74894000D01*
X112061400Y-71306000D02*
X112061400Y-74998000D01*
X112021400Y-71208000D02*
X112021400Y-75096000D01*
X111981400Y-71115000D02*
X111981400Y-75189000D01*
X111941400Y-71027000D02*
X111941400Y-75277000D01*
X111901400Y-70943000D02*
X111901400Y-75361000D01*
X111861400Y-70863000D02*
X111861400Y-75441000D01*
X111821400Y-70787000D02*
X111821400Y-75517000D01*
X111781400Y-70713000D02*
X111781400Y-75591000D01*
X111741400Y-70642000D02*
X111741400Y-75662000D01*
X111701400Y-70573000D02*
X111701400Y-75731000D01*
X111661400Y-70507000D02*
X111661400Y-75797000D01*
X111621400Y-70443000D02*
X111621400Y-75861000D01*
X111581400Y-70382000D02*
X111581400Y-75922000D01*
X111541400Y-70322000D02*
X111541400Y-75982000D01*
X111501400Y-70263000D02*
X111501400Y-76041000D01*
X111461400Y-70207000D02*
X111461400Y-76097000D01*
X111421400Y-70152000D02*
X111421400Y-76152000D01*
X111381400Y-70098000D02*
X111381400Y-76206000D01*
X111341400Y-70046000D02*
X111341400Y-76258000D01*
X111301400Y-69996000D02*
X111301400Y-76308000D01*
X111261400Y-69946000D02*
X111261400Y-76358000D01*
X111221400Y-69898000D02*
X111221400Y-76406000D01*
X111181400Y-69851000D02*
X111181400Y-76453000D01*
X111141400Y-69805000D02*
X111141400Y-76499000D01*
X111101400Y-69760000D02*
X111101400Y-76544000D01*
X111061400Y-69716000D02*
X111061400Y-76588000D01*
X111021400Y-74393000D02*
X111021400Y-76630000D01*
X111021400Y-69674000D02*
X111021400Y-71911000D01*
X110981400Y-74393000D02*
X110981400Y-76672000D01*
X110981400Y-69632000D02*
X110981400Y-71911000D01*
X110941400Y-74393000D02*
X110941400Y-76713000D01*
X110941400Y-69591000D02*
X110941400Y-71911000D01*
X110901400Y-74393000D02*
X110901400Y-76753000D01*
X110901400Y-69551000D02*
X110901400Y-71911000D01*
X110861400Y-74393000D02*
X110861400Y-76792000D01*
X110861400Y-69512000D02*
X110861400Y-71911000D01*
X110821400Y-74393000D02*
X110821400Y-76831000D01*
X110821400Y-69473000D02*
X110821400Y-71911000D01*
X110781400Y-74393000D02*
X110781400Y-76868000D01*
X110781400Y-69436000D02*
X110781400Y-71911000D01*
X110741400Y-74393000D02*
X110741400Y-76905000D01*
X110741400Y-69399000D02*
X110741400Y-71911000D01*
X110701400Y-74393000D02*
X110701400Y-76941000D01*
X110701400Y-69363000D02*
X110701400Y-71911000D01*
X110661400Y-74393000D02*
X110661400Y-76976000D01*
X110661400Y-69328000D02*
X110661400Y-71911000D01*
X110621400Y-74393000D02*
X110621400Y-77010000D01*
X110621400Y-69294000D02*
X110621400Y-71911000D01*
X110581400Y-74393000D02*
X110581400Y-77044000D01*
X110581400Y-69260000D02*
X110581400Y-71911000D01*
X110541400Y-74393000D02*
X110541400Y-77077000D01*
X110541400Y-69227000D02*
X110541400Y-71911000D01*
X110501400Y-74393000D02*
X110501400Y-77109000D01*
X110501400Y-69195000D02*
X110501400Y-71911000D01*
X110461400Y-74393000D02*
X110461400Y-77141000D01*
X110461400Y-69163000D02*
X110461400Y-71911000D01*
X110421400Y-74393000D02*
X110421400Y-77172000D01*
X110421400Y-69132000D02*
X110421400Y-71911000D01*
X110381400Y-74393000D02*
X110381400Y-77202000D01*
X110381400Y-69102000D02*
X110381400Y-71911000D01*
X110341400Y-74393000D02*
X110341400Y-77232000D01*
X110341400Y-69072000D02*
X110341400Y-71911000D01*
X110301400Y-74393000D02*
X110301400Y-77262000D01*
X110301400Y-69042000D02*
X110301400Y-71911000D01*
X110261400Y-74393000D02*
X110261400Y-77290000D01*
X110261400Y-69014000D02*
X110261400Y-71911000D01*
X110221400Y-74393000D02*
X110221400Y-77318000D01*
X110221400Y-68986000D02*
X110221400Y-71911000D01*
X110181400Y-74393000D02*
X110181400Y-77346000D01*
X110181400Y-68958000D02*
X110181400Y-71911000D01*
X110141400Y-74393000D02*
X110141400Y-77373000D01*
X110141400Y-68931000D02*
X110141400Y-71911000D01*
X110101400Y-74393000D02*
X110101400Y-77399000D01*
X110101400Y-68905000D02*
X110101400Y-71911000D01*
X110061400Y-74393000D02*
X110061400Y-77425000D01*
X110061400Y-68879000D02*
X110061400Y-71911000D01*
X110021400Y-74393000D02*
X110021400Y-77450000D01*
X110021400Y-68854000D02*
X110021400Y-71911000D01*
X109981400Y-74393000D02*
X109981400Y-77475000D01*
X109981400Y-68829000D02*
X109981400Y-71911000D01*
X109941400Y-74393000D02*
X109941400Y-77499000D01*
X109941400Y-68805000D02*
X109941400Y-71911000D01*
X109901400Y-74393000D02*
X109901400Y-77523000D01*
X109901400Y-68781000D02*
X109901400Y-71911000D01*
X109861400Y-74393000D02*
X109861400Y-77547000D01*
X109861400Y-68757000D02*
X109861400Y-71911000D01*
X109821400Y-74393000D02*
X109821400Y-77569000D01*
X109821400Y-68735000D02*
X109821400Y-71911000D01*
X109781400Y-74393000D02*
X109781400Y-77592000D01*
X109781400Y-68712000D02*
X109781400Y-71911000D01*
X109741400Y-74393000D02*
X109741400Y-77614000D01*
X109741400Y-68690000D02*
X109741400Y-71911000D01*
X109701400Y-74393000D02*
X109701400Y-77635000D01*
X109701400Y-68669000D02*
X109701400Y-71911000D01*
X109661400Y-74393000D02*
X109661400Y-77656000D01*
X109661400Y-68648000D02*
X109661400Y-71911000D01*
X109621400Y-74393000D02*
X109621400Y-77677000D01*
X109621400Y-68627000D02*
X109621400Y-71911000D01*
X109581400Y-74393000D02*
X109581400Y-77697000D01*
X109581400Y-68607000D02*
X109581400Y-71911000D01*
X109541400Y-74393000D02*
X109541400Y-77716000D01*
X109541400Y-68588000D02*
X109541400Y-71911000D01*
X109501400Y-74393000D02*
X109501400Y-77736000D01*
X109501400Y-68568000D02*
X109501400Y-71911000D01*
X109461400Y-74393000D02*
X109461400Y-77755000D01*
X109461400Y-68549000D02*
X109461400Y-71911000D01*
X109421400Y-74393000D02*
X109421400Y-77773000D01*
X109421400Y-68531000D02*
X109421400Y-71911000D01*
X109381400Y-74393000D02*
X109381400Y-77791000D01*
X109381400Y-68513000D02*
X109381400Y-71911000D01*
X109341400Y-74393000D02*
X109341400Y-77809000D01*
X109341400Y-68495000D02*
X109341400Y-71911000D01*
X109301400Y-74393000D02*
X109301400Y-77826000D01*
X109301400Y-68478000D02*
X109301400Y-71911000D01*
X109261400Y-74393000D02*
X109261400Y-77842000D01*
X109261400Y-68462000D02*
X109261400Y-71911000D01*
X109221400Y-74393000D02*
X109221400Y-77859000D01*
X109221400Y-68445000D02*
X109221400Y-71911000D01*
X109181400Y-74393000D02*
X109181400Y-77875000D01*
X109181400Y-68429000D02*
X109181400Y-71911000D01*
X109141400Y-74393000D02*
X109141400Y-77890000D01*
X109141400Y-68414000D02*
X109141400Y-71911000D01*
X109101400Y-74393000D02*
X109101400Y-77906000D01*
X109101400Y-68398000D02*
X109101400Y-71911000D01*
X109061400Y-74393000D02*
X109061400Y-77920000D01*
X109061400Y-68384000D02*
X109061400Y-71911000D01*
X109021400Y-74393000D02*
X109021400Y-77935000D01*
X109021400Y-68369000D02*
X109021400Y-71911000D01*
X108981400Y-74393000D02*
X108981400Y-77949000D01*
X108981400Y-68355000D02*
X108981400Y-71911000D01*
X108941400Y-74393000D02*
X108941400Y-77963000D01*
X108941400Y-68341000D02*
X108941400Y-71911000D01*
X108901400Y-74393000D02*
X108901400Y-77976000D01*
X108901400Y-68328000D02*
X108901400Y-71911000D01*
X108861400Y-74393000D02*
X108861400Y-77989000D01*
X108861400Y-68315000D02*
X108861400Y-71911000D01*
X108821400Y-74393000D02*
X108821400Y-78002000D01*
X108821400Y-68302000D02*
X108821400Y-71911000D01*
X108781400Y-74393000D02*
X108781400Y-78014000D01*
X108781400Y-68290000D02*
X108781400Y-71911000D01*
X108741400Y-74393000D02*
X108741400Y-78026000D01*
X108741400Y-68278000D02*
X108741400Y-71911000D01*
X108701400Y-74393000D02*
X108701400Y-78037000D01*
X108701400Y-68267000D02*
X108701400Y-71911000D01*
X108661400Y-74393000D02*
X108661400Y-78049000D01*
X108661400Y-68255000D02*
X108661400Y-71911000D01*
X108621400Y-74393000D02*
X108621400Y-78059000D01*
X108621400Y-68245000D02*
X108621400Y-71911000D01*
X108581400Y-74393000D02*
X108581400Y-78070000D01*
X108581400Y-68234000D02*
X108581400Y-71911000D01*
X108541400Y-68224000D02*
X108541400Y-78080000D01*
X108501400Y-68214000D02*
X108501400Y-78090000D01*
X108461400Y-68205000D02*
X108461400Y-78099000D01*
X108421400Y-68196000D02*
X108421400Y-78108000D01*
X108381400Y-68187000D02*
X108381400Y-78117000D01*
X108341400Y-68178000D02*
X108341400Y-78126000D01*
X108301400Y-68170000D02*
X108301400Y-78134000D01*
X108261400Y-68162000D02*
X108261400Y-78142000D01*
X108221400Y-68155000D02*
X108221400Y-78149000D01*
X108181400Y-68148000D02*
X108181400Y-78156000D01*
X108141400Y-68141000D02*
X108141400Y-78163000D01*
X108101400Y-68134000D02*
X108101400Y-78170000D01*
X108061400Y-68128000D02*
X108061400Y-78176000D01*
X108021400Y-68122000D02*
X108021400Y-78182000D01*
X107980400Y-68117000D02*
X107980400Y-78187000D01*
X107940400Y-68112000D02*
X107940400Y-78192000D01*
X107900400Y-68107000D02*
X107900400Y-78197000D01*
X107860400Y-68102000D02*
X107860400Y-78202000D01*
X107820400Y-68098000D02*
X107820400Y-78206000D01*
X107780400Y-68094000D02*
X107780400Y-78210000D01*
X107740400Y-68090000D02*
X107740400Y-78214000D01*
X107700400Y-68087000D02*
X107700400Y-78217000D01*
X107660400Y-68084000D02*
X107660400Y-78220000D01*
X107620400Y-68082000D02*
X107620400Y-78222000D01*
X107580400Y-68079000D02*
X107580400Y-78225000D01*
X107540400Y-68077000D02*
X107540400Y-78227000D01*
X107500400Y-68075000D02*
X107500400Y-78229000D01*
X107460400Y-68074000D02*
X107460400Y-78230000D01*
X107420400Y-68073000D02*
X107420400Y-78231000D01*
X107380400Y-68072000D02*
X107380400Y-78232000D01*
X107340400Y-68072000D02*
X107340400Y-78232000D01*
X107300400Y-68072000D02*
X107300400Y-78232000D01*
X112420400Y-73152000D02*
G75*
G03X112420400Y-73152000I-5120000J0D01*
G01*
X118945000Y-129600354D02*
X117945000Y-129600354D01*
X118445000Y-129100354D02*
X118445000Y-130100354D01*
X116169000Y-139661000D02*
X114971000Y-139661000D01*
X116432000Y-139621000D02*
X114708000Y-139621000D01*
X116632000Y-139581000D02*
X114508000Y-139581000D01*
X116800000Y-139541000D02*
X114340000Y-139541000D01*
X116948000Y-139501000D02*
X114192000Y-139501000D01*
X117080000Y-139461000D02*
X114060000Y-139461000D01*
X117200000Y-139421000D02*
X113940000Y-139421000D01*
X117312000Y-139381000D02*
X113828000Y-139381000D01*
X117416000Y-139341000D02*
X113724000Y-139341000D01*
X117514000Y-139301000D02*
X113626000Y-139301000D01*
X117607000Y-139261000D02*
X113533000Y-139261000D01*
X117695000Y-139221000D02*
X113445000Y-139221000D01*
X117779000Y-139181000D02*
X113361000Y-139181000D01*
X117859000Y-139141000D02*
X113281000Y-139141000D01*
X117935000Y-139101000D02*
X113205000Y-139101000D01*
X118009000Y-139061000D02*
X113131000Y-139061000D01*
X118080000Y-139021000D02*
X113060000Y-139021000D01*
X118149000Y-138981000D02*
X112991000Y-138981000D01*
X118215000Y-138941000D02*
X112925000Y-138941000D01*
X118279000Y-138901000D02*
X112861000Y-138901000D01*
X118340000Y-138861000D02*
X112800000Y-138861000D01*
X118400000Y-138821000D02*
X112740000Y-138821000D01*
X118459000Y-138781000D02*
X112681000Y-138781000D01*
X118515000Y-138741000D02*
X112625000Y-138741000D01*
X118570000Y-138701000D02*
X112570000Y-138701000D01*
X118624000Y-138661000D02*
X112516000Y-138661000D01*
X118676000Y-138621000D02*
X112464000Y-138621000D01*
X118726000Y-138581000D02*
X112414000Y-138581000D01*
X118776000Y-138541000D02*
X112364000Y-138541000D01*
X118824000Y-138501000D02*
X112316000Y-138501000D01*
X118871000Y-138461000D02*
X112269000Y-138461000D01*
X118917000Y-138421000D02*
X112223000Y-138421000D01*
X118962000Y-138381000D02*
X112178000Y-138381000D01*
X119006000Y-138341000D02*
X112134000Y-138341000D01*
X114329000Y-138301000D02*
X112092000Y-138301000D01*
X119048000Y-138301000D02*
X116811000Y-138301000D01*
X114329000Y-138261000D02*
X112050000Y-138261000D01*
X119090000Y-138261000D02*
X116811000Y-138261000D01*
X114329000Y-138221000D02*
X112009000Y-138221000D01*
X119131000Y-138221000D02*
X116811000Y-138221000D01*
X114329000Y-138181000D02*
X111969000Y-138181000D01*
X119171000Y-138181000D02*
X116811000Y-138181000D01*
X114329000Y-138141000D02*
X111930000Y-138141000D01*
X119210000Y-138141000D02*
X116811000Y-138141000D01*
X114329000Y-138101000D02*
X111891000Y-138101000D01*
X119249000Y-138101000D02*
X116811000Y-138101000D01*
X114329000Y-138061000D02*
X111854000Y-138061000D01*
X119286000Y-138061000D02*
X116811000Y-138061000D01*
X114329000Y-138021000D02*
X111817000Y-138021000D01*
X119323000Y-138021000D02*
X116811000Y-138021000D01*
X114329000Y-137981000D02*
X111781000Y-137981000D01*
X119359000Y-137981000D02*
X116811000Y-137981000D01*
X114329000Y-137941000D02*
X111746000Y-137941000D01*
X119394000Y-137941000D02*
X116811000Y-137941000D01*
X114329000Y-137901000D02*
X111712000Y-137901000D01*
X119428000Y-137901000D02*
X116811000Y-137901000D01*
X114329000Y-137861000D02*
X111678000Y-137861000D01*
X119462000Y-137861000D02*
X116811000Y-137861000D01*
X114329000Y-137821000D02*
X111645000Y-137821000D01*
X119495000Y-137821000D02*
X116811000Y-137821000D01*
X114329000Y-137781000D02*
X111613000Y-137781000D01*
X119527000Y-137781000D02*
X116811000Y-137781000D01*
X114329000Y-137741000D02*
X111581000Y-137741000D01*
X119559000Y-137741000D02*
X116811000Y-137741000D01*
X114329000Y-137701000D02*
X111550000Y-137701000D01*
X119590000Y-137701000D02*
X116811000Y-137701000D01*
X114329000Y-137661000D02*
X111520000Y-137661000D01*
X119620000Y-137661000D02*
X116811000Y-137661000D01*
X114329000Y-137621000D02*
X111490000Y-137621000D01*
X119650000Y-137621000D02*
X116811000Y-137621000D01*
X114329000Y-137581000D02*
X111460000Y-137581000D01*
X119680000Y-137581000D02*
X116811000Y-137581000D01*
X114329000Y-137541000D02*
X111432000Y-137541000D01*
X119708000Y-137541000D02*
X116811000Y-137541000D01*
X114329000Y-137501000D02*
X111404000Y-137501000D01*
X119736000Y-137501000D02*
X116811000Y-137501000D01*
X114329000Y-137461000D02*
X111376000Y-137461000D01*
X119764000Y-137461000D02*
X116811000Y-137461000D01*
X114329000Y-137421000D02*
X111349000Y-137421000D01*
X119791000Y-137421000D02*
X116811000Y-137421000D01*
X114329000Y-137381000D02*
X111323000Y-137381000D01*
X119817000Y-137381000D02*
X116811000Y-137381000D01*
X114329000Y-137341000D02*
X111297000Y-137341000D01*
X119843000Y-137341000D02*
X116811000Y-137341000D01*
X114329000Y-137301000D02*
X111272000Y-137301000D01*
X119868000Y-137301000D02*
X116811000Y-137301000D01*
X114329000Y-137261000D02*
X111247000Y-137261000D01*
X119893000Y-137261000D02*
X116811000Y-137261000D01*
X114329000Y-137221000D02*
X111223000Y-137221000D01*
X119917000Y-137221000D02*
X116811000Y-137221000D01*
X114329000Y-137181000D02*
X111199000Y-137181000D01*
X119941000Y-137181000D02*
X116811000Y-137181000D01*
X114329000Y-137141000D02*
X111175000Y-137141000D01*
X119965000Y-137141000D02*
X116811000Y-137141000D01*
X114329000Y-137101000D02*
X111153000Y-137101000D01*
X119987000Y-137101000D02*
X116811000Y-137101000D01*
X114329000Y-137061000D02*
X111130000Y-137061000D01*
X120010000Y-137061000D02*
X116811000Y-137061000D01*
X114329000Y-137021000D02*
X111108000Y-137021000D01*
X120032000Y-137021000D02*
X116811000Y-137021000D01*
X114329000Y-136981000D02*
X111087000Y-136981000D01*
X120053000Y-136981000D02*
X116811000Y-136981000D01*
X114329000Y-136941000D02*
X111066000Y-136941000D01*
X120074000Y-136941000D02*
X116811000Y-136941000D01*
X114329000Y-136901000D02*
X111045000Y-136901000D01*
X120095000Y-136901000D02*
X116811000Y-136901000D01*
X114329000Y-136861000D02*
X111025000Y-136861000D01*
X120115000Y-136861000D02*
X116811000Y-136861000D01*
X114329000Y-136821000D02*
X111006000Y-136821000D01*
X120134000Y-136821000D02*
X116811000Y-136821000D01*
X114329000Y-136781000D02*
X110986000Y-136781000D01*
X120154000Y-136781000D02*
X116811000Y-136781000D01*
X114329000Y-136741000D02*
X110967000Y-136741000D01*
X120173000Y-136741000D02*
X116811000Y-136741000D01*
X114329000Y-136701000D02*
X110949000Y-136701000D01*
X120191000Y-136701000D02*
X116811000Y-136701000D01*
X114329000Y-136661000D02*
X110931000Y-136661000D01*
X120209000Y-136661000D02*
X116811000Y-136661000D01*
X114329000Y-136621000D02*
X110913000Y-136621000D01*
X120227000Y-136621000D02*
X116811000Y-136621000D01*
X114329000Y-136581000D02*
X110896000Y-136581000D01*
X120244000Y-136581000D02*
X116811000Y-136581000D01*
X114329000Y-136541000D02*
X110880000Y-136541000D01*
X120260000Y-136541000D02*
X116811000Y-136541000D01*
X114329000Y-136501000D02*
X110863000Y-136501000D01*
X120277000Y-136501000D02*
X116811000Y-136501000D01*
X114329000Y-136461000D02*
X110847000Y-136461000D01*
X120293000Y-136461000D02*
X116811000Y-136461000D01*
X114329000Y-136421000D02*
X110832000Y-136421000D01*
X120308000Y-136421000D02*
X116811000Y-136421000D01*
X114329000Y-136381000D02*
X110816000Y-136381000D01*
X120324000Y-136381000D02*
X116811000Y-136381000D01*
X114329000Y-136341000D02*
X110802000Y-136341000D01*
X120338000Y-136341000D02*
X116811000Y-136341000D01*
X114329000Y-136301000D02*
X110787000Y-136301000D01*
X120353000Y-136301000D02*
X116811000Y-136301000D01*
X114329000Y-136261000D02*
X110773000Y-136261000D01*
X120367000Y-136261000D02*
X116811000Y-136261000D01*
X114329000Y-136221000D02*
X110759000Y-136221000D01*
X120381000Y-136221000D02*
X116811000Y-136221000D01*
X114329000Y-136181000D02*
X110746000Y-136181000D01*
X120394000Y-136181000D02*
X116811000Y-136181000D01*
X114329000Y-136141000D02*
X110733000Y-136141000D01*
X120407000Y-136141000D02*
X116811000Y-136141000D01*
X114329000Y-136101000D02*
X110720000Y-136101000D01*
X120420000Y-136101000D02*
X116811000Y-136101000D01*
X114329000Y-136061000D02*
X110708000Y-136061000D01*
X120432000Y-136061000D02*
X116811000Y-136061000D01*
X114329000Y-136021000D02*
X110696000Y-136021000D01*
X120444000Y-136021000D02*
X116811000Y-136021000D01*
X114329000Y-135981000D02*
X110685000Y-135981000D01*
X120455000Y-135981000D02*
X116811000Y-135981000D01*
X114329000Y-135941000D02*
X110673000Y-135941000D01*
X120467000Y-135941000D02*
X116811000Y-135941000D01*
X114329000Y-135901000D02*
X110663000Y-135901000D01*
X120477000Y-135901000D02*
X116811000Y-135901000D01*
X114329000Y-135861000D02*
X110652000Y-135861000D01*
X120488000Y-135861000D02*
X116811000Y-135861000D01*
X120498000Y-135821000D02*
X110642000Y-135821000D01*
X120508000Y-135781000D02*
X110632000Y-135781000D01*
X120517000Y-135741000D02*
X110623000Y-135741000D01*
X120526000Y-135701000D02*
X110614000Y-135701000D01*
X120535000Y-135661000D02*
X110605000Y-135661000D01*
X120544000Y-135621000D02*
X110596000Y-135621000D01*
X120552000Y-135581000D02*
X110588000Y-135581000D01*
X120560000Y-135541000D02*
X110580000Y-135541000D01*
X120567000Y-135501000D02*
X110573000Y-135501000D01*
X120574000Y-135461000D02*
X110566000Y-135461000D01*
X120581000Y-135421000D02*
X110559000Y-135421000D01*
X120588000Y-135381000D02*
X110552000Y-135381000D01*
X120594000Y-135341000D02*
X110546000Y-135341000D01*
X120600000Y-135301000D02*
X110540000Y-135301000D01*
X120605000Y-135260000D02*
X110535000Y-135260000D01*
X120610000Y-135220000D02*
X110530000Y-135220000D01*
X120615000Y-135180000D02*
X110525000Y-135180000D01*
X120620000Y-135140000D02*
X110520000Y-135140000D01*
X120624000Y-135100000D02*
X110516000Y-135100000D01*
X120628000Y-135060000D02*
X110512000Y-135060000D01*
X120632000Y-135020000D02*
X110508000Y-135020000D01*
X120635000Y-134980000D02*
X110505000Y-134980000D01*
X120638000Y-134940000D02*
X110502000Y-134940000D01*
X120640000Y-134900000D02*
X110500000Y-134900000D01*
X120643000Y-134860000D02*
X110497000Y-134860000D01*
X120645000Y-134820000D02*
X110495000Y-134820000D01*
X120647000Y-134780000D02*
X110493000Y-134780000D01*
X120648000Y-134740000D02*
X110492000Y-134740000D01*
X120649000Y-134700000D02*
X110491000Y-134700000D01*
X120650000Y-134660000D02*
X110490000Y-134660000D01*
X120650000Y-134620000D02*
X110490000Y-134620000D01*
X120650000Y-134580000D02*
X110490000Y-134580000D01*
X120690000Y-134580000D02*
G75*
G03X120690000Y-134580000I-5120000J0D01*
G01*
X141030000Y-128330000D02*
X139700000Y-128330000D01*
X141030000Y-127000000D02*
X141030000Y-128330000D01*
X141030000Y-125730000D02*
X138370000Y-125730000D01*
X138370000Y-125730000D02*
X138370000Y-97730000D01*
X141030000Y-125730000D02*
X141030000Y-97730000D01*
X141030000Y-97730000D02*
X138370000Y-97730000D01*
X161350000Y-138490000D02*
X160020000Y-138490000D01*
X161350000Y-137160000D02*
X161350000Y-138490000D01*
X161350000Y-135890000D02*
X158690000Y-135890000D01*
X158690000Y-135890000D02*
X158690000Y-97730000D01*
X161350000Y-135890000D02*
X161350000Y-97730000D01*
X161350000Y-97730000D02*
X158690000Y-97730000D01*
X106580000Y-95980000D02*
X106910000Y-95980000D01*
X106580000Y-89440000D02*
X106580000Y-95980000D01*
X106910000Y-89440000D02*
X106580000Y-89440000D01*
X109320000Y-95980000D02*
X108990000Y-95980000D01*
X109320000Y-89440000D02*
X109320000Y-95980000D01*
X108990000Y-89440000D02*
X109320000Y-89440000D01*
X106580000Y-108680000D02*
X106910000Y-108680000D01*
X106580000Y-102140000D02*
X106580000Y-108680000D01*
X106910000Y-102140000D02*
X106580000Y-102140000D01*
X109320000Y-108680000D02*
X108990000Y-108680000D01*
X109320000Y-102140000D02*
X109320000Y-108680000D01*
X108990000Y-102140000D02*
X109320000Y-102140000D01*
X122188800Y-68367600D02*
X120938800Y-68367600D01*
X122188800Y-78647600D02*
X122188800Y-68367600D01*
X117688800Y-78647600D02*
X122188800Y-78647600D01*
X117688800Y-68367600D02*
X117688800Y-78647600D01*
X118938800Y-68367600D02*
X117688800Y-68367600D01*
X120938800Y-68367600D02*
G75*
G02X118938800Y-68367600I-1000000J0D01*
G01*
X115670000Y-89440000D02*
X115340000Y-89440000D01*
X115670000Y-95980000D02*
X115670000Y-89440000D01*
X115340000Y-95980000D02*
X115670000Y-95980000D01*
X112930000Y-89440000D02*
X113260000Y-89440000D01*
X112930000Y-95980000D02*
X112930000Y-89440000D01*
X113260000Y-95980000D02*
X112930000Y-95980000D01*
D12*
X111252000Y-83185000D02*
G75*
G03X109220000Y-81153000I-2032000J0D01*
G01*
X109220000Y-85217000D02*
G75*
G03X111252000Y-83185000I0J2032000D01*
G01*
X111252000Y-81915000D02*
G75*
G03X107188000Y-81915000I-2032000J0D01*
G01*
X107188000Y-81788000D02*
X107188000Y-83312000D01*
X111252000Y-81788000D02*
X111252000Y-83312000D01*
X109855000Y-79121000D02*
X108585000Y-79121000D01*
X109220000Y-78486000D02*
X109220000Y-79756000D01*
D10*
X170180000Y-76140000D02*
X171510000Y-76140000D01*
X171510000Y-76140000D02*
X171510000Y-77470000D01*
X171510000Y-78740000D02*
X171510000Y-127060000D01*
X168850000Y-127060000D02*
X171510000Y-127060000D01*
X168850000Y-78740000D02*
X168850000Y-127060000D01*
X168850000Y-78740000D02*
X171510000Y-78740000D01*
D12*
X120472200Y-119329200D02*
G75*
G03X122504200Y-121361200I2032000J0D01*
G01*
X122504200Y-117297200D02*
G75*
G03X120472200Y-119329200I0J-2032000D01*
G01*
X120472200Y-120599200D02*
G75*
G03X124536200Y-120599200I2032000J0D01*
G01*
X124536200Y-120726200D02*
X124536200Y-119202200D01*
X120472200Y-120726200D02*
X120472200Y-119202200D01*
X121869200Y-123393200D02*
X123139200Y-123393200D01*
X122504200Y-124028200D02*
X122504200Y-122758200D01*
X104622600Y-119354600D02*
G75*
G03X106654600Y-121386600I2032000J0D01*
G01*
X106654600Y-117322600D02*
G75*
G03X104622600Y-119354600I0J-2032000D01*
G01*
X104622600Y-120624600D02*
G75*
G03X108686600Y-120624600I2032000J0D01*
G01*
X108686600Y-120751600D02*
X108686600Y-119227600D01*
X104622600Y-120751600D02*
X104622600Y-119227600D01*
X106019600Y-123418600D02*
X107289600Y-123418600D01*
X106654600Y-124053600D02*
X106654600Y-122783600D01*
X99123500Y-121386600D02*
X93865700Y-121386600D01*
X99123500Y-134137400D02*
X99123500Y-121386600D01*
X93865700Y-134137400D02*
X99123500Y-134137400D01*
X93865700Y-121386600D02*
X93865700Y-134137400D01*
X97129600Y-116408200D02*
X95859600Y-116408200D01*
X96494600Y-115773200D02*
X96494600Y-116964460D01*
D11*
X118684400Y-116293000D02*
X118284400Y-116293000D01*
X118684400Y-116593000D02*
X118684400Y-116293000D01*
X118684400Y-122713000D02*
X118384400Y-122713000D01*
X118684400Y-122313000D02*
X118684400Y-122713000D01*
X111744400Y-122373000D02*
X112054400Y-122673000D01*
X111744400Y-121993000D02*
X111744400Y-122373000D01*
X111744400Y-116293000D02*
X111744400Y-116593000D01*
X112044400Y-116293000D02*
X111744400Y-116293000D01*
X112054400Y-122673000D02*
X112054400Y-123173000D01*
D13*
X147243895Y-74560180D02*
X147243895Y-75369704D01*
X147291514Y-75464942D01*
X147339133Y-75512561D01*
X147434371Y-75560180D01*
X147624847Y-75560180D01*
X147720085Y-75512561D01*
X147767704Y-75464942D01*
X147815323Y-75369704D01*
X147815323Y-74560180D01*
X148767704Y-74560180D02*
X148291514Y-74560180D01*
X148243895Y-75036371D01*
X148291514Y-74988752D01*
X148386752Y-74941133D01*
X148624847Y-74941133D01*
X148720085Y-74988752D01*
X148767704Y-75036371D01*
X148815323Y-75131609D01*
X148815323Y-75369704D01*
X148767704Y-75464942D01*
X148720085Y-75512561D01*
X148624847Y-75560180D01*
X148386752Y-75560180D01*
X148291514Y-75512561D01*
X148243895Y-75464942D01*
X80362466Y-108494580D02*
X80362466Y-109208866D01*
X80314847Y-109351723D01*
X80219609Y-109446961D01*
X80076752Y-109494580D01*
X79981514Y-109494580D01*
X81362466Y-109494580D02*
X80791038Y-109494580D01*
X81076752Y-109494580D02*
X81076752Y-108494580D01*
X80981514Y-108637438D01*
X80886276Y-108732676D01*
X80791038Y-108780295D01*
X122580495Y-95413580D02*
X122580495Y-96223104D01*
X122628114Y-96318342D01*
X122675733Y-96365961D01*
X122770971Y-96413580D01*
X122961447Y-96413580D01*
X123056685Y-96365961D01*
X123104304Y-96318342D01*
X123151923Y-96223104D01*
X123151923Y-95413580D01*
X124151923Y-96413580D02*
X123580495Y-96413580D01*
X123866209Y-96413580D02*
X123866209Y-95413580D01*
X123770971Y-95556438D01*
X123675733Y-95651676D01*
X123580495Y-95699295D01*
X119380000Y-97089980D02*
X119380000Y-97328076D01*
X119141904Y-97232838D02*
X119380000Y-97328076D01*
X119618095Y-97232838D01*
X119237142Y-97518552D02*
X119380000Y-97328076D01*
X119522857Y-97518552D01*
X119380000Y-97089980D02*
X119380000Y-97328076D01*
X119141904Y-97232838D02*
X119380000Y-97328076D01*
X119618095Y-97232838D01*
X119237142Y-97518552D02*
X119380000Y-97328076D01*
X119522857Y-97518552D01*
X136627980Y-118289295D02*
X135627980Y-118289295D01*
X135627980Y-118051200D01*
X135675600Y-117908342D01*
X135770838Y-117813104D01*
X135866076Y-117765485D01*
X136056552Y-117717866D01*
X136199409Y-117717866D01*
X136389885Y-117765485D01*
X136485123Y-117813104D01*
X136580361Y-117908342D01*
X136627980Y-118051200D01*
X136627980Y-118289295D01*
X135627980Y-117384533D02*
X135627980Y-116765485D01*
X136008933Y-117098819D01*
X136008933Y-116955961D01*
X136056552Y-116860723D01*
X136104171Y-116813104D01*
X136199409Y-116765485D01*
X136437504Y-116765485D01*
X136532742Y-116813104D01*
X136580361Y-116860723D01*
X136627980Y-116955961D01*
X136627980Y-117241676D01*
X136580361Y-117336914D01*
X136532742Y-117384533D01*
X131065380Y-118289295D02*
X130065380Y-118289295D01*
X130065380Y-118051200D01*
X130113000Y-117908342D01*
X130208238Y-117813104D01*
X130303476Y-117765485D01*
X130493952Y-117717866D01*
X130636809Y-117717866D01*
X130827285Y-117765485D01*
X130922523Y-117813104D01*
X131017761Y-117908342D01*
X131065380Y-118051200D01*
X131065380Y-118289295D01*
X130160619Y-117336914D02*
X130113000Y-117289295D01*
X130065380Y-117194057D01*
X130065380Y-116955961D01*
X130113000Y-116860723D01*
X130160619Y-116813104D01*
X130255857Y-116765485D01*
X130351095Y-116765485D01*
X130493952Y-116813104D01*
X131065380Y-117384533D01*
X131065380Y-116765485D01*
X109602380Y-133072095D02*
X108602380Y-133072095D01*
X108602380Y-132834000D01*
X108650000Y-132691142D01*
X108745238Y-132595904D01*
X108840476Y-132548285D01*
X109030952Y-132500666D01*
X109173809Y-132500666D01*
X109364285Y-132548285D01*
X109459523Y-132595904D01*
X109554761Y-132691142D01*
X109602380Y-132834000D01*
X109602380Y-133072095D01*
X109602380Y-131548285D02*
X109602380Y-132119714D01*
X109602380Y-131834000D02*
X108602380Y-131834000D01*
X108745238Y-131929238D01*
X108840476Y-132024476D01*
X108888095Y-132119714D01*
X122301333Y-93983142D02*
X122253714Y-94030761D01*
X122110857Y-94078380D01*
X122015619Y-94078380D01*
X121872761Y-94030761D01*
X121777523Y-93935523D01*
X121729904Y-93840285D01*
X121682285Y-93649809D01*
X121682285Y-93506952D01*
X121729904Y-93316476D01*
X121777523Y-93221238D01*
X121872761Y-93126000D01*
X122015619Y-93078380D01*
X122110857Y-93078380D01*
X122253714Y-93126000D01*
X122301333Y-93173619D01*
X122872761Y-93506952D02*
X122777523Y-93459333D01*
X122729904Y-93411714D01*
X122682285Y-93316476D01*
X122682285Y-93268857D01*
X122729904Y-93173619D01*
X122777523Y-93126000D01*
X122872761Y-93078380D01*
X123063238Y-93078380D01*
X123158476Y-93126000D01*
X123206095Y-93173619D01*
X123253714Y-93268857D01*
X123253714Y-93316476D01*
X123206095Y-93411714D01*
X123158476Y-93459333D01*
X123063238Y-93506952D01*
X122872761Y-93506952D01*
X122777523Y-93554571D01*
X122729904Y-93602190D01*
X122682285Y-93697428D01*
X122682285Y-93887904D01*
X122729904Y-93983142D01*
X122777523Y-94030761D01*
X122872761Y-94078380D01*
X123063238Y-94078380D01*
X123158476Y-94030761D01*
X123206095Y-93983142D01*
X123253714Y-93887904D01*
X123253714Y-93697428D01*
X123206095Y-93602190D01*
X123158476Y-93554571D01*
X123063238Y-93506952D01*
X131873333Y-128727142D02*
X131825714Y-128774761D01*
X131682857Y-128822380D01*
X131587619Y-128822380D01*
X131444761Y-128774761D01*
X131349523Y-128679523D01*
X131301904Y-128584285D01*
X131254285Y-128393809D01*
X131254285Y-128250952D01*
X131301904Y-128060476D01*
X131349523Y-127965238D01*
X131444761Y-127870000D01*
X131587619Y-127822380D01*
X131682857Y-127822380D01*
X131825714Y-127870000D01*
X131873333Y-127917619D01*
X132778095Y-127822380D02*
X132301904Y-127822380D01*
X132254285Y-128298571D01*
X132301904Y-128250952D01*
X132397142Y-128203333D01*
X132635238Y-128203333D01*
X132730476Y-128250952D01*
X132778095Y-128298571D01*
X132825714Y-128393809D01*
X132825714Y-128631904D01*
X132778095Y-128727142D01*
X132730476Y-128774761D01*
X132635238Y-128822380D01*
X132397142Y-128822380D01*
X132301904Y-128774761D01*
X132254285Y-128727142D01*
X107133733Y-67259142D02*
X107086114Y-67306761D01*
X106943257Y-67354380D01*
X106848019Y-67354380D01*
X106705161Y-67306761D01*
X106609923Y-67211523D01*
X106562304Y-67116285D01*
X106514685Y-66925809D01*
X106514685Y-66782952D01*
X106562304Y-66592476D01*
X106609923Y-66497238D01*
X106705161Y-66402000D01*
X106848019Y-66354380D01*
X106943257Y-66354380D01*
X107086114Y-66402000D01*
X107133733Y-66449619D01*
X107990876Y-66687714D02*
X107990876Y-67354380D01*
X107752780Y-66306761D02*
X107514685Y-67021047D01*
X108133733Y-67021047D01*
X122177142Y-134746666D02*
X122224761Y-134794285D01*
X122272380Y-134937142D01*
X122272380Y-135032380D01*
X122224761Y-135175238D01*
X122129523Y-135270476D01*
X122034285Y-135318095D01*
X121843809Y-135365714D01*
X121700952Y-135365714D01*
X121510476Y-135318095D01*
X121415238Y-135270476D01*
X121320000Y-135175238D01*
X121272380Y-135032380D01*
X121272380Y-134937142D01*
X121320000Y-134794285D01*
X121367619Y-134746666D01*
X122272380Y-133794285D02*
X122272380Y-134365714D01*
X122272380Y-134080000D02*
X121272380Y-134080000D01*
X121415238Y-134175238D01*
X121510476Y-134270476D01*
X121558095Y-134365714D01*
X139290466Y-129551180D02*
X139290466Y-130265466D01*
X139242847Y-130408323D01*
X139147609Y-130503561D01*
X139004752Y-130551180D01*
X138909514Y-130551180D01*
X140242847Y-129551180D02*
X139766657Y-129551180D01*
X139719038Y-130027371D01*
X139766657Y-129979752D01*
X139861895Y-129932133D01*
X140099990Y-129932133D01*
X140195228Y-129979752D01*
X140242847Y-130027371D01*
X140290466Y-130122609D01*
X140290466Y-130360704D01*
X140242847Y-130455942D01*
X140195228Y-130503561D01*
X140099990Y-130551180D01*
X139861895Y-130551180D01*
X139766657Y-130503561D01*
X139719038Y-130455942D01*
X159737466Y-139685780D02*
X159737466Y-140400066D01*
X159689847Y-140542923D01*
X159594609Y-140638161D01*
X159451752Y-140685780D01*
X159356514Y-140685780D01*
X160166038Y-139781019D02*
X160213657Y-139733400D01*
X160308895Y-139685780D01*
X160546990Y-139685780D01*
X160642228Y-139733400D01*
X160689847Y-139781019D01*
X160737466Y-139876257D01*
X160737466Y-139971495D01*
X160689847Y-140114352D01*
X160118419Y-140685780D01*
X160737466Y-140685780D01*
X110772380Y-92876666D02*
X110296190Y-93210000D01*
X110772380Y-93448095D02*
X109772380Y-93448095D01*
X109772380Y-93067142D01*
X109820000Y-92971904D01*
X109867619Y-92924285D01*
X109962857Y-92876666D01*
X110105714Y-92876666D01*
X110200952Y-92924285D01*
X110248571Y-92971904D01*
X110296190Y-93067142D01*
X110296190Y-93448095D01*
X109772380Y-92019523D02*
X109772380Y-92210000D01*
X109820000Y-92305238D01*
X109867619Y-92352857D01*
X110010476Y-92448095D01*
X110200952Y-92495714D01*
X110581904Y-92495714D01*
X110677142Y-92448095D01*
X110724761Y-92400476D01*
X110772380Y-92305238D01*
X110772380Y-92114761D01*
X110724761Y-92019523D01*
X110677142Y-91971904D01*
X110581904Y-91924285D01*
X110343809Y-91924285D01*
X110248571Y-91971904D01*
X110200952Y-92019523D01*
X110153333Y-92114761D01*
X110153333Y-92305238D01*
X110200952Y-92400476D01*
X110248571Y-92448095D01*
X110343809Y-92495714D01*
X110772380Y-105576666D02*
X110296190Y-105910000D01*
X110772380Y-106148095D02*
X109772380Y-106148095D01*
X109772380Y-105767142D01*
X109820000Y-105671904D01*
X109867619Y-105624285D01*
X109962857Y-105576666D01*
X110105714Y-105576666D01*
X110200952Y-105624285D01*
X110248571Y-105671904D01*
X110296190Y-105767142D01*
X110296190Y-106148095D01*
X109772380Y-104671904D02*
X109772380Y-105148095D01*
X110248571Y-105195714D01*
X110200952Y-105148095D01*
X110153333Y-105052857D01*
X110153333Y-104814761D01*
X110200952Y-104719523D01*
X110248571Y-104671904D01*
X110343809Y-104624285D01*
X110581904Y-104624285D01*
X110677142Y-104671904D01*
X110724761Y-104719523D01*
X110772380Y-104814761D01*
X110772380Y-105052857D01*
X110724761Y-105148095D01*
X110677142Y-105195714D01*
X119202295Y-65441580D02*
X119202295Y-66251104D01*
X119249914Y-66346342D01*
X119297533Y-66393961D01*
X119392771Y-66441580D01*
X119583247Y-66441580D01*
X119678485Y-66393961D01*
X119726104Y-66346342D01*
X119773723Y-66251104D01*
X119773723Y-65441580D01*
X120678485Y-65441580D02*
X120488009Y-65441580D01*
X120392771Y-65489200D01*
X120345152Y-65536819D01*
X120249914Y-65679676D01*
X120202295Y-65870152D01*
X120202295Y-66251104D01*
X120249914Y-66346342D01*
X120297533Y-66393961D01*
X120392771Y-66441580D01*
X120583247Y-66441580D01*
X120678485Y-66393961D01*
X120726104Y-66346342D01*
X120773723Y-66251104D01*
X120773723Y-66013009D01*
X120726104Y-65917771D01*
X120678485Y-65870152D01*
X120583247Y-65822533D01*
X120392771Y-65822533D01*
X120297533Y-65870152D01*
X120249914Y-65917771D01*
X120202295Y-66013009D01*
X112382380Y-92876666D02*
X111906190Y-93210000D01*
X112382380Y-93448095D02*
X111382380Y-93448095D01*
X111382380Y-93067142D01*
X111430000Y-92971904D01*
X111477619Y-92924285D01*
X111572857Y-92876666D01*
X111715714Y-92876666D01*
X111810952Y-92924285D01*
X111858571Y-92971904D01*
X111906190Y-93067142D01*
X111906190Y-93448095D01*
X111715714Y-92019523D02*
X112382380Y-92019523D01*
X111334761Y-92257619D02*
X112049047Y-92495714D01*
X112049047Y-91876666D01*
X113590342Y-83021466D02*
X113637961Y-83069085D01*
X113685580Y-83211942D01*
X113685580Y-83307180D01*
X113637961Y-83450038D01*
X113542723Y-83545276D01*
X113447485Y-83592895D01*
X113257009Y-83640514D01*
X113114152Y-83640514D01*
X112923676Y-83592895D01*
X112828438Y-83545276D01*
X112733200Y-83450038D01*
X112685580Y-83307180D01*
X112685580Y-83211942D01*
X112733200Y-83069085D01*
X112780819Y-83021466D01*
X112685580Y-82688133D02*
X112685580Y-82021466D01*
X113685580Y-82450038D01*
X108672380Y-83820000D02*
X108910476Y-83820000D01*
X108815238Y-84058095D02*
X108910476Y-83820000D01*
X108815238Y-83581904D01*
X109100952Y-83962857D02*
X108910476Y-83820000D01*
X109100952Y-83677142D01*
X108672380Y-83820000D02*
X108910476Y-83820000D01*
X108815238Y-84058095D02*
X108910476Y-83820000D01*
X108815238Y-83581904D01*
X109100952Y-83962857D02*
X108910476Y-83820000D01*
X109100952Y-83677142D01*
X173224866Y-76871580D02*
X173224866Y-77585866D01*
X173177247Y-77728723D01*
X173082009Y-77823961D01*
X172939152Y-77871580D01*
X172843914Y-77871580D01*
X174129628Y-77204914D02*
X174129628Y-77871580D01*
X173891533Y-76823961D02*
X173653438Y-77538247D01*
X174272485Y-77538247D01*
X121956533Y-115444542D02*
X121908914Y-115492161D01*
X121766057Y-115539780D01*
X121670819Y-115539780D01*
X121527961Y-115492161D01*
X121432723Y-115396923D01*
X121385104Y-115301685D01*
X121337485Y-115111209D01*
X121337485Y-114968352D01*
X121385104Y-114777876D01*
X121432723Y-114682638D01*
X121527961Y-114587400D01*
X121670819Y-114539780D01*
X121766057Y-114539780D01*
X121908914Y-114587400D01*
X121956533Y-114635019D01*
X122289866Y-114539780D02*
X122908914Y-114539780D01*
X122575580Y-114920733D01*
X122718438Y-114920733D01*
X122813676Y-114968352D01*
X122861295Y-115015971D01*
X122908914Y-115111209D01*
X122908914Y-115349304D01*
X122861295Y-115444542D01*
X122813676Y-115492161D01*
X122718438Y-115539780D01*
X122432723Y-115539780D01*
X122337485Y-115492161D01*
X122289866Y-115444542D01*
X121956580Y-118694200D02*
X122194676Y-118694200D01*
X122099438Y-118932295D02*
X122194676Y-118694200D01*
X122099438Y-118456104D01*
X122385152Y-118837057D02*
X122194676Y-118694200D01*
X122385152Y-118551342D01*
X121956580Y-118694200D02*
X122194676Y-118694200D01*
X122099438Y-118932295D02*
X122194676Y-118694200D01*
X122099438Y-118456104D01*
X122385152Y-118837057D02*
X122194676Y-118694200D01*
X122385152Y-118551342D01*
X106386333Y-114987342D02*
X106338714Y-115034961D01*
X106195857Y-115082580D01*
X106100619Y-115082580D01*
X105957761Y-115034961D01*
X105862523Y-114939723D01*
X105814904Y-114844485D01*
X105767285Y-114654009D01*
X105767285Y-114511152D01*
X105814904Y-114320676D01*
X105862523Y-114225438D01*
X105957761Y-114130200D01*
X106100619Y-114082580D01*
X106195857Y-114082580D01*
X106338714Y-114130200D01*
X106386333Y-114177819D01*
X106767285Y-114177819D02*
X106814904Y-114130200D01*
X106910142Y-114082580D01*
X107148238Y-114082580D01*
X107243476Y-114130200D01*
X107291095Y-114177819D01*
X107338714Y-114273057D01*
X107338714Y-114368295D01*
X107291095Y-114511152D01*
X106719666Y-115082580D01*
X107338714Y-115082580D01*
X106106980Y-118719600D02*
X106345076Y-118719600D01*
X106249838Y-118957695D02*
X106345076Y-118719600D01*
X106249838Y-118481504D01*
X106535552Y-118862457D02*
X106345076Y-118719600D01*
X106535552Y-118576742D01*
X106106980Y-118719600D02*
X106345076Y-118719600D01*
X106249838Y-118957695D02*
X106345076Y-118719600D01*
X106249838Y-118481504D01*
X106535552Y-118862457D02*
X106345076Y-118719600D01*
X106535552Y-118576742D01*
X96327933Y-128214380D02*
X95994600Y-127738190D01*
X95756504Y-128214380D02*
X95756504Y-127214380D01*
X96137457Y-127214380D01*
X96232695Y-127262000D01*
X96280314Y-127309619D01*
X96327933Y-127404857D01*
X96327933Y-127547714D01*
X96280314Y-127642952D01*
X96232695Y-127690571D01*
X96137457Y-127738190D01*
X95756504Y-127738190D01*
X97280314Y-128214380D02*
X96708885Y-128214380D01*
X96994600Y-128214380D02*
X96994600Y-127214380D01*
X96899361Y-127357238D01*
X96804123Y-127452476D01*
X96708885Y-127500095D01*
X95946980Y-137414000D02*
X96185076Y-137414000D01*
X96089838Y-137652095D02*
X96185076Y-137414000D01*
X96089838Y-137175904D01*
X96375552Y-137556857D02*
X96185076Y-137414000D01*
X96375552Y-137271142D01*
X95946980Y-137414000D02*
X96185076Y-137414000D01*
X96089838Y-137652095D02*
X96185076Y-137414000D01*
X96089838Y-137175904D01*
X96375552Y-137556857D02*
X96185076Y-137414000D01*
X96375552Y-137271142D01*
X114071495Y-113599980D02*
X114071495Y-114409504D01*
X114119114Y-114504742D01*
X114166733Y-114552361D01*
X114261971Y-114599980D01*
X114452447Y-114599980D01*
X114547685Y-114552361D01*
X114595304Y-114504742D01*
X114642923Y-114409504D01*
X114642923Y-113599980D01*
X115023876Y-113599980D02*
X115642923Y-113599980D01*
X115309590Y-113980933D01*
X115452447Y-113980933D01*
X115547685Y-114028552D01*
X115595304Y-114076171D01*
X115642923Y-114171409D01*
X115642923Y-114409504D01*
X115595304Y-114504742D01*
X115547685Y-114552361D01*
X115452447Y-114599980D01*
X115166733Y-114599980D01*
X115071495Y-114552361D01*
X115023876Y-114504742D01*
M02*
