G04 #@! TF.GenerationSoftware,KiCad,Pcbnew,(5.1.4-0-10_14)*
G04 #@! TF.CreationDate,2020-01-10T09:40:25-08:00*
G04 #@! TF.ProjectId,Griduino,47726964-7569-46e6-9f2e-6b696361645f,0*
G04 #@! TF.SameCoordinates,Original*
G04 #@! TF.FileFunction,Copper,L4,Bot*
G04 #@! TF.FilePolarity,Positive*
%FSLAX46Y46*%
G04 Gerber Fmt 4.6, Leading zero omitted, Abs format (unit mm)*
G04 Created by KiCad (PCBNEW (5.1.4-0-10_14)) date 2020-01-10 09:40:25*
%MOMM*%
%LPD*%
G04 APERTURE LIST*
%ADD10C,0.100000*%
%ADD11C,1.524000*%
%ADD12R,1.700000X1.700000*%
%ADD13R,2.000000X2.600000*%
%ADD14R,2.600000X2.000000*%
%ADD15C,1.320800*%
%ADD16R,1.320800X1.320800*%
%ADD17O,2.200000X2.200000*%
%ADD18R,2.200000X2.200000*%
%ADD19C,2.000000*%
%ADD20R,2.000000X2.000000*%
%ADD21O,1.700000X1.700000*%
%ADD22O,1.600000X1.600000*%
%ADD23C,1.600000*%
%ADD24O,2.400000X1.600000*%
%ADD25R,2.400000X1.600000*%
%ADD26C,1.270000*%
%ADD27R,1.270000X1.270000*%
%ADD28C,1.625600*%
%ADD29R,1.625600X1.625600*%
%ADD30C,0.812800*%
%ADD31C,0.254000*%
%ADD32C,0.762000*%
G04 APERTURE END LIST*
D10*
G36*
X90435945Y-83161435D02*
G01*
X90472929Y-83166921D01*
X90509198Y-83176006D01*
X90544402Y-83188602D01*
X90578202Y-83204588D01*
X90610272Y-83223810D01*
X90640304Y-83246083D01*
X90668008Y-83271192D01*
X90693117Y-83298896D01*
X90715390Y-83328928D01*
X90734612Y-83360998D01*
X90750598Y-83394798D01*
X90763194Y-83430002D01*
X90772279Y-83466271D01*
X90777765Y-83503255D01*
X90779600Y-83540600D01*
X90779600Y-84302600D01*
X90777765Y-84339945D01*
X90772279Y-84376929D01*
X90763194Y-84413198D01*
X90750598Y-84448402D01*
X90734612Y-84482202D01*
X90715390Y-84514272D01*
X90693117Y-84544304D01*
X90668008Y-84572008D01*
X90640304Y-84597117D01*
X90610272Y-84619390D01*
X90578202Y-84638612D01*
X90544402Y-84654598D01*
X90509198Y-84667194D01*
X90472929Y-84676279D01*
X90435945Y-84681765D01*
X90398600Y-84683600D01*
X89636600Y-84683600D01*
X89599255Y-84681765D01*
X89562271Y-84676279D01*
X89526002Y-84667194D01*
X89490798Y-84654598D01*
X89456998Y-84638612D01*
X89424928Y-84619390D01*
X89394896Y-84597117D01*
X89367192Y-84572008D01*
X89342083Y-84544304D01*
X89319810Y-84514272D01*
X89300588Y-84482202D01*
X89284602Y-84448402D01*
X89272006Y-84413198D01*
X89262921Y-84376929D01*
X89257435Y-84339945D01*
X89255600Y-84302600D01*
X89255600Y-83540600D01*
X89257435Y-83503255D01*
X89262921Y-83466271D01*
X89272006Y-83430002D01*
X89284602Y-83394798D01*
X89300588Y-83360998D01*
X89319810Y-83328928D01*
X89342083Y-83298896D01*
X89367192Y-83271192D01*
X89394896Y-83246083D01*
X89424928Y-83223810D01*
X89456998Y-83204588D01*
X89490798Y-83188602D01*
X89526002Y-83176006D01*
X89562271Y-83166921D01*
X89599255Y-83161435D01*
X89636600Y-83159600D01*
X90398600Y-83159600D01*
X90435945Y-83161435D01*
X90435945Y-83161435D01*
G37*
D11*
X90017600Y-83921600D03*
X163245800Y-85267800D03*
X163245800Y-64947800D03*
X132765800Y-85267800D03*
X132765800Y-82727800D03*
X132765800Y-80187800D03*
X132765800Y-77647800D03*
X132765800Y-75107800D03*
X132765800Y-72567800D03*
X132765800Y-70027800D03*
X132765800Y-67487800D03*
X132765800Y-64947800D03*
D12*
X123190000Y-127000000D03*
D13*
X81404200Y-115620800D03*
X87404200Y-115620800D03*
D14*
X84404200Y-120320800D03*
D15*
X127000000Y-99060000D03*
X127000000Y-101600000D03*
X127000000Y-104140000D03*
X127000000Y-106680000D03*
X119380000Y-106680000D03*
X119380000Y-104140000D03*
X119380000Y-101600000D03*
D16*
X119380000Y-99060000D03*
D17*
X133705600Y-122631200D03*
D18*
X133705600Y-112471200D03*
D17*
X128143000Y-122631200D03*
D18*
X128143000Y-112471200D03*
D17*
X106680000Y-137414000D03*
D18*
X106680000Y-127254000D03*
D19*
X119968000Y-87376000D03*
D20*
X124968000Y-87376000D03*
D19*
X134540000Y-134620000D03*
D20*
X129540000Y-134620000D03*
D19*
X109800400Y-73152000D03*
D20*
X104800400Y-73152000D03*
D19*
X115570000Y-137080000D03*
D20*
X115570000Y-132080000D03*
D21*
X139700000Y-99060000D03*
X139700000Y-101600000D03*
X139700000Y-104140000D03*
X139700000Y-106680000D03*
X139700000Y-109220000D03*
X139700000Y-111760000D03*
X139700000Y-114300000D03*
X139700000Y-116840000D03*
X139700000Y-119380000D03*
X139700000Y-121920000D03*
X139700000Y-124460000D03*
D12*
X139700000Y-127000000D03*
D21*
X160020000Y-99060000D03*
X160020000Y-101600000D03*
X160020000Y-104140000D03*
X160020000Y-106680000D03*
X160020000Y-109220000D03*
X160020000Y-111760000D03*
X160020000Y-114300000D03*
X160020000Y-116840000D03*
X160020000Y-119380000D03*
X160020000Y-121920000D03*
X160020000Y-124460000D03*
X160020000Y-127000000D03*
X160020000Y-129540000D03*
X160020000Y-132080000D03*
X160020000Y-134620000D03*
D12*
X160020000Y-137160000D03*
D22*
X107950000Y-96520000D03*
D23*
X107950000Y-88900000D03*
D22*
X107950000Y-109220000D03*
D23*
X107950000Y-101600000D03*
D24*
X123748800Y-69697600D03*
X116128800Y-77317600D03*
X123748800Y-72237600D03*
X116128800Y-74777600D03*
X123748800Y-74777600D03*
X116128800Y-72237600D03*
X123748800Y-77317600D03*
D25*
X116128800Y-69697600D03*
D22*
X114300000Y-88900000D03*
D23*
X114300000Y-96520000D03*
D26*
X109220000Y-83820000D03*
D27*
X109220000Y-81280000D03*
D21*
X170180000Y-125730000D03*
X170180000Y-123190000D03*
X170180000Y-120650000D03*
X170180000Y-118110000D03*
X170180000Y-115570000D03*
X170180000Y-113030000D03*
X170180000Y-110490000D03*
X170180000Y-107950000D03*
X170180000Y-105410000D03*
X170180000Y-102870000D03*
X170180000Y-100330000D03*
X170180000Y-97790000D03*
X170180000Y-95250000D03*
X170180000Y-92710000D03*
X170180000Y-90170000D03*
X170180000Y-87630000D03*
X170180000Y-85090000D03*
X170180000Y-82550000D03*
X170180000Y-80010000D03*
D12*
X170180000Y-77470000D03*
D26*
X122504200Y-118694200D03*
D27*
X122504200Y-121234200D03*
D26*
X106654600Y-118719600D03*
D27*
X106654600Y-121259600D03*
D28*
X96494600Y-137414000D03*
D29*
X96494600Y-118110000D03*
D30*
X163322000Y-97790000D03*
X138938000Y-132080000D03*
X147066000Y-107188000D03*
X147066000Y-118618000D03*
X147066000Y-93980000D03*
X150368000Y-88900000D03*
X142494000Y-107188000D03*
X142494000Y-80035400D03*
X144754600Y-107162600D03*
X153924000Y-105410000D03*
D31*
X160020000Y-116840000D02*
X163322000Y-113538000D01*
X163322000Y-113538000D02*
X163322000Y-97790000D01*
X140902081Y-116840000D02*
X141029081Y-116967000D01*
X139700000Y-116840000D02*
X140902081Y-116840000D01*
X161124000Y-137160000D02*
X161174800Y-137210800D01*
X160020000Y-137160000D02*
X161124000Y-137160000D01*
X161174800Y-137210800D02*
X162560000Y-137210800D01*
X162560000Y-137210800D02*
X164744400Y-135026400D01*
X164744400Y-135026400D02*
X164744400Y-130505200D01*
X164744400Y-130505200D02*
X167589200Y-127660400D01*
X167589200Y-127660400D02*
X173329600Y-127660400D01*
X173329600Y-127660400D02*
X173761400Y-127228600D01*
X173761400Y-127228600D02*
X173761400Y-104597200D01*
X172034200Y-102870000D02*
X170180000Y-102870000D01*
X173761400Y-104597200D02*
X172034200Y-102870000D01*
X138938000Y-132080000D02*
X160020000Y-132080000D01*
X147066000Y-107188000D02*
X147066000Y-118618000D01*
X147066000Y-91948000D02*
X147066000Y-93980000D01*
X132765800Y-77647800D02*
X147066000Y-91948000D01*
X140931001Y-120688999D02*
X162521001Y-120688999D01*
X139700000Y-121920000D02*
X140931001Y-120688999D01*
X162521001Y-118148999D02*
X170180000Y-110490000D01*
X162521001Y-120688999D02*
X162521001Y-118148999D01*
X140902081Y-111760000D02*
X140927481Y-111734600D01*
X139700000Y-111760000D02*
X140902081Y-111760000D01*
X140927481Y-111734600D02*
X142113000Y-111734600D01*
X142113000Y-111734600D02*
X142519400Y-111328200D01*
X142519400Y-107213400D02*
X142494000Y-107188000D01*
X142519400Y-111328200D02*
X142519400Y-107213400D01*
X170154600Y-80035400D02*
X170180000Y-80010000D01*
X142494000Y-80035400D02*
X170154600Y-80035400D01*
X139700000Y-114300000D02*
X143027400Y-114300000D01*
X143027400Y-114300000D02*
X144754600Y-112572800D01*
X144754600Y-112572800D02*
X144754600Y-107162600D01*
X163830000Y-124460000D02*
X164338000Y-123952000D01*
X160020000Y-124460000D02*
X163830000Y-124460000D01*
X164338000Y-123952000D02*
X164338000Y-121666000D01*
X167894000Y-118110000D02*
X170180000Y-118110000D01*
X164338000Y-121666000D02*
X167894000Y-118110000D01*
X170180000Y-92710000D02*
X168977919Y-92710000D01*
X160020000Y-119380000D02*
X164846000Y-114554000D01*
X164846000Y-114554000D02*
X164846000Y-94742000D01*
X166878000Y-92710000D02*
X170180000Y-92710000D01*
X164846000Y-94742000D02*
X166878000Y-92710000D01*
D32*
X115544600Y-86512400D02*
X116408200Y-87376000D01*
X102158800Y-86512400D02*
X115544600Y-86512400D01*
X116408200Y-87376000D02*
X119968000Y-87376000D01*
X99568000Y-83921600D02*
X102158800Y-86512400D01*
X90017600Y-83921600D02*
X99568000Y-83921600D01*
D31*
X119380000Y-104140000D02*
X120313946Y-104140000D01*
X119380000Y-104140000D02*
X122428000Y-104140000D01*
X123659001Y-105371001D02*
X153708999Y-105371001D01*
X122428000Y-104140000D02*
X123659001Y-105371001D01*
X153708999Y-105371001D02*
X153924000Y-105156000D01*
X109220000Y-73660000D02*
X109620000Y-73660000D01*
X117856000Y-110236000D02*
X136398000Y-110236000D01*
X117602000Y-109982000D02*
X117856000Y-110236000D01*
X117602000Y-99923600D02*
X117602000Y-109982000D01*
X118465600Y-99060000D02*
X117602000Y-99923600D01*
X119380000Y-99060000D02*
X118465600Y-99060000D01*
X139700000Y-119380000D02*
X138497919Y-119380000D01*
X136398000Y-117280081D02*
X136398000Y-110236000D01*
X138497919Y-119380000D02*
X136398000Y-117280081D01*
X156438600Y-100330000D02*
X156438600Y-111785400D01*
X156464000Y-111760000D02*
X160020000Y-111760000D01*
X156438600Y-111785400D02*
X156464000Y-111760000D01*
X156438600Y-100330000D02*
X130708400Y-100330000D01*
X129438400Y-101600000D02*
X127000000Y-101600000D01*
X130708400Y-100330000D02*
X129438400Y-101600000D01*
X120313946Y-101600000D02*
X121583946Y-102870000D01*
X119380000Y-101600000D02*
X120313946Y-101600000D01*
X121583946Y-102870000D02*
X155194000Y-102870000D01*
X155194000Y-102870000D02*
X155194000Y-114046000D01*
X155448000Y-114300000D02*
X160020000Y-114300000D01*
X155194000Y-114046000D02*
X155448000Y-114300000D01*
M02*
