M48
; DRILL file {KiCad (5.1.4-0-10_14)} date Friday, January 10, 2020 at 09:40:30 AM
; FORMAT={-:-/ absolute / inch / decimal}
; #@! TF.CreationDate,2020-01-10T09:40:30-08:00
; #@! TF.GenerationSoftware,Kicad,Pcbnew,(5.1.4-0-10_14)
; #@! TF.FileFunction,Plated,1,4,PTH
FMAT,2
INCH
T1C0.0150
T2C0.0300
T3C0.0315
T4C0.0320
T5C0.0394
T6C0.0433
T7C0.0440
T8C0.0500
T9C0.0650
%
G90
G05
T1
X5.47Y-5.2
X5.61Y-3.151
X5.61Y-4.22
X5.699Y-4.219
X5.79Y-3.7
X5.79Y-4.22
X5.79Y-4.67
X5.92Y-3.5
X6.06Y-4.15
X6.43Y-3.85
T2
X4.199Y-4.674
X4.199Y-4.774
X5.227Y-2.557
X5.227Y-2.657
X5.227Y-2.757
X5.227Y-2.857
X5.227Y-2.957
X5.227Y-3.157
X5.227Y-3.257
X5.227Y-3.357
X6.427Y-2.557
X6.427Y-3.357
X4.823Y-4.673
X4.823Y-4.773
X4.3Y-3.2
X5.227Y-3.057
X4.3Y-3.3
T3
X4.25Y-3.5
X4.25Y-3.8
X4.5Y-3.5
X4.5Y-3.8
X4.572Y-2.744
X4.572Y-2.844
X4.572Y-2.944
X4.572Y-3.044
X4.872Y-2.744
X4.872Y-2.844
X4.872Y-2.944
X4.872Y-3.044
X4.25Y-4.0
X4.25Y-4.3
T4
X4.7Y-3.9
X4.7Y-4.0
X4.7Y-4.1
X4.7Y-4.2
X5.0Y-3.9
X5.0Y-4.0
X5.0Y-4.1
X5.0Y-4.2
T5
X4.55Y-5.2
X4.55Y-5.3969
X6.7Y-3.05
X6.7Y-3.15
X6.7Y-3.25
X6.7Y-3.35
X6.7Y-3.45
X6.7Y-3.55
X6.7Y-3.65
X6.7Y-3.75
X6.7Y-3.85
X6.7Y-3.95
X6.7Y-4.05
X6.7Y-4.15
X6.7Y-4.25
X6.7Y-4.35
X6.7Y-4.45
X6.7Y-4.55
X6.7Y-4.65
X6.7Y-4.75
X6.7Y-4.85
X6.7Y-4.95
X4.7231Y-3.44
X4.92Y-3.44
X5.5Y-3.9
X5.5Y-4.0
X5.5Y-4.1
X5.5Y-4.2
X5.5Y-4.3
X5.5Y-4.4
X5.5Y-4.5
X5.5Y-4.6
X5.5Y-4.7
X5.5Y-4.8
X5.5Y-4.9
X4.126Y-2.88
X5.5Y-5.0
X4.3229Y-2.88
X6.3Y-3.9
X6.3Y-4.0
X6.3Y-4.1
X6.3Y-4.2
X6.3Y-4.3
X6.3Y-4.4
X6.3Y-4.5
X6.3Y-4.6
X6.3Y-4.7
X6.3Y-4.8
X6.3Y-4.9
X6.3Y-5.0
X6.3Y-5.1
X6.3Y-5.2
X6.3Y-5.3
X6.3Y-5.4
X4.85Y-5.0
X5.1Y-5.3
X5.2969Y-5.3
T6
X5.264Y-4.428
X5.264Y-4.828
X4.2Y-5.01
X4.2Y-5.41
X5.045Y-4.428
X5.045Y-4.828
T7
X3.799Y-4.65
X3.799Y-5.41
T8
X3.544Y-3.304
X3.544Y-3.904
T9
X3.2049Y-4.552
X3.323Y-4.737
X3.4411Y-4.552
T0
M30
